<?xml version="1.0" standalone="no"?>
<!DOCTYPE svg PUBLIC "-//W3C//DTD SVG 1.1//EN" "http://www.w3.org/Graphics/SVG/1.1/DTD/svg11.dtd" >
<svg xmlns="http://www.w3.org/2000/svg" xmlns:xlink="http://www.w3.org/1999/xlink" version="1.1">
<metadata></metadata>
<defs>
<font id="crimsonroman" horiz-adv-x="627" >
<font-face units-per-em="1024" ascent="742" descent="-282" />
<missing-glyph horiz-adv-x="217" />
<glyph horiz-adv-x="0" />
<glyph horiz-adv-x="341" />
<glyph unicode=" "  horiz-adv-x="217" />
<glyph unicode="&#x09;" horiz-adv-x="217" />
<glyph unicode="&#xa0;" horiz-adv-x="217" />
<glyph unicode="&#x102;" d="M95 139q132 339 193 495q4 8 17.5 18.5t20.5 10.5q2 0 3 -1q2 -2 3 -2l204 -534l25 -66q6 -15 31 -24.5t37 -9.5q8 -11 2 -29q-100 5 -110 5q-1 0 -116 -5q-4 4 -3.5 14.5t4.5 14.5q41 0 56 13q4 4 4 14q0 13 -17 62t-34 91l-17 42q-3 4 -6 4q-13 1 -99 1q-63 0 -108 -3 l-5 -3q-28 -74 -45 -122q-14 -41 -14 -71q0 -15 26 -21.5t43 -6.5q2 -2 3 -13.5t-1 -15.5q-14 1 -31 2t-31.5 2t-34.5 1t-36 -1t-35 -2t-36 -2q-2 2 -2 13t2 16q13 0 33 5t27 14q21 27 47 94zM291 542l-92 -244q0 -4 2 -4q52 -2 91 -2q38 0 84 3l3 5zM413 833q7 0 14.5 -6 t7.5 -11q0 -4 -1 -6q-10 -38 -40.5 -61.5t-67.5 -23.5t-67.5 23.5t-40.5 61.5q-1 2 -1 6q0 5 7.5 11t14.5 6q21 -62 87 -62t87 62z" />
<glyph unicode="&#x103;" horiz-adv-x="431" d="M187 46q24 0 55.5 16t31.5 25v136q-77 -23 -93 -29q-61 -24 -61 -78q0 -28 19.5 -49t47.5 -21zM241 436q43 0 76 -40t33 -97v-206q0 -47 31 -47q13 0 33 13q4 0 4 -8q0 -11 -5 -19q-12 -11 -36.5 -24.5t-38.5 -13.5q-21 0 -38.5 20t-22.5 45q-14 -14 -57 -40.5t-66 -26.5 q-50 0 -83.5 33t-33.5 82q0 29 15.5 51t34.5 29q170 61 175 63q8 3 10 7.5t2 17.5v27q0 35 -25.5 65.5t-60.5 30.5q-25 0 -37 -15.5t-18 -46.5q-8 -48 -47 -48q-15 0 -24.5 13t-9.5 29q0 15 7 24q31 29 82 55.5t100 26.5zM213 543q31 0 55 20t32 52q0 3 4 3q5 0 11.5 -4.5 t6.5 -8.5v-3q-1 -4 -1 -5q-7 -41 -37.5 -70.5t-70.5 -29.5t-70.5 29t-37.5 72q0 1 -1 4v3q0 4 6.5 8.5t11.5 4.5q4 0 4 -3q8 -32 32 -52t55 -20z" />
<glyph unicode="&#x1ea0;" d="M253 -114q0 21 14.5 35.5t35.5 14.5t35.5 -14.5t14.5 -35.5t-14.5 -35.5t-35.5 -14.5t-35.5 14.5t-14.5 35.5zM94 139q132 339 193 495q4 8 17.5 18.5t20.5 10.5q2 0 3 -1q2 -2 3 -2l204 -534l25 -66q6 -15 31 -24.5t37 -9.5q8 -11 2 -29q-100 5 -110 5q-1 0 -116 -5 q-4 4 -3.5 14.5t4.5 14.5q41 0 56 13q4 4 4 14q0 13 -17 62t-34 91l-17 42q-3 4 -6 4q-13 1 -99 1q-63 0 -108 -3l-5 -3q-28 -74 -45 -122q-14 -41 -14 -71q0 -15 26 -21.5t43 -6.5q2 -2 3 -13.5t-1 -15.5q-14 1 -31 2t-31.5 2t-34.5 1t-36 -1t-35 -2t-36 -2q-2 2 -2 13 t2 16q13 0 33 5t27 14q21 27 47 94zM290 542l-92 -244q0 -4 2 -4q52 -2 91 -2q37 0 84 3l3 5z" />
<glyph unicode="&#x1ea1;" horiz-adv-x="431" d="M173 -119q0 21 14.5 35.5t35.5 14.5t35.5 -14.5t14.5 -35.5t-14.5 -35.5t-35.5 -14.5t-35.5 14.5t-14.5 35.5zM187 46q24 0 55.5 16t31.5 25v136q-77 -23 -93 -29q-61 -24 -61 -78q0 -28 19.5 -49t47.5 -21zM241 436q43 0 76 -40t33 -97v-206q0 -47 31 -47q13 0 33 13 q4 0 4 -8q0 -11 -5 -19q-12 -11 -36.5 -24.5t-38.5 -13.5q-21 0 -38.5 20t-22.5 45q-14 -14 -57 -40.5t-66 -26.5q-50 0 -83.5 33t-33.5 82q0 29 15.5 51t34.5 29q170 61 175 63q8 3 10 7.5t2 17.5v27q0 35 -25.5 65.5t-60.5 30.5q-25 0 -37 -15.5t-18 -46.5q-8 -48 -47 -48 q-15 0 -24.5 13t-9.5 29q0 15 7 24q31 29 82 55.5t100 26.5z" />
<glyph unicode="&#x1ea2;" d="M-147 1072q-2 0 -4 -0.5t-3.5 -1.5t-3 -1.5t-3 -2.5t-2.5 -3t-2 -3t-2 -3.5t-2 -4t-2 -3.5q-11 -21 -28 -21q-10 0 -16.5 7t-6.5 19q0 6 3 12q23 27 84 27q29 0 48.5 -11.5t19.5 -34.5q0 -11 -6 -20t-12.5 -13t-16.5 -9l-12 -6q-25 -16 -25 -29q0 -6 6 -14q-5 -7 -12 -7 q-12 1 -27 8t-15 19q0 20 34 31q34 12 34 35q0 13 -8 21.5t-20 8.5zM95 139q132 339 193 495q4 8 17.5 18.5t20.5 10.5q2 0 3 -1q2 -2 3 -2l204 -534l25 -66q6 -15 31 -24.5t37 -9.5q8 -11 2 -29q-100 5 -110 5q-1 0 -116 -5q-4 4 -3.5 14.5t4.5 14.5q41 0 56 13q4 4 4 14 q0 13 -17 62t-34 91l-17 42q-3 4 -6 4q-13 1 -99 1q-63 0 -108 -3l-5 -3q-28 -74 -45 -122q-14 -41 -14 -71q0 -15 26 -21.5t43 -6.5q2 -2 3 -13.5t-1 -15.5q-14 1 -31 2t-31.5 2t-34.5 1t-36 -1t-35 -2t-36 -2q-2 2 -2 13t2 16q13 0 33 5t27 14q21 27 47 94zM291 542 l-92 -244q0 -4 2 -4q52 -2 91 -2q38 0 84 3l3 5z" />
<glyph unicode="&#x1ea3;" horiz-adv-x="431" d="M241 675q26 0 40 -14t14 -37t-15.5 -40t-35.5 -26q-14 -6 -19 -11t-5 -14q0 -11 8 -19q0 -4 -6 -9t-10 -5q-34 11 -34 33q0 11 10 21.5t15.5 13t19.5 9.5q31 14 31 37q0 13 -7.5 22.5t-20.5 9.5q-32 0 -32 -36q0 -20 -30 -20q-16 0 -16 9q0 26 30.5 51t62.5 25zM187 46 q24 0 55.5 16t31.5 25v136q-77 -23 -93 -29q-61 -24 -61 -78q0 -28 19.5 -49t47.5 -21zM241 436q43 0 76 -40t33 -97v-206q0 -47 31 -47q13 0 33 13q4 0 4 -8q0 -11 -5 -19q-12 -11 -36.5 -24.5t-38.5 -13.5q-21 0 -38.5 20t-22.5 45q-14 -14 -57 -40.5t-66 -26.5 q-50 0 -83.5 33t-33.5 82q0 29 15.5 51t34.5 29q170 61 175 63q8 3 10 7.5t2 17.5v27q0 35 -25.5 65.5t-60.5 30.5q-25 0 -37 -15.5t-18 -46.5q-8 -48 -47 -48q-15 0 -24.5 13t-9.5 29q0 15 7 24q31 29 82 55.5t100 26.5z" />
<glyph unicode="&#x1ea4;" d="M-70 838q4 0 12 -8q20 -22 50.5 -53t51.5 -54q0 -17 -10 -17l-104 64l-104 -64q-4 0 -7.5 6t-3.5 11q13 14 46 47.5t57 59.5q8 8 12 8zM95 139q132 339 193 495q4 8 17.5 18.5t20.5 10.5q2 0 3 -1q2 -2 3 -2l204 -534l25 -66q6 -15 31 -24.5t37 -9.5q8 -11 2 -29 q-100 5 -110 5q-1 0 -116 -5q-4 4 -3.5 14.5t4.5 14.5q41 0 56 13q4 4 4 14q0 13 -17 62t-34 91l-17 42q-3 4 -6 4q-13 1 -99 1q-63 0 -108 -3l-5 -3q-28 -74 -45 -122q-14 -41 -14 -71q0 -15 26 -21.5t43 -6.5q2 -2 3 -13.5t-1 -15.5q-14 1 -31 2t-31.5 2t-34.5 1t-36 -1 t-35 -2t-36 -2q-2 2 -2 13t2 16q13 0 33 5t27 14q21 27 47 94zM291 542l-92 -244q0 -4 2 -4q52 -2 91 -2q38 0 84 3l3 5z" />
<glyph unicode="&#x1ea5;" horiz-adv-x="452" d="M408 674q32 0 32 -21q0 -16 -62.5 -56.5t-72.5 -40.5q-8 0 -8 10q0 2 15.5 21t36.5 43t35 38q7 6 24 6zM218 654q6 0 11 -9q29 -47 94 -132q0 -5 -3.5 -9t-7.5 -4l-94 76q-59 -48 -94 -76q-4 0 -7.5 4t-3.5 9q65 85 94 132q5 9 11 9zM187 46q24 0 55.5 16t31.5 25v136 q-77 -23 -93 -29q-61 -24 -61 -78q0 -28 19.5 -49t47.5 -21zM241 436q43 0 76 -40t33 -97v-206q0 -47 31 -47q13 0 33 13q4 0 4 -8q0 -11 -5 -19q-12 -11 -36.5 -24.5t-38.5 -13.5q-21 0 -38.5 20t-22.5 45q-14 -14 -57 -40.5t-66 -26.5q-50 0 -83.5 33t-33.5 82 q0 29 15.5 51t34.5 29q170 61 175 63q8 3 10 7.5t2 17.5v27q0 35 -25.5 65.5t-60.5 30.5q-25 0 -37 -15.5t-18 -46.5q-8 -48 -47 -48q-15 0 -24.5 13t-9.5 29q0 15 7 24q31 29 82 55.5t100 26.5z" />
<glyph unicode="&#x1ea6;" d="M-33 810q0 -7 -5 -7q-7 0 -39 14.5t-63 35t-31 32.5q0 24 34 24q9 0 13 -2q19 -15 55 -53.5t36 -43.5zM95 139q132 339 193 495q4 8 17.5 18.5t20.5 10.5q2 0 3 -1q2 -2 3 -2l204 -534l25 -66q6 -15 31 -24.5t37 -9.5q8 -11 2 -29q-100 5 -110 5q-1 0 -116 -5 q-4 4 -3.5 14.5t4.5 14.5q41 0 56 13q4 4 4 14q0 13 -17 62t-34 91l-17 42q-3 4 -6 4q-13 1 -99 1q-63 0 -108 -3l-5 -3q-28 -74 -45 -122q-14 -41 -14 -71q0 -15 26 -21.5t43 -6.5q2 -2 3 -13.5t-1 -15.5q-14 1 -31 2t-31.5 2t-34.5 1t-36 -1t-35 -2t-36 -2q-2 2 -2 13 t2 16q13 0 33 5t27 14q21 27 47 94zM291 542l-92 -244q0 -4 2 -4q52 -2 91 -2q38 0 84 3l3 5zM-70 838q4 0 12 -8q20 -22 50.5 -53t51.5 -54q0 -17 -10 -17l-104 64l-104 -64q-4 0 -7.5 6t-3.5 11q13 14 46 47.5t57 59.5q8 8 12 8z" />
<glyph unicode="&#x1ea7;" horiz-adv-x="431" d="M28 674q17 0 24 -6q21 -22 53.5 -60.5t32.5 -41.5q0 -10 -8 -10q-10 0 -72 40.5t-62 56.5q0 21 32 21zM218 654q6 0 11 -9q29 -47 94 -132q0 -5 -3.5 -9t-7.5 -4l-94 76q-59 -48 -94 -76q-4 0 -7.5 4t-3.5 9q65 85 94 132q5 9 11 9zM187 46q24 0 55.5 16t31.5 25v136 q-77 -23 -93 -29q-61 -24 -61 -78q0 -28 19.5 -49t47.5 -21zM241 436q43 0 76 -40t33 -97v-206q0 -47 31 -47q13 0 33 13q4 0 4 -8q0 -11 -5 -19q-12 -11 -36.5 -24.5t-38.5 -13.5q-21 0 -38.5 20t-22.5 45q-14 -14 -57 -40.5t-66 -26.5q-50 0 -83.5 33t-33.5 82 q0 29 15.5 51t34.5 29q170 61 175 63q8 3 10 7.5t2 17.5v27q0 35 -25.5 65.5t-60.5 30.5q-25 0 -37 -15.5t-18 -46.5q-8 -48 -47 -48q-15 0 -24.5 13t-9.5 29q0 15 7 24q31 29 82 55.5t100 26.5z" />
<glyph unicode="&#x1ea8;" d="M472 888q-2 0 -4 -0.5t-3.5 -1.5t-3 -1.5t-3 -2.5t-2.5 -3t-2 -3t-2 -3.5t-2 -4t-2 -3.5q-10 -21 -28 -21q-10 0 -16.5 7t-6.5 19q0 6 3 12q23 27 84 27q29 0 48.5 -11.5t19.5 -34.5q0 -11 -6 -20t-12.5 -13t-16.5 -9l-12 -6q-25 -16 -25 -29q0 -6 6 -14q-5 -7 -12 -7 q-12 1 -27 8t-15 19q0 20 34 31q34 12 34 35q0 13 -8 21.5t-20 8.5zM322 837q4 0 12 -8q20 -22 50.5 -53t51.5 -54q0 -17 -10 -17l-104 64l-104 -64q-4 0 -7.5 6t-3.5 11q13 14 46 47.5t57 59.5q8 8 12 8zM95 139q132 339 193 495q4 8 17.5 18.5t20.5 10.5q2 0 3 -1 q2 -2 3 -2l204 -534l25 -66q6 -15 31 -24.5t37 -9.5q8 -11 2 -29q-100 5 -110 5q-1 0 -116 -5q-4 4 -3.5 14.5t4.5 14.5q41 0 56 13q4 4 4 14q0 13 -17 62t-34 91l-17 42q-3 4 -6 4q-13 1 -99 1q-63 0 -108 -3l-5 -3q-28 -74 -45 -122q-14 -41 -14 -71q0 -15 26 -21.5 t43 -6.5q2 -2 3 -13.5t-1 -15.5q-14 1 -31 2t-31.5 2t-34.5 1t-36 -1t-35 -2t-36 -2q-2 2 -2 13t2 16q13 0 33 5t27 14q21 27 47 94zM291 542l-92 -244q0 -4 2 -4q52 -2 91 -2q38 0 84 3l3 5zM-70 838q4 0 12 -8q20 -22 50.5 -53t51.5 -54q0 -17 -10 -17l-104 64l-104 -64 q-4 0 -7.5 6t-3.5 11q13 14 46 47.5t57 59.5q8 8 12 8zM-27 1109q-2 0 -4 -0.5t-3.5 -1.5t-3 -1.5t-3 -2.5t-2.5 -3t-2 -3t-2 -3.5t-2 -4t-2 -3.5q-11 -21 -28 -21q-10 0 -16.5 7t-6.5 19q0 6 3 12q23 27 84 27q29 0 48.5 -11.5t19.5 -34.5q0 -11 -6 -20t-12.5 -13t-16.5 -9 l-12 -6q-25 -16 -25 -29q0 -6 6 -14q-5 -7 -12 -7q-12 1 -27 8t-15 19q0 20 34 31q34 12 34 35q0 13 -8 21.5t-20 8.5z" />
<glyph unicode="&#x1ea9;" horiz-adv-x="429" d="M374 722q26 0 40 -14t14 -37t-15.5 -40t-35.5 -26q-14 -6 -19 -11t-5 -14q0 -11 8 -19q0 -4 -6 -9t-10 -5q-34 11 -34 33q0 11 10 21.5t15.5 13t19.5 9.5q31 14 31 37q0 13 -7.5 22.5t-20.5 9.5q-32 0 -32 -36q0 -20 -30 -20q-16 0 -16 9q0 26 30.5 51t62.5 25zM218 646 q6 0 11 -9q29 -47 94 -132q0 -5 -3.5 -9t-7.5 -4l-94 76q-59 -48 -94 -76q-4 0 -7.5 4t-3.5 9q65 85 94 132q5 9 11 9zM187 46q24 0 55.5 16t31.5 25v136q-77 -23 -93 -29q-61 -24 -61 -78q0 -28 19.5 -49t47.5 -21zM241 436q43 0 76 -40t33 -97v-206q0 -47 31 -47 q13 0 33 13q4 0 4 -8q0 -11 -5 -19q-12 -11 -36.5 -24.5t-38.5 -13.5q-21 0 -38.5 20t-22.5 45q-14 -14 -57 -40.5t-66 -26.5q-50 0 -83.5 33t-33.5 82q0 29 15.5 51t34.5 29q170 61 175 63q8 3 10 7.5t2 17.5v27q0 35 -25.5 65.5t-60.5 30.5q-25 0 -37 -15.5t-18 -46.5 q-8 -48 -47 -48q-15 0 -24.5 13t-9.5 29q0 15 7 24q31 29 82 55.5t100 26.5z" />
<glyph unicode="&#x1eaa;" d="M275 916q24 0 62 -16q30 -13 54 -13q35 0 58 29q5 -3 5 -11q0 -25 -24 -42t-58 -17q-22 0 -60 14q-41 15 -61 15q-33 0 -59 -30q-6 2 -6 11q0 25 26.5 42.5t62.5 17.5zM95 139q132 339 193 495q4 8 17.5 18.5t20.5 10.5q2 0 3 -1q2 -2 3 -2l204 -534l25 -66 q6 -15 31 -24.5t37 -9.5q8 -11 2 -29q-100 5 -110 5q-1 0 -116 -5q-4 4 -3.5 14.5t4.5 14.5q41 0 56 13q4 4 4 14q0 13 -17 62t-34 91l-17 42q-3 4 -6 4q-13 1 -99 1q-63 0 -108 -3l-5 -3q-28 -74 -45 -122q-14 -41 -14 -71q0 -15 26 -21.5t43 -6.5q2 -2 3 -13.5t-1 -15.5 q-14 1 -31 2t-31.5 2t-34.5 1t-36 -1t-35 -2t-36 -2q-2 2 -2 13t2 16q13 0 33 5t27 14q21 27 47 94zM291 542l-92 -244q0 -4 2 -4q52 -2 91 -2q38 0 84 3l3 5zM-70 827q4 0 12 -8q17 -16 33.5 -31.5t33.5 -32t35 -34.5q0 -4 -3 -9.5t-7 -5.5l-104 58q-78 -44 -104 -58 q-4 0 -7.5 5.5t-3.5 9.5q13 13 46 44t57 54q8 8 12 8z" />
<glyph unicode="&#x1eab;" horiz-adv-x="431" d="M164 713q23 0 61 -20q38 -21 58 -21q16 0 28 7.5t19.5 17t8.5 9.5q6 0 6 -8q0 -14 -14 -33q-27 -33 -62 -33q-24 0 -60 20q-40 22 -59 22q-16 0 -27 -7.5t-17 -17t-8 -9.5q-8 0 -8 9q0 17 12 33q27 31 62 31zM218 627q6 0 11 -7q29 -40 94 -110q0 -4 -3.5 -7.5t-7.5 -3.5 l-94 63q-59 -40 -94 -63q-4 0 -7.5 3.5t-3.5 7.5q65 70 94 110q5 7 11 7zM187 46q24 0 55.5 16t31.5 25v136q-77 -23 -93 -29q-61 -24 -61 -78q0 -28 19.5 -49t47.5 -21zM241 436q43 0 76 -40t33 -97v-206q0 -47 31 -47q13 0 33 13q4 0 4 -8q0 -11 -5 -19 q-12 -11 -36.5 -24.5t-38.5 -13.5q-21 0 -38.5 20t-22.5 45q-14 -14 -57 -40.5t-66 -26.5q-50 0 -83.5 33t-33.5 82q0 29 15.5 51t34.5 29q170 61 175 63q8 3 10 7.5t2 17.5v27q0 35 -25.5 65.5t-60.5 30.5q-25 0 -37 -15.5t-18 -46.5q-8 -48 -47 -48q-15 0 -24.5 13 t-9.5 29q0 15 7 24q31 29 82 55.5t100 26.5z" />
<glyph unicode="&#x1eac;" d="M-65 860q4 0 12 -8q20 -22 50.5 -53t51.5 -54q0 -17 -10 -17l-104 64l-104 -64q-4 0 -7.5 6t-3.5 11q13 14 46 47.5t57 59.5q8 8 12 8zM253 -114q0 21 14.5 35.5t35.5 14.5t35.5 -14.5t14.5 -35.5t-14.5 -35.5t-35.5 -14.5t-35.5 14.5t-14.5 35.5zM94 139 q132 339 193 495q4 8 17.5 18.5t20.5 10.5q2 0 3 -1q2 -2 3 -2l204 -534l25 -66q6 -15 31 -24.5t37 -9.5q8 -11 2 -29q-100 5 -110 5q-1 0 -116 -5q-4 4 -3.5 14.5t4.5 14.5q41 0 56 13q4 4 4 14q0 13 -17 62t-34 91l-17 42q-3 4 -6 4q-13 1 -99 1q-63 0 -108 -3l-5 -3 q-28 -74 -45 -122q-14 -41 -14 -71q0 -15 26 -21.5t43 -6.5q2 -2 3 -13.5t-1 -15.5q-14 1 -31 2t-31.5 2t-34.5 1t-36 -1t-35 -2t-36 -2q-2 2 -2 13t2 16q13 0 33 5t27 14q21 27 47 94zM290 542l-92 -244q0 -4 2 -4q52 -2 91 -2q37 0 84 3l3 5z" />
<glyph unicode="&#x1ead;" horiz-adv-x="431" d="M221 646q6 0 11 -9q29 -47 94 -132q0 -5 -3.5 -9t-7.5 -4l-94 76q-59 -48 -94 -76q-4 0 -7.5 4t-3.5 9q65 85 94 132q5 9 11 9zM173 -119q0 21 14.5 35.5t35.5 14.5t35.5 -14.5t14.5 -35.5t-14.5 -35.5t-35.5 -14.5t-35.5 14.5t-14.5 35.5zM187 46q24 0 55.5 16t31.5 25 v136q-77 -23 -93 -29q-61 -24 -61 -78q0 -28 19.5 -49t47.5 -21zM241 436q43 0 76 -40t33 -97v-206q0 -47 31 -47q13 0 33 13q4 0 4 -8q0 -11 -5 -19q-12 -11 -36.5 -24.5t-38.5 -13.5q-21 0 -38.5 20t-22.5 45q-14 -14 -57 -40.5t-66 -26.5q-50 0 -83.5 33t-33.5 82 q0 29 15.5 51t34.5 29q170 61 175 63q8 3 10 7.5t2 17.5v27q0 35 -25.5 65.5t-60.5 30.5q-25 0 -37 -15.5t-18 -46.5q-8 -48 -47 -48q-15 0 -24.5 13t-9.5 29q0 15 7 24q31 29 82 55.5t100 26.5z" />
<glyph unicode="&#x1eae;" d="M284 801q0 5 35.5 43t54.5 53q4 2 13 2q34 0 34 -24q0 -18 -59 -49.5t-74 -31.5q-4 0 -4 7zM410 819q7 0 14.5 -6t7.5 -11q0 -4 -1 -6q-10 -38 -40.5 -61.5t-67.5 -23.5t-67.5 23.5t-40.5 61.5q-1 2 -1 6q0 5 7.5 11t14.5 6q21 -62 87 -62t87 62zM95 139q132 339 193 495 q4 8 17.5 18.5t20.5 10.5q2 0 3 -1q2 -2 3 -2l204 -534l25 -66q6 -15 31 -24.5t37 -9.5q8 -11 2 -29q-100 5 -110 5q-1 0 -116 -5q-4 4 -3.5 14.5t4.5 14.5q41 0 56 13q4 4 4 14q0 13 -17 62t-34 91l-17 42q-3 4 -6 4q-13 1 -99 1q-63 0 -108 -3l-5 -3q-28 -74 -45 -122 q-14 -41 -14 -71q0 -15 26 -21.5t43 -6.5q2 -2 3 -13.5t-1 -15.5q-14 1 -31 2t-31.5 2t-34.5 1t-36 -1t-35 -2t-36 -2q-2 2 -2 13t2 16q13 0 33 5t27 14q21 27 47 94zM291 542l-92 -244q0 -4 2 -4q52 -2 91 -2q38 0 84 3l3 5z" />
<glyph unicode="&#x1eaf;" horiz-adv-x="431" d="M266 687q28 0 28 -23q0 -16 -56 -60t-65 -44q-7 0 -7 11q0 3 29 44.5t49 65.5q6 6 22 6zM213 520q31 0 55 20t32 52q0 3 4 3q5 0 11.5 -4.5t6.5 -8.5v-4q-1 -3 -1 -4q-7 -41 -37.5 -70.5t-70.5 -29.5t-70.5 29t-37.5 72q0 1 -1 4v3q0 4 6.5 8.5t11.5 4.5q4 0 4 -3 q8 -32 32 -52t55 -20zM187 46q24 0 55.5 16t31.5 25v136q-77 -23 -93 -29q-61 -24 -61 -78q0 -28 19.5 -49t47.5 -21zM241 436q43 0 76 -40t33 -97v-206q0 -47 31 -47q13 0 33 13q4 0 4 -8q0 -11 -5 -19q-12 -11 -36.5 -24.5t-38.5 -13.5q-21 0 -38.5 20t-22.5 45 q-14 -14 -57 -40.5t-66 -26.5q-50 0 -83.5 33t-33.5 82q0 29 15.5 51t34.5 29q170 61 175 63q8 3 10 7.5t2 17.5v27q0 35 -25.5 65.5t-60.5 30.5q-25 0 -37 -15.5t-18 -46.5q-8 -48 -47 -48q-15 0 -24.5 13t-9.5 29q0 15 7 24q31 29 82 55.5t100 26.5z" />
<glyph unicode="&#x1eb0;" d="M359 801q0 -7 -5 -7q-14 0 -73 31.5t-59 49.5q0 24 34 24q9 0 13 -2q12 -10 34 -32.5t39 -41.5t17 -22zM408 819q7 0 14.5 -6t7.5 -11q0 -4 -1 -6q-10 -38 -40.5 -61.5t-67.5 -23.5t-67.5 23.5t-40.5 61.5q-1 2 -1 6q0 5 7.5 11t14.5 6q21 -62 87 -62t87 62zM95 139 q132 339 193 495q4 8 17.5 18.5t20.5 10.5q2 0 3 -1q2 -2 3 -2l204 -534l25 -66q6 -15 31 -24.5t37 -9.5q8 -11 2 -29q-100 5 -110 5q-1 0 -116 -5q-4 4 -3.5 14.5t4.5 14.5q41 0 56 13q4 4 4 14q0 13 -17 62t-34 91l-17 42q-3 4 -6 4q-13 1 -99 1q-63 0 -108 -3l-5 -3 q-28 -74 -45 -122q-14 -41 -14 -71q0 -15 26 -21.5t43 -6.5q2 -2 3 -13.5t-1 -15.5q-14 1 -31 2t-31.5 2t-34.5 1t-36 -1t-35 -2t-36 -2q-2 2 -2 13t2 16q13 0 33 5t27 14q21 27 47 94zM291 542l-92 -244q0 -4 2 -4q52 -2 91 -2q38 0 84 3l3 5zM77 816q0 -7 -5 -7 q-14 0 -73.5 32t-59.5 50q0 24 34 24q9 0 13 -2q19 -15 55 -53.5t36 -43.5zM28 1022q7 0 14.5 -6t7.5 -11q0 -4 -1 -6q-10 -38 -40.5 -61.5t-67.5 -23.5t-67.5 23.5t-40.5 61.5q-1 2 -1 6q0 5 7.5 11t14.5 6q21 -62 87 -62t87 62z" />
<glyph unicode="&#x1eb1;" horiz-adv-x="431" d="M138 687q15 0 21 -6q20 -24 49 -65.5t29 -44.5q0 -11 -7 -11q-9 0 -65 44t-56 60q0 23 29 23zM213 520q31 0 55 20t32 52q0 3 4 3q5 0 11.5 -4.5t6.5 -8.5v-4q-1 -3 -1 -4q-7 -41 -37.5 -70.5t-70.5 -29.5t-70.5 29t-37.5 72q0 1 -1 4v3q0 4 6.5 8.5t11.5 4.5q4 0 4 -3 q8 -32 32 -52t55 -20zM187 46q24 0 55.5 16t31.5 25v136q-77 -23 -93 -29q-61 -24 -61 -78q0 -28 19.5 -49t47.5 -21zM241 436q43 0 76 -40t33 -97v-206q0 -47 31 -47q13 0 33 13q4 0 4 -8q0 -11 -5 -19q-12 -11 -36.5 -24.5t-38.5 -13.5q-21 0 -38.5 20t-22.5 45 q-14 -14 -57 -40.5t-66 -26.5q-50 0 -83.5 33t-33.5 82q0 29 15.5 51t34.5 29q170 61 175 63q8 3 10 7.5t2 17.5v27q0 35 -25.5 65.5t-60.5 30.5q-25 0 -37 -15.5t-18 -46.5q-8 -48 -47 -48q-15 0 -24.5 13t-9.5 29q0 15 7 24q31 29 82 55.5t100 26.5z" />
<glyph unicode="&#x1eb2;" d="M328 907q-2 0 -4 -0.5t-3.5 -1.5t-3 -1.5t-3 -2.5t-2.5 -3t-2 -3t-2 -3.5t-2 -4t-2 -3.5q-10 -21 -28 -21q-10 0 -16.5 7t-6.5 19q0 6 3 12q23 27 84 27q29 0 48.5 -11.5t19.5 -34.5q0 -11 -6 -20t-12.5 -13t-16.5 -9l-12 -6q-25 -16 -25 -29q0 -6 6 -14q-5 -7 -12 -7 q-12 1 -27 8t-15 19q0 20 34 31q34 12 34 35q0 13 -8 21.5t-20 8.5zM405 819q7 0 14.5 -6t7.5 -11q0 -4 -1 -6q-10 -38 -40.5 -61.5t-67.5 -23.5t-67.5 23.5t-40.5 61.5q-1 2 -1 6q0 5 7.5 11t14.5 6q21 -62 87 -62t87 62zM95 139q132 339 193 495q4 8 17.5 18.5t20.5 10.5 q2 0 3 -1q2 -2 3 -2l204 -534l25 -66q6 -15 31 -24.5t37 -9.5q8 -11 2 -29q-100 5 -110 5q-1 0 -116 -5q-4 4 -3.5 14.5t4.5 14.5q41 0 56 13q4 4 4 14q0 13 -17 62t-34 91l-17 42q-3 4 -6 4q-13 1 -99 1q-63 0 -108 -3l-5 -3q-28 -74 -45 -122q-14 -41 -14 -71 q0 -15 26 -21.5t43 -6.5q2 -2 3 -13.5t-1 -15.5q-14 1 -31 2t-31.5 2t-34.5 1t-36 -1t-35 -2t-36 -2q-2 2 -2 13t2 16q13 0 33 5t27 14q21 27 47 94zM291 542l-92 -244q0 -4 2 -4q52 -2 91 -2q38 0 84 3l3 5zM25 1022q7 0 14.5 -6t7.5 -11q0 -4 -1 -6q-10 -38 -40.5 -61.5 t-67.5 -23.5t-67.5 23.5t-40.5 61.5q-1 2 -1 6q0 5 7.5 11t14.5 6q21 -62 87 -62t87 62zM-171 1128q-2 0 -4 -0.5t-3.5 -1.5t-3 -1.5t-3 -2.5t-2.5 -3t-2 -3t-2 -3.5t-2 -4t-2 -3.5q-11 -21 -28 -21q-10 0 -16.5 7t-6.5 19q0 6 3 12q23 27 84 27q29 0 48.5 -11.5t19.5 -34.5 q0 -11 -6 -20t-12.5 -13t-16.5 -9l-12 -6q-25 -16 -25 -29q0 -6 6 -14q-5 -7 -12 -7q-12 1 -27 8t-15 19q0 20 34 31q34 12 34 35q0 13 -8 21.5t-20 8.5z" />
<glyph unicode="&#x1eb3;" horiz-adv-x="431" d="M242 778q26 0 40 -14t14 -37t-15.5 -40t-35.5 -26q-14 -6 -19 -11t-5 -14q0 -11 8 -19q0 -4 -6 -9t-10 -5q-34 11 -34 33q0 11 10 21.5t15.5 13t19.5 9.5q31 14 31 37q0 13 -7.5 22.5t-20.5 9.5q-32 0 -32 -36q0 -20 -30 -20q-16 0 -16 9q0 26 30.5 51t62.5 25zM187 46 q24 0 55.5 16t31.5 25v136q-77 -23 -93 -29q-61 -24 -61 -78q0 -28 19.5 -49t47.5 -21zM241 436q43 0 76 -40t33 -97v-206q0 -47 31 -47q13 0 33 13q4 0 4 -8q0 -11 -5 -19q-12 -11 -36.5 -24.5t-38.5 -13.5q-21 0 -38.5 20t-22.5 45q-14 -14 -57 -40.5t-66 -26.5 q-50 0 -83.5 33t-33.5 82q0 29 15.5 51t34.5 29q170 61 175 63q8 3 10 7.5t2 17.5v27q0 35 -25.5 65.5t-60.5 30.5q-25 0 -37 -15.5t-18 -46.5q-8 -48 -47 -48q-15 0 -24.5 13t-9.5 29q0 15 7 24q31 29 82 55.5t100 26.5zM213 543q31 0 55 20t32 52q0 3 4 3q5 0 11.5 -4.5 t6.5 -8.5v-3q-1 -4 -1 -5q-7 -41 -37.5 -70.5t-70.5 -29.5t-70.5 29t-37.5 72q0 1 -1 4v3q0 4 6.5 8.5t11.5 4.5q4 0 4 -3q8 -32 32 -52t55 -20z" />
<glyph unicode="&#x1eb4;" d="M275 916q24 0 62 -16q30 -13 54 -13q35 0 58 29q5 -3 5 -11q0 -25 -24 -42t-58 -17q-22 0 -60 14q-41 15 -61 15q-33 0 -59 -30q-6 2 -6 11q0 25 26.5 42.5t62.5 17.5zM95 139q132 339 193 495q4 8 17.5 18.5t20.5 10.5q2 0 3 -1q2 -2 3 -2l204 -534l25 -66 q6 -15 31 -24.5t37 -9.5q8 -11 2 -29q-100 5 -110 5q-1 0 -116 -5q-4 4 -3.5 14.5t4.5 14.5q41 0 56 13q4 4 4 14q0 13 -17 62t-34 91l-17 42q-3 4 -6 4q-13 1 -99 1q-63 0 -108 -3l-5 -3q-28 -74 -45 -122q-14 -41 -14 -71q0 -15 26 -21.5t43 -6.5q2 -2 3 -13.5t-1 -15.5 q-14 1 -31 2t-31.5 2t-34.5 1t-36 -1t-35 -2t-36 -2q-2 2 -2 13t2 16q13 0 33 5t27 14q21 27 47 94zM291 542l-92 -244q0 -4 2 -4q52 -2 91 -2q38 0 84 3l3 5zM25 1022q7 0 14.5 -6t7.5 -11q0 -4 -1 -6q-10 -38 -40.5 -61.5t-67.5 -23.5t-67.5 23.5t-40.5 61.5q-1 2 -1 6 q0 5 7.5 11t14.5 6q21 -62 87 -62t87 62z" />
<glyph unicode="&#x1eb5;" horiz-adv-x="431" d="M161 715q23 0 61 -23q38 -24 58 -24q16 0 28 8.5t19.5 19t8.5 11.5q6 0 6 -9q0 -17 -14 -38q-27 -37 -62 -37q-24 0 -60 22q-40 25 -59 25q-16 0 -27 -8.5t-17 -19t-8 -11.5q-8 0 -8 11q0 19 12 37q27 36 62 36zM187 46q24 0 55.5 16t31.5 25v136q-77 -23 -93 -29 q-61 -24 -61 -78q0 -28 19.5 -49t47.5 -21zM241 436q43 0 76 -40t33 -97v-206q0 -47 31 -47q13 0 33 13q4 0 4 -8q0 -11 -5 -19q-12 -11 -36.5 -24.5t-38.5 -13.5q-21 0 -38.5 20t-22.5 45q-14 -14 -57 -40.5t-66 -26.5q-50 0 -83.5 33t-33.5 82q0 29 15.5 51t34.5 29 q170 61 175 63q8 3 10 7.5t2 17.5v27q0 35 -25.5 65.5t-60.5 30.5q-25 0 -37 -15.5t-18 -46.5q-8 -48 -47 -48q-15 0 -24.5 13t-9.5 29q0 15 7 24q31 29 82 55.5t100 26.5zM213 543q31 0 55 20t32 52q0 3 4 3q5 0 11.5 -4.5t6.5 -8.5v-3q-1 -4 -1 -5q-7 -41 -37.5 -70.5 t-70.5 -29.5t-70.5 29t-37.5 72q0 1 -1 4v3q0 4 6.5 8.5t11.5 4.5q4 0 4 -3q8 -32 32 -52t55 -20z" />
<glyph unicode="&#x1eb6;" d="M32 1036q7 0 14.5 -6t7.5 -11q0 -4 -1 -6q-10 -38 -40.5 -61.5t-67.5 -23.5t-67.5 23.5t-40.5 61.5q-1 2 -1 6q0 5 7.5 11t14.5 6q21 -62 87 -62t87 62zM253 -114q0 21 14.5 35.5t35.5 14.5t35.5 -14.5t14.5 -35.5t-14.5 -35.5t-35.5 -14.5t-35.5 14.5t-14.5 35.5z M94 139q132 339 193 495q4 8 17.5 18.5t20.5 10.5q2 0 3 -1q2 -2 3 -2l204 -534l25 -66q6 -15 31 -24.5t37 -9.5q8 -11 2 -29q-100 5 -110 5q-1 0 -116 -5q-4 4 -3.5 14.5t4.5 14.5q41 0 56 13q4 4 4 14q0 13 -17 62t-34 91l-17 42q-3 4 -6 4q-13 1 -99 1q-63 0 -108 -3 l-5 -3q-28 -74 -45 -122q-14 -41 -14 -71q0 -15 26 -21.5t43 -6.5q2 -2 3 -13.5t-1 -15.5q-14 1 -31 2t-31.5 2t-34.5 1t-36 -1t-35 -2t-36 -2q-2 2 -2 13t2 16q13 0 33 5t27 14q21 27 47 94zM290 542l-92 -244q0 -4 2 -4q52 -2 91 -2q37 0 84 3l3 5z" />
<glyph unicode="&#x1eb7;" horiz-adv-x="431" d="M213 520q31 0 55 20t32 52q0 3 4 3q5 0 11.5 -4.5t6.5 -8.5v-4q-1 -3 -1 -4q-7 -41 -37.5 -70.5t-70.5 -29.5t-70.5 29t-37.5 72q0 1 -1 4v3q0 4 6.5 8.5t11.5 4.5q4 0 4 -3q8 -32 32 -52t55 -20zM173 -119q0 21 14.5 35.5t35.5 14.5t35.5 -14.5t14.5 -35.5t-14.5 -35.5 t-35.5 -14.5t-35.5 14.5t-14.5 35.5zM187 46q24 0 55.5 16t31.5 25v136q-77 -23 -93 -29q-61 -24 -61 -78q0 -28 19.5 -49t47.5 -21zM241 436q43 0 76 -40t33 -97v-206q0 -47 31 -47q13 0 33 13q4 0 4 -8q0 -11 -5 -19q-12 -11 -36.5 -24.5t-38.5 -13.5q-21 0 -38.5 20 t-22.5 45q-14 -14 -57 -40.5t-66 -26.5q-50 0 -83.5 33t-33.5 82q0 29 15.5 51t34.5 29q170 61 175 63q8 3 10 7.5t2 17.5v27q0 35 -25.5 65.5t-60.5 30.5q-25 0 -37 -15.5t-18 -46.5q-8 -48 -47 -48q-15 0 -24.5 13t-9.5 29q0 15 7 24q31 29 82 55.5t100 26.5z" />
<glyph unicode="&#x1eb8;" horiz-adv-x="587" d="M248 -115q0 21 14.5 35.5t35.5 14.5t35.5 -14.5t14.5 -35.5t-14.5 -35.5t-35.5 -14.5t-35.5 14.5t-14.5 35.5zM163 657q45 0 155.5 3.5t166.5 3.5q4 -29 15.5 -76.5t13.5 -59.5q-5 -5 -18 -5t-14 7q-15 56 -43 75t-73 19h-86q-66 0 -69 -11q-5 -16 -5 -71v-187 q0 -6 43 -6h53q67 0 82 9.5t26 53.5q1 6 2 9q1 7 15 7q12 0 17 -5v-189q-4 -4 -16 -4q-13 0 -16 8q-7 28 -12 41.5t-8 17t-8 7.5q-13 8 -106 8q-72 0 -72 -9v-190q0 -64 6 -69q13 -10 71 -10h48q82 0 126 27q33 19 63 101q2 6 14 6q19 0 25 -6q-5 -13 -15.5 -41.5t-16.5 -46 t-13 -40.5t-9 -38q-51 0 -161 2t-180 2q-24 0 -62 -1.5t-57 -1.5q-4 4 -3.5 14.5t3.5 14.5q15 0 41 4.5t28 11.5q5 16 5 74v427q0 58 -5 74q-2 7 -28 11.5t-41 4.5q-3 4 -3.5 14.5t3.5 14.5q103 -5 118 -5z" />
<glyph unicode="&#x1eb9;" horiz-adv-x="430" d="M175 -119q0 21 14.5 35.5t35.5 14.5t35.5 -14.5t14.5 -35.5t-14.5 -35.5t-35.5 -14.5t-35.5 14.5t-14.5 35.5zM116 285h163q23 0 23 23q0 30 -21 62t-61 32q-37 0 -63 -29t-35 -58.5t-6 -29.5zM111 248v-7q0 -88 47 -136.5t116 -48.5q36 0 65 17.5t45 35.5q1 0 2.5 -1.5 t3.5 -5t2 -7.5q0 -8 -6 -18q-19 -31 -56.5 -58t-89.5 -27q-88 0 -144 59.5t-56 148.5q0 96 63.5 167t133.5 71q42 0 73.5 -15t47 -38.5t22.5 -44t7 -38.5q0 -46 -24 -47q-109 -7 -252 -7z" />
<glyph unicode="&#x1eba;" horiz-adv-x="587" d="M-212 1072q-2 0 -4 -0.5t-3.5 -1.5t-3 -1.5t-3 -2.5t-2.5 -3t-2 -3t-2 -3.5t-2 -4t-2 -3.5q-10 -21 -28 -21q-10 0 -16.5 7t-6.5 19q0 6 3 12q23 27 84 27q29 0 48.5 -11.5t19.5 -34.5q0 -11 -6 -20t-12.5 -13t-16.5 -9l-12 -6q-25 -16 -25 -29q0 -6 6 -14q-5 -7 -12 -7 q-12 1 -27 8t-15 19q0 20 34 31q34 12 34 35q0 13 -8 21.5t-20 8.5zM163 657q45 0 155.5 3.5t166.5 3.5q4 -29 15.5 -76.5t13.5 -59.5q-5 -5 -18 -5t-14 7q-15 56 -43 75t-73 19h-86q-66 0 -69 -11q-5 -16 -5 -71v-187q0 -6 43 -6h53q67 0 82 9.5t26 53.5q1 6 2 9q1 7 15 7 q12 0 17 -5v-189q-4 -4 -16 -4q-13 0 -16 8q-7 28 -12 41.5t-8 17t-8 7.5q-13 8 -106 8q-72 0 -72 -9v-190q0 -64 6 -69q13 -10 71 -10h48q82 0 126 27q33 19 63 101q2 6 14 6q19 0 25 -6q-5 -13 -15.5 -41.5t-16.5 -46t-13 -40.5t-9 -38q-51 0 -161 2t-180 2 q-24 0 -62 -1.5t-57 -1.5q-4 4 -3.5 14.5t3.5 14.5q15 0 41 4.5t28 11.5q5 16 5 74v427q0 58 -5 74q-2 7 -28 11.5t-41 4.5q-3 4 -3.5 14.5t3.5 14.5q103 -5 118 -5z" />
<glyph unicode="&#x1ebb;" horiz-adv-x="430" d="M261 675q26 0 40 -14t14 -37t-15.5 -40t-35.5 -26q-14 -6 -19 -11t-5 -14q0 -11 8 -19q0 -4 -6 -9t-10 -5q-34 11 -34 33q0 11 10 21.5t15.5 13t19.5 9.5q31 14 31 37q0 13 -7.5 22.5t-20.5 9.5q-32 0 -32 -36q0 -20 -30 -20q-16 0 -16 9q0 26 30.5 51t62.5 25zM116 285 h163q23 0 23 23q0 30 -21 62t-61 32q-37 0 -63 -29t-35 -58.5t-6 -29.5zM111 248v-7q0 -88 47 -136.5t116 -48.5q36 0 65 17.5t45 35.5q1 0 2.5 -1.5t3.5 -5t2 -7.5q0 -8 -6 -18q-19 -31 -56.5 -58t-89.5 -27q-88 0 -144 59.5t-56 148.5q0 96 63.5 167t133.5 71 q42 0 73.5 -15t47 -38.5t22.5 -44t7 -38.5q0 -46 -24 -47q-109 -7 -252 -7z" />
<glyph unicode="&#x1ebc;" horiz-adv-x="587" d="M-232 818q27 0 67 -22q42 -24 61 -24q18 0 32 8.5t23 19t10 10.5q6 0 6 -10q0 -17 -14 -35q-31 -37 -69 -37q-27 0 -67 22q-42 24 -62 24q-18 0 -32 -8.5t-22.5 -19t-9.5 -10.5q-6 0 -6 11q0 17 14 35q30 36 69 36zM162 657q45 0 155.5 3.5t166.5 3.5q4 -29 15.5 -76.5 t13.5 -59.5q-5 -5 -18 -5t-14 7q-15 56 -43 75t-73 19h-86q-66 0 -69 -11q-5 -16 -5 -71v-187q0 -6 43 -6h53q67 0 82 9.5t26 53.5q1 6 2 9q1 7 15 7q12 0 17 -5v-189q-4 -4 -16 -4q-13 0 -16 8q-7 28 -12 41.5t-8 17t-8 7.5q-13 8 -106 8q-72 0 -72 -9v-190q0 -64 6 -69 q13 -10 71 -10h48q82 0 126 27q33 19 63 101q1 6 14 6q19 0 25 -6q-5 -13 -15.5 -41.5t-16.5 -46t-13 -40.5t-9 -38q-52 0 -162 2t-179 2q-25 0 -63 -1.5t-56 -1.5q-4 4 -3.5 14.5t3.5 14.5q15 0 41 4.5t28 11.5q5 16 5 74v427q0 58 -5 74q-2 7 -28 11.5t-41 4.5 q-3 4 -3.5 14.5t3.5 14.5q102 -5 118 -5z" />
<glyph unicode="&#x1ebd;" horiz-adv-x="430" d="M179 586q23 0 61 -23q38 -24 58 -24q16 0 28 8.5t19.5 19t8.5 11.5q6 0 6 -9q0 -17 -14 -38q-27 -37 -62 -37q-24 0 -60 22q-40 25 -59 25q-16 0 -27 -8.5t-17 -19t-8 -11.5q-8 0 -8 11q0 19 12 37q27 36 62 36zM116 285h163q23 0 23 23q0 30 -21 62t-61 32 q-37 0 -63 -29t-35 -58.5t-6 -29.5zM111 248v-7q0 -88 47 -136.5t116 -48.5q36 0 65 17.5t45 35.5q1 0 2.5 -1.5t3.5 -5t2 -7.5q0 -8 -6 -18q-19 -31 -56.5 -58t-89.5 -27q-88 0 -144 59.5t-56 148.5q0 96 63.5 167t133.5 71q42 0 73.5 -15t47 -38.5t22.5 -44t7 -38.5 q0 -46 -24 -47q-109 -7 -252 -7z" />
<glyph unicode="&#x1ebe;" horiz-adv-x="586" d="M162 657q45 0 155.5 3.5t166.5 3.5q4 -29 15.5 -76.5t13.5 -59.5q-5 -5 -18 -5t-14 7q-15 56 -43 75t-73 19h-86q-66 0 -69 -11q-5 -16 -5 -71v-187q0 -6 43 -6h53q67 0 82 9.5t26 53.5q1 6 2 9q1 7 15 7q12 0 17 -5v-189q-4 -4 -16 -4q-13 0 -16 8q-7 28 -12 41.5t-8 17 t-8 7.5q-13 8 -106 8q-72 0 -72 -9v-190q0 -64 6 -69q13 -10 71 -10h48q82 0 126 27q33 19 63 101q1 6 14 6q19 0 25 -6q-5 -13 -15.5 -41.5t-16.5 -46t-13 -40.5t-9 -38q-52 0 -162 2t-179 2q-25 0 -63 -1.5t-56 -1.5q-4 4 -3.5 14.5t3.5 14.5q15 0 41 4.5t28 11.5 q5 16 5 74v427q0 58 -5 74q-2 7 -28 11.5t-41 4.5q-3 4 -3.5 14.5t3.5 14.5q102 -5 118 -5zM-108 838q4 0 12 -8q20 -22 50.5 -53t51.5 -54q0 -17 -10 -17l-104 64l-104 -64q-4 0 -7.5 6t-3.5 11q13 14 46 47.5t57 59.5q8 8 12 8zM78 810q0 3 17 22.5t39 42t34 32.5 q5 2 14 2q34 0 34 -24q0 -18 -59.5 -50t-74.5 -32q-4 0 -4 7z" />
<glyph unicode="&#x1ebf;" horiz-adv-x="468" d="M413 674q32 0 32 -21q0 -16 -62.5 -56.5t-72.5 -40.5q-8 0 -8 10q0 2 15.5 21t36.5 43t35 38q7 6 24 6zM223 654q6 0 11 -9q29 -47 94 -132q0 -5 -3.5 -9t-7.5 -4l-94 76q-59 -48 -94 -76q-4 0 -7.5 4t-3.5 9q65 85 94 132q5 9 11 9zM116 285h163q23 0 23 23q0 30 -21 62 t-61 32q-37 0 -63 -29t-35 -58.5t-6 -29.5zM111 248v-7q0 -88 47 -136.5t116 -48.5q36 0 65 17.5t45 35.5q1 0 2.5 -1.5t3.5 -5t2 -7.5q0 -8 -6 -18q-19 -31 -56.5 -58t-89.5 -27q-88 0 -144 59.5t-56 148.5q0 96 63.5 167t133.5 71q42 0 73.5 -15t47 -38.5t22.5 -44 t7 -38.5q0 -46 -24 -47q-109 -7 -252 -7z" />
<glyph unicode="&#x1ec0;" horiz-adv-x="586" d="M-70 810q0 -7 -5 -7q-7 0 -39 14.5t-63 35t-31 32.5q0 24 34 24q9 0 13 -2q19 -15 55 -53.5t36 -43.5zM-107 838q4 0 12 -8q20 -22 50.5 -53t51.5 -54q0 -17 -10 -17l-104 64l-104 -64q-4 0 -7.5 6t-3.5 11q13 14 46 47.5t57 59.5q8 8 12 8zM162 657q45 0 155.5 3.5 t166.5 3.5q4 -29 15.5 -76.5t13.5 -59.5q-5 -5 -18 -5t-14 7q-15 56 -43 75t-73 19h-86q-66 0 -69 -11q-5 -16 -5 -71v-187q0 -6 43 -6h53q67 0 82 9.5t26 53.5q1 6 2 9q1 7 15 7q12 0 17 -5v-189q-4 -4 -16 -4q-13 0 -16 8q-7 28 -12 41.5t-8 17t-8 7.5q-13 8 -106 8 q-72 0 -72 -9v-190q0 -64 6 -69q13 -10 71 -10h48q82 0 126 27q33 19 63 101q1 6 14 6q19 0 25 -6q-5 -13 -15.5 -41.5t-16.5 -46t-13 -40.5t-9 -38q-52 0 -162 2t-179 2q-25 0 -63 -1.5t-56 -1.5q-4 4 -3.5 14.5t3.5 14.5q15 0 41 4.5t28 11.5q5 16 5 74v427q0 58 -5 74 q-2 7 -28 11.5t-41 4.5q-3 4 -3.5 14.5t3.5 14.5q102 -5 118 -5z" />
<glyph unicode="&#x1ec1;" horiz-adv-x="445" d="M33 674q17 0 24 -6q21 -22 53.5 -60.5t32.5 -41.5q0 -10 -8 -10q-10 0 -72.5 40.5t-62.5 56.5q0 21 33 21zM223 654q6 0 11 -9q29 -47 94 -132q0 -5 -3.5 -9t-7.5 -4l-94 76q-59 -48 -94 -76q-4 0 -7.5 4t-3.5 9q65 85 94 132q5 9 11 9zM116 285h163q23 0 23 23 q0 30 -21 62t-61 32q-37 0 -63 -29t-35 -58.5t-6 -29.5zM111 248v-7q0 -88 47 -136.5t116 -48.5q36 0 65 17.5t45 35.5q1 0 2.5 -1.5t3.5 -5t2 -7.5q0 -8 -6 -18q-19 -31 -56.5 -58t-89.5 -27q-88 0 -144 59.5t-56 148.5q0 96 63.5 167t133.5 71q42 0 73.5 -15t47 -38.5 t22.5 -44t7 -38.5q0 -46 -24 -47q-109 -7 -252 -7z" />
<glyph unicode="&#x1ec2;" horiz-adv-x="586" d="M162 657q45 0 155.5 3.5t166.5 3.5q4 -29 15.5 -76.5t13.5 -59.5q-5 -5 -18 -5t-14 7q-15 56 -43 75t-73 19h-86q-66 0 -69 -11q-5 -16 -5 -71v-187q0 -6 43 -6h53q67 0 82 9.5t26 53.5q1 6 2 9q1 7 15 7q12 0 17 -5v-189q-4 -4 -16 -4q-13 0 -16 8q-7 28 -12 41.5t-8 17 t-8 7.5q-13 8 -106 8q-72 0 -72 -9v-190q0 -64 6 -69q13 -10 71 -10h48q82 0 126 27q33 19 63 101q1 6 14 6q19 0 25 -6q-5 -13 -15.5 -41.5t-16.5 -46t-13 -40.5t-9 -38q-52 0 -162 2t-179 2q-25 0 -63 -1.5t-56 -1.5q-4 4 -3.5 14.5t3.5 14.5q15 0 41 4.5t28 11.5 q5 16 5 74v427q0 58 -5 74q-2 7 -28 11.5t-41 4.5q-3 4 -3.5 14.5t3.5 14.5q102 -5 118 -5zM-101 838q4 0 12 -8q20 -22 50.5 -53t51.5 -54q0 -17 -10 -17l-104 64l-104 -64q-4 0 -7.5 6t-3.5 11q13 14 46 47.5t57 59.5q8 8 12 8zM-40 1109q-2 0 -4 -0.5t-3.5 -1.5t-3 -1.5 t-3 -2.5t-2.5 -3t-2 -3t-2 -3.5t-2 -4t-2 -3.5q-10 -21 -28 -21q-10 0 -16.5 7t-6.5 19q0 6 3 12q23 27 84 27q29 0 48.5 -11.5t19.5 -34.5q0 -11 -6 -20t-12.5 -13t-16.5 -9l-12 -6q-25 -16 -25 -29q0 -6 6 -14q-5 -7 -12 -7q-12 1 -27 8t-15 19q0 20 34 31q34 12 34 35 q0 13 -8 21.5t-20 8.5z" />
<glyph unicode="&#x1ec3;" horiz-adv-x="423" d="M379 722q26 0 40 -14t14 -37t-15.5 -40t-35.5 -26q-14 -6 -19 -11t-5 -14q0 -11 8 -19q0 -4 -6 -9t-10 -5q-34 11 -34 33q0 11 10 21.5t15.5 13t19.5 9.5q31 14 31 37q0 13 -7.5 22.5t-20.5 9.5q-32 0 -32 -36q0 -20 -30 -20q-16 0 -16 9q0 26 30.5 51t62.5 25zM223 646 q6 0 11 -9q29 -47 94 -132q0 -5 -3.5 -9t-7.5 -4l-94 76q-59 -48 -94 -76q-4 0 -7.5 4t-3.5 9q65 85 94 132q5 9 11 9zM116 285h163q23 0 23 23q0 30 -21 62t-61 32q-37 0 -63 -29t-35 -58.5t-6 -29.5zM111 248v-7q0 -88 47 -136.5t116 -48.5q36 0 65 17.5t45 35.5 q1 0 2.5 -1.5t3.5 -5t2 -7.5q0 -8 -6 -18q-19 -31 -56.5 -58t-89.5 -27q-88 0 -144 59.5t-56 148.5q0 96 63.5 167t133.5 71q42 0 73.5 -15t47 -38.5t22.5 -44t7 -38.5q0 -46 -24 -47q-109 -7 -252 -7z" />
<glyph unicode="&#x1ec4;" horiz-adv-x="586" d="M246 916q24 0 62 -16q30 -13 54 -13q35 0 58 29q5 -3 5 -11q0 -25 -24 -42t-58 -17q-22 0 -60 14q-41 15 -61 15q-33 0 -59 -30q-6 2 -6 11q0 25 26.5 42.5t62.5 17.5zM162 657q45 0 155.5 3.5t166.5 3.5q4 -29 15.5 -76.5t13.5 -59.5q-5 -5 -18 -5t-14 7q-15 56 -43 75 t-73 19h-86q-66 0 -69 -11q-5 -16 -5 -71v-187q0 -6 43 -6h53q67 0 82 9.5t26 53.5q1 6 2 9q1 7 15 7q12 0 17 -5v-189q-4 -4 -16 -4q-13 0 -16 8q-7 28 -12 41.5t-8 17t-8 7.5q-13 8 -106 8q-72 0 -72 -9v-190q0 -64 6 -69q13 -10 71 -10h48q82 0 126 27q33 19 63 101 q1 6 14 6q19 0 25 -6q-5 -13 -15.5 -41.5t-16.5 -46t-13 -40.5t-9 -38q-52 0 -162 2t-179 2q-25 0 -63 -1.5t-56 -1.5q-4 4 -3.5 14.5t3.5 14.5q15 0 41 4.5t28 11.5q5 16 5 74v427q0 58 -5 74q-2 7 -28 11.5t-41 4.5q-3 4 -3.5 14.5t3.5 14.5q102 -5 118 -5zM-99 827 q4 0 12 -8q17 -16 33.5 -31.5t33.5 -32t35 -34.5q0 -4 -3 -9.5t-7 -5.5l-104 58q-78 -44 -104 -58q-4 0 -7.5 5.5t-3.5 9.5q13 13 46 44t57 54q8 8 12 8z" />
<glyph unicode="&#x1ec5;" horiz-adv-x="430" d="M170 713q23 0 61 -20q38 -21 58 -21q16 0 28 7.5t19.5 17t8.5 9.5q6 0 6 -8q0 -14 -14 -33q-27 -33 -62 -33q-24 0 -60 20q-40 22 -59 22q-16 0 -27 -7.5t-17 -17t-8 -9.5q-8 0 -8 9q0 17 12 33q27 31 62 31zM224 627q6 0 11 -7q29 -40 94 -110q0 -4 -3.5 -7.5t-7.5 -3.5 l-94 63q-59 -40 -94 -63q-4 0 -7.5 3.5t-3.5 7.5q65 70 94 110q5 7 11 7zM116 285h163q23 0 23 23q0 30 -21 62t-61 32q-37 0 -63 -29t-35 -58.5t-6 -29.5zM111 248v-7q0 -88 47 -136.5t116 -48.5q36 0 65 17.5t45 35.5q1 0 2.5 -1.5t3.5 -5t2 -7.5q0 -8 -6 -18 q-19 -31 -56.5 -58t-89.5 -27q-88 0 -144 59.5t-56 148.5q0 96 63.5 167t133.5 71q42 0 73.5 -15t47 -38.5t22.5 -44t7 -38.5q0 -46 -24 -47q-109 -7 -252 -7z" />
<glyph unicode="&#x1ec6;" horiz-adv-x="587" d="M-98 860q4 0 12 -8q20 -22 50.5 -53t51.5 -54q0 -17 -10 -17l-104 64l-104 -64q-4 0 -7.5 6t-3.5 11q13 14 46 47.5t57 59.5q8 8 12 8zM248 -115q0 21 14.5 35.5t35.5 14.5t35.5 -14.5t14.5 -35.5t-14.5 -35.5t-35.5 -14.5t-35.5 14.5t-14.5 35.5zM163 657 q45 0 155.5 3.5t166.5 3.5q4 -29 15.5 -76.5t13.5 -59.5q-5 -5 -18 -5t-14 7q-15 56 -43 75t-73 19h-86q-66 0 -69 -11q-5 -16 -5 -71v-187q0 -6 43 -6h53q67 0 82 9.5t26 53.5q1 6 2 9q1 7 15 7q12 0 17 -5v-189q-4 -4 -16 -4q-13 0 -16 8q-7 28 -12 41.5t-8 17t-8 7.5 q-13 8 -106 8q-72 0 -72 -9v-190q0 -64 6 -69q13 -10 71 -10h48q82 0 126 27q33 19 63 101q2 6 14 6q19 0 25 -6q-5 -13 -15.5 -41.5t-16.5 -46t-13 -40.5t-9 -38q-51 0 -161 2t-180 2q-24 0 -62 -1.5t-57 -1.5q-4 4 -3.5 14.5t3.5 14.5q15 0 41 4.5t28 11.5q5 16 5 74v427 q0 58 -5 74q-2 7 -28 11.5t-41 4.5q-3 4 -3.5 14.5t3.5 14.5q103 -5 118 -5z" />
<glyph unicode="&#x1ec7;" horiz-adv-x="430" d="M223 654q6 0 11 -9q29 -47 94 -132q0 -5 -3.5 -9t-7.5 -4l-94 76q-59 -48 -94 -76q-4 0 -7.5 4t-3.5 9q65 85 94 132q5 9 11 9zM175 -119q0 21 14.5 35.5t35.5 14.5t35.5 -14.5t14.5 -35.5t-14.5 -35.5t-35.5 -14.5t-35.5 14.5t-14.5 35.5zM116 285h163q23 0 23 23 q0 30 -21 62t-61 32q-37 0 -63 -29t-35 -58.5t-6 -29.5zM111 248v-7q0 -88 47 -136.5t116 -48.5q36 0 65 17.5t45 35.5q1 0 2.5 -1.5t3.5 -5t2 -7.5q0 -8 -6 -18q-19 -31 -56.5 -58t-89.5 -27q-88 0 -144 59.5t-56 148.5q0 96 63.5 167t133.5 71q42 0 73.5 -15t47 -38.5 t22.5 -44t7 -38.5q0 -46 -24 -47q-109 -7 -252 -7z" />
<glyph unicode="&#x1ec8;" horiz-adv-x="324" d="M-332 1072q-2 0 -4 -0.5t-3.5 -1.5t-3 -1.5t-3 -2.5t-2.5 -3t-2 -3t-2 -3.5t-2 -4t-2 -3.5q-10 -21 -28 -21q-10 0 -16.5 7t-6.5 19q0 6 3 12q23 27 84 27q29 0 48.5 -11.5t19.5 -34.5q0 -11 -6 -20t-12.5 -13t-16.5 -9l-12 -6q-25 -16 -25 -29q0 -6 6 -14q-5 -7 -12 -7 q-12 1 -27 8t-15 19q0 20 34 31q34 12 34 35q0 13 -8 21.5t-20 8.5zM163 657q15 0 117 5q4 -4 3.5 -14.5t-3.5 -14.5q-15 0 -41 -4.5t-28 -11.5q-5 -16 -5 -74v-427q0 -58 5 -74q2 -7 28 -11.5t41 -4.5q3 -4 3.5 -14.5t-3.5 -14.5q-102 5 -117 5t-118 -5q-4 4 -3.5 14.5 t3.5 14.5q15 0 41 4.5t28 11.5q5 16 5 74v427q0 58 -5 74q-2 7 -28 11.5t-41 4.5q-3 4 -3.5 14.5t3.5 14.5q103 -5 118 -5z" />
<glyph unicode="&#x1ec9;" horiz-adv-x="270" d="M160 692q26 0 40 -14t14 -37t-15.5 -40t-35.5 -26q-14 -6 -19 -11t-5 -14q0 -11 8 -19q0 -4 -6 -9t-10 -5q-34 11 -34 33q0 11 10 21.5t15.5 13t19.5 9.5q31 14 31 37q0 13 -7.5 22.5t-20.5 9.5q-32 0 -32 -36q0 -20 -30 -20q-16 0 -16 9q0 26 30.5 51t62.5 25zM181 325 v-209q0 -58 5 -74q2 -7 25.5 -11.5t37.5 -4.5q3 -4 3.5 -14.5t-3.5 -14.5q-103 5 -107 5t-106 -5q-4 4 -3.5 14.5t3.5 14.5q14 0 37.5 4.5t25.5 11.5q5 16 5 74v186q0 40 -5 52q-7 18 -65 18q-2 2 -2.5 12t2.5 14q85 12 143 42q4 0 7.5 -6t3.5 -10q-7 -49 -7 -66v-33z" />
<glyph unicode="&#x1eca;" horiz-adv-x="324" d="M112 -114q0 21 14.5 35.5t35.5 14.5t35.5 -14.5t14.5 -35.5t-14.5 -35.5t-35.5 -14.5t-35.5 14.5t-14.5 35.5zM162 657q14 0 117 5q4 -4 3.5 -14.5t-3.5 -14.5q-15 0 -41 -4.5t-28 -11.5q-5 -16 -5 -74v-427q0 -58 5 -74q2 -7 28 -11.5t41 -4.5q3 -4 3.5 -14.5 t-3.5 -14.5q-103 5 -117 5q-16 0 -118 -5q-4 4 -3.5 14.5t3.5 14.5q15 0 41 4.5t28 11.5q5 16 5 74v427q0 58 -5 74q-2 7 -28 11.5t-41 4.5q-3 4 -3.5 14.5t3.5 14.5q102 -5 118 -5z" />
<glyph unicode="&#x1ecb;" horiz-adv-x="270" d="M89 -111q0 21 14.5 35.5t35.5 14.5t35.5 -14.5t14.5 -35.5t-14.5 -35.5t-35.5 -14.5t-35.5 14.5t-14.5 35.5zM180 325v-209q0 -58 5 -74q2 -7 25.5 -11.5t37.5 -4.5q3 -4 3.5 -14.5t-3.5 -14.5q-102 5 -107 5q-3 0 -106 -5q-4 4 -3.5 14.5t3.5 14.5q14 0 37.5 4.5 t25.5 11.5q5 16 5 74v186q0 40 -5 52q-7 18 -65 18q-2 2 -2.5 12t2.5 14q85 12 143 42q4 0 7.5 -6t3.5 -10q-7 -49 -7 -66v-33zM84 593q0 21 14.5 35.5t35.5 14.5t35.5 -14.5t14.5 -35.5t-14.5 -35.5t-35.5 -14.5t-35.5 14.5t-14.5 35.5z" />
<glyph unicode="&#x1ecc;" horiz-adv-x="748" d="M323 -121q0 21 14.5 35.5t35.5 14.5t35.5 -14.5t14.5 -35.5t-14.5 -35.5t-35.5 -14.5t-35.5 14.5t-14.5 35.5zM358 633q-54 0 -96 -25t-66 -66.5t-36 -90.5t-12 -101q0 -80 27 -153t83.5 -123t130.5 -50q54 0 96 25t66 67t36.5 91t12.5 102q0 80 -27.5 152.5t-84 122 t-130.5 49.5zM373 667q135 0 230.5 -96t95.5 -243q0 -139 -96.5 -238.5t-229.5 -99.5q-134 0 -229 96t-95 242q0 140 96 239.5t228 99.5z" />
<glyph unicode="&#x1ecd;" horiz-adv-x="509" d="M205 -119q0 21 14.5 35.5t35.5 14.5t35.5 -14.5t14.5 -35.5t-14.5 -35.5t-35.5 -14.5t-35.5 14.5t-14.5 35.5zM243 406q-59 0 -87.5 -50t-28.5 -123q0 -80 38 -143.5t101 -63.5q59 0 87.5 50t28.5 122q0 79 -38 143.5t-101 64.5zM254 439q97 0 155.5 -61.5t58.5 -156.5 q0 -97 -60.5 -162.5t-151.5 -65.5q-97 0 -156 62t-59 158q0 97 61 161.5t152 64.5z" />
<glyph unicode="&#x1ece;" horiz-adv-x="748" d="M375 851q-2 0 -4 -0.5t-3.5 -1.5t-3 -1.5t-3 -2.5t-2.5 -3t-2 -3t-2 -3.5t-2 -4t-2 -3.5q-11 -21 -28 -21q-10 0 -16.5 7t-6.5 19q0 6 3 12q23 27 84 27q29 0 48.5 -11.5t19.5 -34.5q0 -11 -6 -20t-12.5 -13t-16.5 -9l-12 -6q-25 -16 -25 -29q0 -6 6 -14q-5 -7 -12 -7 q-12 1 -27 8t-15 19q0 20 34 31q34 12 34 35q0 13 -8 21.5t-20 8.5zM358 633q-54 0 -96 -25t-66 -66.5t-36 -90.5t-12 -101q0 -80 27 -153t83.5 -123t130.5 -50q54 0 96 25t66 67t36.5 91t12.5 102q0 80 -27.5 152.5t-84 122t-130.5 49.5zM373 667q135 0 230.5 -96 t95.5 -243q0 -139 -96.5 -238.5t-229.5 -99.5q-134 0 -229 96t-95 242q0 140 96 239.5t228 99.5z" />
<glyph unicode="&#x1ecf;" horiz-adv-x="509" d="M278 675q26 0 40 -14t14 -37t-15.5 -40t-35.5 -26q-14 -6 -19 -11t-5 -14q0 -11 8 -19q0 -4 -6 -9t-10 -5q-34 11 -34 33q0 11 10 21.5t15.5 13t19.5 9.5q31 14 31 37q0 13 -7.5 22.5t-20.5 9.5q-32 0 -32 -36q0 -20 -30 -20q-16 0 -16 9q0 26 30.5 51t62.5 25zM243 406 q-59 0 -87.5 -50t-28.5 -123q0 -80 38 -143.5t101 -63.5q59 0 87.5 50t28.5 122q0 79 -38 143.5t-101 64.5zM254 439q97 0 155.5 -61.5t58.5 -156.5q0 -97 -60.5 -162.5t-151.5 -65.5q-97 0 -156 62t-59 158q0 97 61 161.5t152 64.5z" />
<glyph unicode="&#x1ed0;" horiz-adv-x="748" d="M446 795q0 5 35.5 43t54.5 53q4 2 13 2q34 0 34 -24q0 -18 -59 -49.5t-74 -31.5q-4 0 -4 7zM373 837q4 0 12 -8q20 -22 50.5 -53t51.5 -54q0 -17 -10 -17l-104 64l-104 -64q-4 0 -7.5 6t-3.5 11q13 14 46 47.5t57 59.5q8 8 12 8zM358 633q-54 0 -96 -25t-66 -66.5 t-36 -90.5t-12 -101q0 -80 27 -153t83.5 -123t130.5 -50q54 0 96 25t66 67t36.5 91t12.5 102q0 80 -27.5 152.5t-84 122t-130.5 49.5zM373 667q135 0 230.5 -96t95.5 -243q0 -139 -96.5 -238.5t-229.5 -99.5q-134 0 -229 96t-95 242q0 140 96 239.5t228 99.5z" />
<glyph unicode="&#x1ed1;" horiz-adv-x="518" d="M447 674q32 0 32 -21q0 -16 -62.5 -56.5t-72.5 -40.5q-8 0 -8 10q0 2 15.5 21t36.5 43t35 38q7 6 24 6zM257 654q6 0 11 -9q29 -47 94 -132q0 -5 -3.5 -9t-7.5 -4l-94 76q-59 -48 -94 -76q-4 0 -7.5 4t-3.5 9q65 85 94 132q5 9 11 9zM243 406q-59 0 -87.5 -50t-28.5 -123 q0 -80 38 -143.5t101 -63.5q59 0 87.5 50t28.5 122q0 79 -38 143.5t-101 64.5zM254 439q97 0 155.5 -61.5t58.5 -156.5q0 -97 -60.5 -162.5t-151.5 -65.5q-97 0 -156 62t-59 158q0 97 61 161.5t152 64.5z" />
<glyph unicode="&#x1ed2;" horiz-adv-x="748" d="M18 810q0 -7 -5 -7q-14 0 -73.5 32t-59.5 50q0 24 34 24q9 0 13 -2q19 -15 55 -53.5t36 -43.5zM-19 838q4 0 12 -8q20 -22 50.5 -53t51.5 -54q0 -17 -10 -17l-104 64l-104 -64q-4 0 -7.5 6t-3.5 11q13 14 46 47.5t57 59.5q8 8 12 8zM358 633q-54 0 -96 -25t-66 -66.5 t-36 -90.5t-12 -101q0 -80 27 -153t83.5 -123t130.5 -50q54 0 96 25t66 67t36.5 91t12.5 102q0 80 -27.5 152.5t-84 122t-130.5 49.5zM373 667q135 0 230.5 -96t95.5 -243q0 -139 -96.5 -238.5t-229.5 -99.5q-134 0 -229 96t-95 242q0 140 96 239.5t228 99.5z" />
<glyph unicode="&#x1ed3;" horiz-adv-x="509" d="M67 674q17 0 24 -6q21 -22 53.5 -60.5t32.5 -41.5q0 -10 -8 -10q-10 0 -72.5 40.5t-62.5 56.5q0 21 33 21zM257 654q6 0 11 -9q29 -47 94 -132q0 -5 -3.5 -9t-7.5 -4l-94 76q-59 -48 -94 -76q-4 0 -7.5 4t-3.5 9q65 85 94 132q5 9 11 9zM243 406q-59 0 -87.5 -50 t-28.5 -123q0 -80 38 -143.5t101 -63.5q59 0 87.5 50t28.5 122q0 79 -38 143.5t-101 64.5zM254 439q97 0 155.5 -61.5t58.5 -156.5q0 -97 -60.5 -162.5t-151.5 -65.5q-97 0 -156 62t-59 158q0 97 61 161.5t152 64.5z" />
<glyph unicode="&#x1ed4;" horiz-adv-x="748" d="M541 888q-2 0 -4 -0.5t-3.5 -1.5t-3 -1.5t-3 -2.5t-2.5 -3t-2 -3t-2 -3.5t-2 -4t-2 -3.5q-11 -21 -28 -21q-10 0 -16.5 7t-6.5 19q0 6 3 12q23 27 84 27q29 0 48.5 -11.5t19.5 -34.5q0 -11 -6 -20t-12.5 -13t-16.5 -9l-12 -6q-25 -16 -25 -29q0 -6 6 -14q-5 -7 -12 -7 q-12 1 -27 8t-15 19q0 20 34 31q34 12 34 35q0 13 -8 21.5t-20 8.5zM373 837q4 0 12 -8q20 -22 50.5 -53t51.5 -54q0 -17 -10 -17l-104 64l-104 -64q-4 0 -7.5 6t-3.5 11q13 14 46 47.5t57 59.5q8 8 12 8zM358 633q-54 0 -96 -25t-66 -66.5t-36 -90.5t-12 -101 q0 -80 27 -153t83.5 -123t130.5 -50q54 0 96 25t66 67t36.5 91t12.5 102q0 80 -27.5 152.5t-84 122t-130.5 49.5zM373 667q135 0 230.5 -96t95.5 -243q0 -139 -96.5 -238.5t-229.5 -99.5q-134 0 -229 96t-95 242q0 140 96 239.5t228 99.5z" />
<glyph unicode="&#x1ed5;" horiz-adv-x="509" d="M413 722q26 0 40 -14t14 -37t-15.5 -40t-35.5 -26q-14 -6 -19 -11t-5 -14q0 -11 8 -19q0 -4 -6 -9t-10 -5q-34 11 -34 33q0 11 10 21.5t15.5 13t19.5 9.5q31 14 31 37q0 13 -7.5 22.5t-20.5 9.5q-32 0 -32 -36q0 -20 -30 -20q-16 0 -16 9q0 26 30.5 51t62.5 25zM257 646 q6 0 11 -9q29 -47 94 -132q0 -5 -3.5 -9t-7.5 -4l-94 76q-59 -48 -94 -76q-4 0 -7.5 4t-3.5 9q65 85 94 132q5 9 11 9zM243 406q-59 0 -87.5 -50t-28.5 -123q0 -80 38 -143.5t101 -63.5q59 0 87.5 50t28.5 122q0 79 -38 143.5t-101 64.5zM254 439q97 0 155.5 -61.5 t58.5 -156.5q0 -97 -60.5 -162.5t-151.5 -65.5q-97 0 -156 62t-59 158q0 97 61 161.5t152 64.5z" />
<glyph unicode="&#x1ed6;" horiz-adv-x="748" d="M315 914q26 0 64 -17q40 -19 58 -19q17 0 30 6.5t22 15t10 8.5q5 0 5 -8q0 -14 -13 -28q-29 -30 -66 -30q-25 0 -63 18q-40 19 -59 19q-17 0 -30 -6.5t-21.5 -15t-9.5 -8.5q-6 0 -6 9q0 13 14 28q28 28 65 28zM373 826q4 0 12 -8q17 -16 33.5 -31.5t33.5 -32t35 -33.5 q0 -5 -3 -10.5t-7 -5.5l-104 59q-78 -44 -104 -59q-4 0 -7.5 5.5t-3.5 10.5q13 12 46 43t57 54q8 8 12 8zM358 633q-54 0 -96 -25t-66 -66.5t-36 -90.5t-12 -101q0 -80 27 -153t83.5 -123t130.5 -50q54 0 96 25t66 67t36.5 91t12.5 102q0 80 -27.5 152.5t-84 122 t-130.5 49.5zM373 667q135 0 230.5 -96t95.5 -243q0 -139 -96.5 -238.5t-229.5 -99.5q-134 0 -229 96t-95 242q0 140 96 239.5t228 99.5z" />
<glyph unicode="&#x1ed7;" horiz-adv-x="509" d="M204 713q23 0 61 -20q38 -21 58 -21q16 0 28 7.5t19.5 17t8.5 9.5q6 0 6 -8q0 -14 -14 -33q-27 -33 -62 -33q-24 0 -60 20q-40 22 -59 22q-16 0 -27 -7.5t-17 -17t-8 -9.5q-8 0 -8 9q0 17 12 33q27 31 62 31zM258 627q6 0 11 -7q29 -40 94 -110q0 -4 -3.5 -7.5t-7.5 -3.5 l-94 63q-59 -40 -94 -63q-4 0 -7.5 3.5t-3.5 7.5q65 70 94 110q5 7 11 7zM243 406q-59 0 -87.5 -50t-28.5 -123q0 -80 38 -143.5t101 -63.5q59 0 87.5 50t28.5 122q0 79 -38 143.5t-101 64.5zM254 439q97 0 155.5 -61.5t58.5 -156.5q0 -97 -60.5 -162.5t-151.5 -65.5 q-97 0 -156 62t-59 158q0 97 61 161.5t152 64.5z" />
<glyph unicode="&#x1ed8;" horiz-adv-x="748" d="M376 859q4 0 12 -8q20 -22 50.5 -53t51.5 -54q0 -17 -10 -17l-104 64l-104 -64q-4 0 -7.5 6t-3.5 11q13 14 46 47.5t57 59.5q8 8 12 8zM323 -121q0 21 14.5 35.5t35.5 14.5t35.5 -14.5t14.5 -35.5t-14.5 -35.5t-35.5 -14.5t-35.5 14.5t-14.5 35.5zM358 633q-54 0 -96 -25 t-66 -66.5t-36 -90.5t-12 -101q0 -80 27 -153t83.5 -123t130.5 -50q54 0 96 25t66 67t36.5 91t12.5 102q0 80 -27.5 152.5t-84 122t-130.5 49.5zM373 667q135 0 230.5 -96t95.5 -243q0 -139 -96.5 -238.5t-229.5 -99.5q-134 0 -229 96t-95 242q0 140 96 239.5t228 99.5z" />
<glyph unicode="&#x1ed9;" horiz-adv-x="509" d="M257 654q6 0 11 -9q29 -47 94 -132q0 -5 -3.5 -9t-7.5 -4l-94 76q-59 -48 -94 -76q-4 0 -7.5 4t-3.5 9q65 85 94 132q5 9 11 9zM205 -119q0 21 14.5 35.5t35.5 14.5t35.5 -14.5t14.5 -35.5t-14.5 -35.5t-35.5 -14.5t-35.5 14.5t-14.5 35.5zM243 406q-59 0 -87.5 -50 t-28.5 -123q0 -80 38 -143.5t101 -63.5q59 0 87.5 50t28.5 122q0 79 -38 143.5t-101 64.5zM254 439q97 0 155.5 -61.5t58.5 -156.5q0 -97 -60.5 -162.5t-151.5 -65.5q-97 0 -156 62t-59 158q0 97 61 161.5t152 64.5z" />
<glyph unicode="&#x1eda;" horiz-adv-x="769" d="M324 736q0 6 48 54t73 67q6 3 18 3q46 0 46 -30q0 -23 -80 -63t-99 -40q-6 0 -6 9zM357 633q-54 0 -96 -25t-66 -66.5t-36 -90.5t-12 -101q0 -80 27 -153t83.5 -123t130.5 -50q54 0 96 25t66 67t36.5 91t12.5 102q0 80 -27.5 152.5t-84 122t-130.5 49.5zM610 562 q88 -96 88 -234q0 -139 -96.5 -238.5t-229.5 -99.5q-134 0 -229 96t-95 242q0 140 96 239.5t228 99.5q81 0 152 -38q72 -37 107 -37q18 0 28.5 9t10.5 23q0 8 -13 22.5t-13 27.5q0 14 14 24t31 10q13 0 24 -4q19 -19 19 -51q0 -39 -36 -65.5t-71 -26.5q-11 0 -15 1z" />
<glyph unicode="&#x1edb;" horiz-adv-x="516" d="M336 654q36 0 36 -29q0 -21 -70 -76t-81 -55q-9 0 -9 13q0 4 36.5 56.5t60.5 82.5q8 8 27 8zM242 406q-59 0 -87.5 -50t-28.5 -123q0 -80 38 -143.5t101 -63.5q59 0 87.5 50t28.5 122q0 79 -38 143.5t-101 64.5zM344 422q11 -5 34 -16.5t38.5 -18t23.5 -6.5q26 0 29 20 q1 8 -9 24.5t-8 29.5q2 14 17.5 21.5t32.5 4.5q11 -2 23 -9q16 -22 10 -53q-5 -25 -22 -41t-30.5 -20t-24.5 -4q-21 0 -29 3q38 -58 38 -136q0 -97 -60.5 -162.5t-151.5 -65.5q-97 0 -156 62t-59 158q0 97 61 161.5t152 64.5q51 0 91 -17z" />
<glyph unicode="&#x1edc;" horiz-adv-x="769" d="M445 736q0 -9 -6 -9q-19 0 -99 40t-80 63q0 30 46 30q12 0 18 -3q25 -19 73 -67t48 -54zM357 633q-54 0 -96 -25t-66 -66.5t-36 -90.5t-12 -101q0 -80 27 -153t83.5 -123t130.5 -50q54 0 96 25t66 67t36.5 91t12.5 102q0 80 -27.5 152.5t-84 122t-130.5 49.5zM610 562 q88 -96 88 -234q0 -139 -96.5 -238.5t-229.5 -99.5q-134 0 -229 96t-95 242q0 140 96 239.5t228 99.5q81 0 152 -38q72 -37 107 -37q18 0 28.5 9t10.5 23q0 8 -13 22.5t-13 27.5q0 14 14 24t31 10q13 0 24 -4q19 -19 19 -51q0 -39 -36 -65.5t-71 -26.5q-11 0 -15 1z" />
<glyph unicode="&#x1edd;" horiz-adv-x="516" d="M187 652q19 0 27 -8q24 -30 60.5 -82.5t36.5 -56.5q0 -13 -9 -13q-11 0 -81 55t-70 76q0 29 36 29zM242 406q-59 0 -87.5 -50t-28.5 -123q0 -80 38 -143.5t101 -63.5q59 0 87.5 50t28.5 122q0 79 -38 143.5t-101 64.5zM344 422q11 -5 34 -16.5t38.5 -18t23.5 -6.5 q26 0 29 20q1 8 -9 24.5t-8 29.5q2 14 17.5 21.5t32.5 4.5q11 -2 23 -9q16 -22 10 -53q-5 -25 -22 -41t-30.5 -20t-24.5 -4q-21 0 -29 3q38 -58 38 -136q0 -97 -60.5 -162.5t-151.5 -65.5q-97 0 -156 62t-59 158q0 97 61 161.5t152 64.5q51 0 91 -17z" />
<glyph unicode="&#x1ede;" horiz-adv-x="769" d="M384 851q-2 0 -4 -0.5t-3.5 -1.5t-3 -1.5t-3 -2.5t-2.5 -3t-2 -3t-2 -3.5t-2 -4t-2 -3.5q-10 -21 -28 -21q-10 0 -16.5 7t-6.5 19q0 6 3 12q23 27 84 27q29 0 48.5 -11.5t19.5 -34.5q0 -11 -6 -20t-12.5 -13t-16.5 -9l-12 -6q-25 -16 -25 -29q0 -6 6 -14q-5 -7 -12 -7 q-12 1 -27 8t-15 19q0 20 34 31q34 12 34 35q0 13 -8 21.5t-20 8.5zM357 633q-54 0 -96 -25t-66 -66.5t-36 -90.5t-12 -101q0 -80 27 -153t83.5 -123t130.5 -50q54 0 96 25t66 67t36.5 91t12.5 102q0 80 -27.5 152.5t-84 122t-130.5 49.5zM610 562q88 -96 88 -234 q0 -139 -96.5 -238.5t-229.5 -99.5q-134 0 -229 96t-95 242q0 140 96 239.5t228 99.5q81 0 152 -38q72 -37 107 -37q18 0 28.5 9t10.5 23q0 8 -13 22.5t-13 27.5q0 14 14 24t31 10q13 0 24 -4q19 -19 19 -51q0 -39 -36 -65.5t-71 -26.5q-11 0 -15 1z" />
<glyph unicode="&#x1edf;" horiz-adv-x="516" d="M281 676q26 0 40 -14t14 -37t-15.5 -40t-35.5 -26q-14 -6 -19 -11t-5 -14q0 -11 8 -19q0 -4 -6 -9t-10 -5q-34 11 -34 33q0 11 10 21.5t15.5 13t19.5 9.5q31 14 31 37q0 13 -7.5 22.5t-20.5 9.5q-32 0 -32 -36q0 -20 -30 -20q-16 0 -16 9q0 26 30.5 51t62.5 25zM242 406 q-59 0 -87.5 -50t-28.5 -123q0 -80 38 -143.5t101 -63.5q59 0 87.5 50t28.5 122q0 79 -38 143.5t-101 64.5zM344 422q11 -5 34 -16.5t38.5 -18t23.5 -6.5q26 0 29 20q1 8 -9 24.5t-8 29.5q2 14 17.5 21.5t32.5 4.5q11 -2 23 -9q16 -22 10 -53q-5 -25 -22 -41t-30.5 -20 t-24.5 -4q-21 0 -29 3q38 -58 38 -136q0 -97 -60.5 -162.5t-151.5 -65.5q-97 0 -156 62t-59 158q0 97 61 161.5t152 64.5q51 0 91 -17z" />
<glyph unicode="&#x1ee0;" horiz-adv-x="769" d="M-136 810q27 0 67 -22q42 -24 61 -24q18 0 32 8.5t23 19t10 10.5q6 0 6 -10q0 -17 -14 -35q-31 -37 -69 -37q-27 0 -67 22q-42 24 -62 24q-18 0 -32 -8.5t-22.5 -19t-9.5 -10.5q-6 0 -6 11q0 17 14 35q30 36 69 36zM357 633q-54 0 -96 -25t-66 -66.5t-36 -90.5t-12 -101 q0 -80 27 -153t83.5 -123t130.5 -50q54 0 96 25t66 67t36.5 91t12.5 102q0 80 -27.5 152.5t-84 122t-130.5 49.5zM610 562q88 -96 88 -234q0 -139 -96.5 -238.5t-229.5 -99.5q-134 0 -229 96t-95 242q0 140 96 239.5t228 99.5q81 0 152 -38q72 -37 107 -37q18 0 28.5 9 t10.5 23q0 8 -13 22.5t-13 27.5q0 14 14 24t31 10q13 0 24 -4q19 -19 19 -51q0 -39 -36 -65.5t-71 -26.5q-11 0 -15 1z" />
<glyph unicode="&#x1ee1;" horiz-adv-x="516" d="M205 589q23 0 61 -23q38 -24 58 -24q16 0 28 8.5t19.5 19t8.5 11.5q6 0 6 -9q0 -17 -14 -38q-27 -37 -62 -37q-24 0 -60 22q-40 25 -59 25q-16 0 -27 -8.5t-17 -19t-8 -11.5q-8 0 -8 11q0 19 12 37q27 36 62 36zM242 406q-59 0 -87.5 -50t-28.5 -123q0 -80 38 -143.5 t101 -63.5q59 0 87.5 50t28.5 122q0 79 -38 143.5t-101 64.5zM344 422q11 -5 34 -16.5t38.5 -18t23.5 -6.5q26 0 29 20q1 8 -9 24.5t-8 29.5q2 14 17.5 21.5t32.5 4.5q11 -2 23 -9q16 -22 10 -53q-5 -25 -22 -41t-30.5 -20t-24.5 -4q-21 0 -29 3q38 -58 38 -136 q0 -97 -60.5 -162.5t-151.5 -65.5q-97 0 -156 62t-59 158q0 97 61 161.5t152 64.5q51 0 91 -17z" />
<glyph unicode="&#x1ee2;" horiz-adv-x="769" d="M322 -121q0 21 14.5 35.5t35.5 14.5t35.5 -14.5t14.5 -35.5t-14.5 -35.5t-35.5 -14.5t-35.5 14.5t-14.5 35.5zM357 633q-54 0 -96 -25t-66 -66.5t-36 -90.5t-12 -101q0 -80 27 -153t83.5 -123t130.5 -50q54 0 96 25t66 67t36.5 91t12.5 102q0 80 -27.5 152.5t-84 122 t-130.5 49.5zM610 562q88 -96 88 -234q0 -139 -96.5 -238.5t-229.5 -99.5q-134 0 -229 96t-95 242q0 140 96 239.5t228 99.5q81 0 152 -38q72 -37 107 -37q18 0 28.5 9t10.5 23q0 8 -13 22.5t-13 27.5q0 14 14 24t31 10q13 0 24 -4q19 -19 19 -51q0 -39 -36 -65.5t-71 -26.5 q-11 0 -15 1z" />
<glyph unicode="&#x1ee3;" horiz-adv-x="516" d="M205 -119q0 21 14.5 35.5t35.5 14.5t35.5 -14.5t14.5 -35.5t-14.5 -35.5t-35.5 -14.5t-35.5 14.5t-14.5 35.5zM242 406q-59 0 -87.5 -50t-28.5 -123q0 -80 38 -143.5t101 -63.5q59 0 87.5 50t28.5 122q0 79 -38 143.5t-101 64.5zM344 422q11 -5 34 -16.5t38.5 -18 t23.5 -6.5q26 0 29 20q1 8 -9 24.5t-8 29.5q2 14 17.5 21.5t32.5 4.5q11 -2 23 -9q16 -22 10 -53q-5 -25 -22 -41t-30.5 -20t-24.5 -4q-21 0 -29 3q38 -58 38 -136q0 -97 -60.5 -162.5t-151.5 -65.5q-97 0 -156 62t-59 158q0 97 61 161.5t152 64.5q51 0 91 -17z" />
<glyph unicode="&#x1ee4;" horiz-adv-x="723" d="M306 -115q0 21 14.5 35.5t35.5 14.5t35.5 -14.5t14.5 -35.5t-14.5 -35.5t-35.5 -14.5t-35.5 14.5t-14.5 35.5zM148 657q14 0 117 5q4 -4 3.5 -14.5t-3.5 -14.5q-15 0 -41 -4.5t-28 -11.5q-5 -16 -5 -74v-247q0 -123 49 -184q46 -58 137 -58q190 0 194 220v271 q0 53 -10 69q-4 7 -31 13.5t-41 6.5q-8 11 -2 29q100 -5 111 -5q20 0 36 1t35 2t36 2q7 -12 0 -29q-14 0 -43.5 -6t-34.5 -14q-10 -17 -10 -68v-270q0 -144 -69 -212t-192 -68q-109 0 -178 66q-74 71 -74 189v292q0 58 -5 74q-2 7 -28 11.5t-41 4.5q-3 4 -3.5 14.5t3.5 14.5 q103 -5 118 -5z" />
<glyph unicode="&#x1ee5;" horiz-adv-x="515" d="M213 -116q0 21 14.5 35.5t35.5 14.5t35.5 -14.5t14.5 -35.5t-14.5 -35.5t-35.5 -14.5t-35.5 14.5t-14.5 35.5zM349 320q0 39 -8 54q-11 20 -56 20q-2 2 -2.5 12t2.5 14q82 3 137 20q3 0 7 -9.5t4 -14.5q-7 -14 -7 -65v-46v-164q0 -43 7 -76q2 -7 11 -11t19 -5t19 -1 l10 -1q3 -1 3 -11q0 -3 -2.5 -9.5t-5.5 -6.5q-15 -1 -33.5 -4t-34.5 -7t-30.5 -8t-22.5 -7l-9 -2q-8 0 -8 16v46l-2 5q-23 -25 -64.5 -45.5t-77.5 -20.5q-125 0 -125 199v128q0 39 -8 54q-11 20 -56 20q-2 2 -2.5 12t2.5 14q82 3 137 20q3 0 7 -8t4 -12q-7 -14 -7 -69v-43 v-104q0 -80 24 -117.5t76 -37.5q32 0 62 18.5t30 36.5v216z" />
<glyph unicode="&#x1ee6;" horiz-adv-x="723" d="M-113 1072q-2 0 -4 -0.5t-3.5 -1.5t-3 -1.5t-3 -2.5t-2.5 -3t-2 -3t-2 -3.5t-2 -4t-2 -3.5q-11 -21 -28 -21q-10 0 -16.5 7t-6.5 19q0 6 3 12q23 27 84 27q29 0 48.5 -11.5t19.5 -34.5q0 -11 -6 -20t-12.5 -13t-16.5 -9l-12 -6q-25 -16 -25 -29q0 -6 6 -14q-5 -7 -12 -7 q-12 1 -27 8t-15 19q0 20 34 31q34 12 34 35q0 13 -8 21.5t-20 8.5zM147 657q15 0 117 5q4 -4 3.5 -14.5t-3.5 -14.5q-15 0 -41 -4.5t-28 -11.5q-5 -16 -5 -74v-247q0 -123 49 -184q46 -58 137 -58q190 0 194 220v271q0 53 -10 69q-4 7 -31 13.5t-41 6.5q-8 11 -2 29 q100 -5 111 -5q20 0 36 1t35 2t36 2q8 -12 0 -29q-14 0 -43.5 -6t-34.5 -14q-10 -17 -10 -68v-270q0 -144 -69 -212t-192 -68q-109 0 -178 66q-74 71 -74 189v292q0 58 -5 74q-2 7 -28 11.5t-41 4.5q-3 4 -3.5 14.5t3.5 14.5q102 -5 118 -5z" />
<glyph unicode="&#x1ee7;" horiz-adv-x="515" d="M271 692q26 0 40 -14t14 -37t-15.5 -40t-35.5 -26q-14 -6 -19 -11t-5 -14q0 -11 8 -19q0 -4 -6 -9t-10 -5q-34 11 -34 33q0 11 10 21.5t15.5 13t19.5 9.5q31 14 31 37q0 13 -7.5 22.5t-20.5 9.5q-32 0 -32 -36q0 -20 -30 -20q-16 0 -16 9q0 26 30.5 51t62.5 25zM349 320 q0 39 -8 54q-11 20 -56 20q-2 2 -2.5 12t2.5 14q82 3 137 20q3 0 7 -9.5t4 -14.5q-7 -14 -7 -65v-46v-164q0 -43 7 -76q2 -7 11 -11t19 -5t19 -1l10 -1q3 -1 3 -11q0 -3 -2.5 -9.5t-5.5 -6.5q-15 -1 -33.5 -4t-34.5 -7t-30.5 -8t-22.5 -7l-9 -2q-8 0 -8 16v46l-2 5 q-23 -25 -64.5 -45.5t-77.5 -20.5q-125 0 -125 199v128q0 39 -8 54q-11 20 -56 20q-2 2 -2.5 12t2.5 14q82 3 137 20q3 0 7 -8t4 -12q-7 -14 -7 -69v-43v-104q0 -80 24 -117.5t76 -37.5q32 0 62 18.5t30 36.5v216z" />
<glyph unicode="&#x1ee8;" horiz-adv-x="723" d="M-40 756q0 6 48 54t73 67q6 3 18 3q46 0 46 -30q0 -23 -80 -63t-99 -40q-6 0 -6 9zM650 622q-15 -3 -21 -16q-10 -20 -10 -60v-270q0 -144 -70 -212t-193 -68q-109 0 -178 66q-74 71 -74 189v292q0 58 -5 74q-2 7 -28 11.5t-41 4.5q-3 4 -3.5 14.5t3.5 14.5 q103 -5 118 -5q14 0 117 5q4 -4 3.5 -14.5t-3.5 -14.5q-15 0 -41 -4.5t-28 -11.5q-5 -16 -5 -74v-247q0 -123 49 -184q46 -58 137 -58q190 0 194 220v271q0 53 -10 69q-4 7 -31 13.5t-41 6.5q-8 11 -2 29q100 -5 111 -5q96 0 96 24q0 8 -13 22.5t-13 27.5q0 14 14 24t31 10 q13 0 24 -4q19 -19 19 -51q0 -66 -106 -89z" />
<glyph unicode="&#x1ee9;" horiz-adv-x="508" d="M340 628q36 0 36 -29q0 -21 -70 -76t-81 -55q-9 0 -9 13q0 4 36.5 56.5t60.5 82.5q8 8 27 8zM423 351v-46v-164q0 -43 7 -76q2 -7 11 -11t19 -5t20 -1l9 -1q3 -1 3 -11q0 -3 -2.5 -9.5t-5.5 -6.5q-15 -1 -33.5 -4t-34.5 -7t-30.5 -8t-23.5 -7l-8 -2q-8 0 -8 16v46l-2 5 q-23 -25 -64.5 -45.5t-77.5 -20.5q-125 0 -125 199v124q0 39 -8 54q-11 20 -56 20q-2 2 -2.5 12t2.5 14q82 3 137 20q3 0 7 -8t4 -12q-7 -14 -7 -65v-43v-104q0 -80 24 -117.5t76 -37.5q32 0 62 18.5t30 36.5v212q0 39 -8 54q-11 20 -56 20q-2 2 -2.5 12t2.5 14q84 3 132 15 q43 11 49 26q3 8 -8 25t-9 29q2 14 17.5 21.5t32.5 4.5q11 -2 23 -9q16 -23 10 -53q-9 -47 -88 -69q-18 -6 -18 -55z" />
<glyph unicode="&#x1eea;" horiz-adv-x="723" d="M43 756q0 -9 -6 -9q-19 0 -99 40t-80 63q0 30 46 30q12 0 18 -3q25 -19 73 -67t48 -54zM650 622q-15 -3 -21 -16q-10 -20 -10 -60v-270q0 -144 -70 -212t-193 -68q-109 0 -178 66q-74 71 -74 189v292q0 58 -5 74q-2 7 -28 11.5t-41 4.5q-3 4 -3.5 14.5t3.5 14.5 q103 -5 118 -5q14 0 117 5q4 -4 3.5 -14.5t-3.5 -14.5q-15 0 -41 -4.5t-28 -11.5q-5 -16 -5 -74v-247q0 -123 49 -184q46 -58 137 -58q190 0 194 220v271q0 53 -10 69q-4 7 -31 13.5t-41 6.5q-8 11 -2 29q100 -5 111 -5q96 0 96 24q0 8 -13 22.5t-13 27.5q0 14 14 24t31 10 q13 0 24 -4q19 -19 19 -51q0 -66 -106 -89z" />
<glyph unicode="&#x1eeb;" horiz-adv-x="508" d="M162 628q19 0 27 -8q24 -30 60.5 -82.5t36.5 -56.5q0 -13 -9 -13q-11 0 -81 55t-70 76q0 29 36 29zM423 351v-46v-164q0 -43 7 -76q2 -7 11 -11t19 -5t20 -1l9 -1q3 -1 3 -11q0 -3 -2.5 -9.5t-5.5 -6.5q-15 -1 -33.5 -4t-34.5 -7t-30.5 -8t-23.5 -7l-8 -2q-8 0 -8 16v46 l-2 5q-23 -25 -64.5 -45.5t-77.5 -20.5q-125 0 -125 199v124q0 39 -8 54q-11 20 -56 20q-2 2 -2.5 12t2.5 14q82 3 137 20q3 0 7 -8t4 -12q-7 -14 -7 -65v-43v-104q0 -80 24 -117.5t76 -37.5q32 0 62 18.5t30 36.5v212q0 39 -8 54q-11 20 -56 20q-2 2 -2.5 12t2.5 14 q84 3 132 15q43 11 49 26q3 8 -8 25t-9 29q2 14 17.5 21.5t32.5 4.5q11 -2 23 -9q16 -23 10 -53q-9 -47 -88 -69q-18 -6 -18 -55z" />
<glyph unicode="&#x1eec;" horiz-adv-x="723" d="M-113 1072q-2 0 -4 -0.5t-3.5 -1.5t-3 -1.5t-3 -2.5t-2.5 -3t-2 -3t-2 -3.5t-2 -4t-2 -3.5q-11 -21 -28 -21q-10 0 -16.5 7t-6.5 19q0 6 3 12q23 27 84 27q29 0 48.5 -11.5t19.5 -34.5q0 -11 -6 -20t-12.5 -13t-16.5 -9l-12 -6q-25 -16 -25 -29q0 -6 6 -14q-5 -7 -12 -7 q-12 1 -27 8t-15 19q0 20 34 31q34 12 34 35q0 13 -8 21.5t-20 8.5zM650 622q-15 -3 -21 -16q-10 -20 -10 -60v-270q0 -144 -70 -212t-193 -68q-109 0 -178 66q-74 71 -74 189v292q0 58 -5 74q-2 7 -28 11.5t-41 4.5q-3 4 -3.5 14.5t3.5 14.5q103 -5 118 -5q14 0 117 5 q4 -4 3.5 -14.5t-3.5 -14.5q-15 0 -41 -4.5t-28 -11.5q-5 -16 -5 -74v-247q0 -123 49 -184q46 -58 137 -58q190 0 194 220v271q0 53 -10 69q-4 7 -31 13.5t-41 6.5q-8 11 -2 29q100 -5 111 -5q96 0 96 24q0 8 -13 22.5t-13 27.5q0 14 14 24t31 10q13 0 24 -4q19 -19 19 -51 q0 -66 -106 -89z" />
<glyph unicode="&#x1eed;" horiz-adv-x="508" d="M268 692q26 0 40 -14t14 -37t-15.5 -40t-35.5 -26q-14 -6 -19 -11t-5 -14q0 -11 8 -19q0 -4 -6 -9t-10 -5q-34 11 -34 33q0 11 10 21.5t15.5 13t19.5 9.5q31 14 31 37q0 13 -7.5 22.5t-20.5 9.5q-32 0 -32 -36q0 -20 -30 -20q-16 0 -16 9q0 26 30.5 51t62.5 25zM423 351 v-46v-164q0 -43 7 -76q2 -7 11 -11t19 -5t20 -1l9 -1q3 -1 3 -11q0 -3 -2.5 -9.5t-5.5 -6.5q-15 -1 -33.5 -4t-34.5 -7t-30.5 -8t-23.5 -7l-8 -2q-8 0 -8 16v46l-2 5q-23 -25 -64.5 -45.5t-77.5 -20.5q-125 0 -125 199v124q0 39 -8 54q-11 20 -56 20q-2 2 -2.5 12t2.5 14 q82 3 137 20q3 0 7 -8t4 -12q-7 -14 -7 -65v-43v-104q0 -80 24 -117.5t76 -37.5q32 0 62 18.5t30 36.5v212q0 39 -8 54q-11 20 -56 20q-2 2 -2.5 12t2.5 14q84 3 132 15q43 11 49 26q3 8 -8 25t-9 29q2 14 17.5 21.5t32.5 4.5q11 -2 23 -9q16 -23 10 -53q-9 -47 -88 -69 q-18 -6 -18 -55z" />
<glyph unicode="&#x1eee;" horiz-adv-x="723" d="M-142 811q27 0 67 -22q42 -24 61 -24q18 0 32 8.5t23 19t10 10.5q6 0 6 -10q0 -17 -14 -35q-31 -37 -69 -37q-27 0 -67 22q-42 24 -62 24q-18 0 -32 -8.5t-22.5 -19t-9.5 -10.5q-6 0 -6 11q0 17 14 35q30 36 69 36zM650 622q-15 -3 -21 -16q-10 -20 -10 -60v-270 q0 -144 -70 -212t-193 -68q-109 0 -178 66q-74 71 -74 189v292q0 58 -5 74q-2 7 -28 11.5t-41 4.5q-3 4 -3.5 14.5t3.5 14.5q103 -5 118 -5q14 0 117 5q4 -4 3.5 -14.5t-3.5 -14.5q-15 0 -41 -4.5t-28 -11.5q-5 -16 -5 -74v-247q0 -123 49 -184q46 -58 137 -58 q190 0 194 220v271q0 53 -10 69q-4 7 -31 13.5t-41 6.5q-8 11 -2 29q100 -5 111 -5q96 0 96 24q0 8 -13 22.5t-13 27.5q0 14 14 24t31 10q13 0 24 -4q19 -19 19 -51q0 -66 -106 -89z" />
<glyph unicode="&#x1eef;" horiz-adv-x="508" d="M206 583q23 0 61 -23q38 -24 58 -24q16 0 28 8.5t19.5 19t8.5 11.5q6 0 6 -9q0 -17 -14 -38q-27 -37 -62 -37q-24 0 -60 22q-40 25 -59 25q-16 0 -27 -8.5t-17 -19t-8 -11.5q-8 0 -8 11q0 19 12 37q27 36 62 36zM423 351v-46v-164q0 -43 7 -76q2 -7 11 -11t19 -5t20 -1 l9 -1q3 -1 3 -11q0 -3 -2.5 -9.5t-5.5 -6.5q-15 -1 -33.5 -4t-34.5 -7t-30.5 -8t-23.5 -7l-8 -2q-8 0 -8 16v46l-2 5q-23 -25 -64.5 -45.5t-77.5 -20.5q-125 0 -125 199v124q0 39 -8 54q-11 20 -56 20q-2 2 -2.5 12t2.5 14q82 3 137 20q3 0 7 -8t4 -12q-7 -14 -7 -65v-43 v-104q0 -80 24 -117.5t76 -37.5q32 0 62 18.5t30 36.5v212q0 39 -8 54q-11 20 -56 20q-2 2 -2.5 12t2.5 14q84 3 132 15q43 11 49 26q3 8 -8 25t-9 29q2 14 17.5 21.5t32.5 4.5q11 -2 23 -9q16 -23 10 -53q-9 -47 -88 -69q-18 -6 -18 -55z" />
<glyph unicode="&#x1ef0;" horiz-adv-x="723" d="M306 -115q0 21 14.5 35.5t35.5 14.5t35.5 -14.5t14.5 -35.5t-14.5 -35.5t-35.5 -14.5t-35.5 14.5t-14.5 35.5zM650 622q-15 -3 -21 -16q-10 -20 -10 -60v-270q0 -144 -70 -212t-193 -68q-109 0 -178 66q-74 71 -74 189v292q0 58 -5 74q-2 7 -28 11.5t-41 4.5 q-3 4 -3.5 14.5t3.5 14.5q103 -5 118 -5q14 0 117 5q4 -4 3.5 -14.5t-3.5 -14.5q-15 0 -41 -4.5t-28 -11.5q-5 -16 -5 -74v-247q0 -123 49 -184q46 -58 137 -58q190 0 194 220v271q0 53 -10 69q-4 7 -31 13.5t-41 6.5q-8 11 -2 29q100 -5 111 -5q96 0 96 24q0 8 -13 22.5 t-13 27.5q0 14 14 24t31 10q13 0 24 -4q19 -19 19 -51q0 -66 -106 -89z" />
<glyph unicode="&#x1ef1;" horiz-adv-x="508" d="M228 -116q0 21 14.5 35.5t35.5 14.5t35.5 -14.5t14.5 -35.5t-14.5 -35.5t-35.5 -14.5t-35.5 14.5t-14.5 35.5zM423 351v-46v-164q0 -43 7 -76q2 -7 11 -11t19 -5t20 -1l9 -1q3 -1 3 -11q0 -3 -2.5 -9.5t-5.5 -6.5q-15 -1 -33.5 -4t-34.5 -7t-30.5 -8t-23.5 -7l-8 -2 q-8 0 -8 16v46l-2 5q-23 -25 -64.5 -45.5t-77.5 -20.5q-125 0 -125 199v124q0 39 -8 54q-11 20 -56 20q-2 2 -2.5 12t2.5 14q82 3 137 20q3 0 7 -8t4 -12q-7 -14 -7 -65v-43v-104q0 -80 24 -117.5t76 -37.5q32 0 62 18.5t30 36.5v212q0 39 -8 54q-11 20 -56 20q-2 2 -2.5 12 t2.5 14q84 3 132 15q43 11 49 26q3 8 -8 25t-9 29q2 14 17.5 21.5t32.5 4.5q11 -2 23 -9q16 -23 10 -53q-9 -47 -88 -69q-18 -6 -18 -55z" />
<glyph unicode="&#x1ef2;" horiz-adv-x="598" d="M-32 756q0 -9 -6 -9q-19 0 -99 40t-80 63q0 30 46 30q12 0 18 -3q25 -19 73 -67t48 -54zM261 116v151q0 14 -7 28q-31 56 -73.5 131t-68.5 122q-26 46 -66 69q-27 16 -56 16q-4 0 -4 12.5t4 16.5q122 -5 125 -5q28 0 128 5q2 -4 1.5 -16.5t-3.5 -12.5q-18 0 -39 -7.5 t-21 -24.5q0 -11 12 -30l139 -240q88 158 130 259q3 9 3 15t-5.5 11.5t-22 10.5t-42.5 5q-2 0 -3 13.5t1 15.5q92 -5 100 -5q10 0 110 5q2 -5 1 -17t-3 -12q-66 0 -89 -40q-30 -54 -158 -291q-5 -9 -5 -31l-1 -154q0 -58 5 -74q2 -7 28 -11.5t41 -4.5q3 -4 3.5 -14.5 t-3.5 -14.5q-102 5 -117 5t-118 -5q-4 4 -3.5 14.5t3.5 14.5q15 0 41 4.5t28 11.5q5 16 5 74z" />
<glyph unicode="&#x1ef3;" horiz-adv-x="469" d="M142 660q19 0 27 -8q24 -30 60.5 -82.5t36.5 -56.5q0 -13 -9 -13q-11 0 -81 55t-70 76q0 29 36 29zM102 425q58 0 100 5q2 -4 0.5 -16.5t-4.5 -12.5q-50 0 -50 -17l2 -4l106 -270q50 133 88 227q6 14 6 32q0 15 -16 23.5t-42 8.5q-4 0 -4 12.5t4 16.5q38 -5 90 -5 q34 0 84 5q3 -4 2 -16.5t-4 -12.5q-13 0 -34.5 -8t-29.5 -26q-107 -255 -150 -361q-6 -14 -21.5 -56.5t-28.5 -70t-29 -51.5q-38 -56 -87 -56q-44 0 -44 43q0 15 12 29q40 0 63 10t51 47q11 14 28 52t20 49q-94 241 -158 379q-10 20 -54 20q-2 0 -2 13.5t2 15.5 q48 -5 100 -5z" />
<glyph unicode="&#x1ef4;" horiz-adv-x="598" d="M255 -114q0 21 14.5 35.5t35.5 14.5t35.5 -14.5t14.5 -35.5t-14.5 -35.5t-35.5 -14.5t-35.5 14.5t-14.5 35.5zM262 116v151q0 14 -7 28q-31 56 -73.5 131t-68.5 122q-26 46 -66 69q-27 16 -56 16q-4 0 -4 12.5t4 16.5q122 -5 125 -5q28 0 128 5q2 -4 1.5 -16.5 t-3.5 -12.5q-18 0 -39 -7.5t-21 -24.5q0 -11 12 -30l139 -240q88 158 130 259q3 9 3 15t-5.5 11.5t-22 10.5t-42.5 5q-2 0 -3 13.5t1 15.5q92 -5 100 -5q10 0 110 5q2 -5 1 -17t-3 -12q-66 0 -89 -40q-30 -54 -158 -291q-5 -9 -5 -31l-1 -154q0 -58 5 -74q2 -7 28 -11.5 t41 -4.5q3 -4 3.5 -14.5t-3.5 -14.5q-102 5 -117 5q-16 0 -118 -5q-4 4 -3.5 14.5t3.5 14.5q15 0 41 4.5t28 11.5q5 16 5 74z" />
<glyph unicode="&#x1ef5;" horiz-adv-x="469" d="M219 -174q0 21 14.5 35.5t35.5 14.5t35.5 -14.5t14.5 -35.5t-14.5 -35.5t-35.5 -14.5t-35.5 14.5t-14.5 35.5zM102 425q58 0 100 5q2 -4 0.5 -16.5t-4.5 -12.5q-50 0 -50 -17l2 -4l106 -270q50 133 88 227q6 14 6 32q0 15 -16 23.5t-42 8.5q-4 0 -4 12.5t4 16.5 q38 -5 90 -5q34 0 84 5q3 -4 2 -16.5t-4 -12.5q-13 0 -34.5 -8t-29.5 -26q-107 -255 -150 -361q-6 -14 -21.5 -56.5t-28.5 -70t-29 -51.5q-38 -56 -87 -56q-44 0 -44 43q0 15 12 29q40 0 63 10t51 47q11 14 28 52t20 49q-94 241 -158 379q-10 20 -54 20q-2 0 -2 13.5t2 15.5 q48 -5 100 -5z" />
<glyph unicode="&#x1ef6;" horiz-adv-x="598" d="M-177 1072q-2 0 -4 -0.5t-3.5 -1.5t-3 -1.5t-3 -2.5t-2.5 -3t-2 -3t-2 -3.5t-2 -4t-2 -3.5q-11 -21 -28 -21q-10 0 -16.5 7t-6.5 19q0 6 3 12q23 27 84 27q29 0 48.5 -11.5t19.5 -34.5q0 -11 -6 -20t-12.5 -13t-16.5 -9l-12 -6q-25 -16 -25 -29q0 -6 6 -14q-5 -7 -12 -7 q-12 1 -27 8t-15 19q0 20 34 31q34 12 34 35q0 13 -8 21.5t-20 8.5zM261 116v151q0 14 -7 28q-31 56 -73.5 131t-68.5 122q-26 46 -66 69q-27 16 -56 16q-4 0 -4 12.5t4 16.5q122 -5 125 -5q28 0 128 5q2 -4 1.5 -16.5t-3.5 -12.5q-18 0 -39 -7.5t-21 -24.5q0 -11 12 -30 l139 -240q88 158 130 259q3 9 3 15t-5.5 11.5t-22 10.5t-42.5 5q-2 0 -3 13.5t1 15.5q92 -5 100 -5q10 0 110 5q2 -5 1 -17t-3 -12q-66 0 -89 -40q-30 -54 -158 -291q-5 -9 -5 -31l-1 -154q0 -58 5 -74q2 -7 28 -11.5t41 -4.5q3 -4 3.5 -14.5t-3.5 -14.5q-102 5 -117 5 t-118 -5q-4 4 -3.5 14.5t3.5 14.5q15 0 41 4.5t28 11.5q5 16 5 74z" />
<glyph unicode="&#x1ef7;" horiz-adv-x="469" d="M280 675q26 0 40 -14t14 -37t-15.5 -40t-35.5 -26q-14 -6 -19 -11t-5 -14q0 -11 8 -19q0 -4 -6 -9t-10 -5q-34 11 -34 33q0 11 10 21.5t15.5 13t19.5 9.5q31 14 31 37q0 13 -7.5 22.5t-20.5 9.5q-32 0 -32 -36q0 -20 -30 -20q-16 0 -16 9q0 26 30.5 51t62.5 25zM102 425 q58 0 100 5q2 -4 0.5 -16.5t-4.5 -12.5q-50 0 -50 -17l2 -4l106 -270q50 133 88 227q6 14 6 32q0 15 -16 23.5t-42 8.5q-4 0 -4 12.5t4 16.5q38 -5 90 -5q34 0 84 5q3 -4 2 -16.5t-4 -12.5q-13 0 -34.5 -8t-29.5 -26q-107 -255 -150 -361q-6 -14 -21.5 -56.5t-28.5 -70 t-29 -51.5q-38 -56 -87 -56q-44 0 -44 43q0 15 12 29q40 0 63 10t51 47q11 14 28 52t20 49q-94 241 -158 379q-10 20 -54 20q-2 0 -2 13.5t2 15.5q48 -5 100 -5z" />
<glyph unicode="&#x1ef8;" horiz-adv-x="598" d="M-206 818q27 0 67 -22q42 -24 61 -24q18 0 32 8.5t23 19t10 10.5q6 0 6 -10q0 -17 -14 -35q-31 -37 -69 -37q-27 0 -67 22q-42 24 -62 24q-18 0 -32 -8.5t-22.5 -19t-9.5 -10.5q-6 0 -6 11q0 17 14 35q30 36 69 36zM261 116v151q0 14 -7 28q-31 56 -73.5 131t-68.5 122 q-26 46 -66 69q-27 16 -56 16q-4 0 -4 12.5t4 16.5q122 -5 125 -5q28 0 128 5q2 -4 1.5 -16.5t-3.5 -12.5q-18 0 -39 -7.5t-21 -24.5q0 -11 12 -30l139 -240q88 158 130 259q3 9 3 15t-5.5 11.5t-22 10.5t-42.5 5q-2 0 -3 13.5t1 15.5q92 -5 100 -5q10 0 110 5q2 -5 1 -17 t-3 -12q-66 0 -89 -40q-30 -54 -158 -291q-5 -9 -5 -31l-1 -154q0 -58 5 -74q2 -7 28 -11.5t41 -4.5q3 -4 3.5 -14.5t-3.5 -14.5q-102 5 -117 5t-118 -5q-4 4 -3.5 14.5t3.5 14.5q15 0 41 4.5t28 11.5q5 16 5 74z" />
<glyph unicode="&#x1ef9;" horiz-adv-x="469" d="M191 586q23 0 61 -23q38 -24 58 -24q16 0 28 8.5t19.5 19t8.5 11.5q6 0 6 -9q0 -17 -14 -38q-27 -37 -62 -37q-24 0 -60 22q-40 25 -59 25q-16 0 -27 -8.5t-17 -19t-8 -11.5q-8 0 -8 11q0 19 12 37q27 36 62 36zM102 425q58 0 100 5q2 -4 0.5 -16.5t-4.5 -12.5 q-50 0 -50 -17l2 -4l106 -270q50 133 88 227q6 14 6 32q0 15 -16 23.5t-42 8.5q-4 0 -4 12.5t4 16.5q38 -5 90 -5q34 0 84 5q3 -4 2 -16.5t-4 -12.5q-13 0 -34.5 -8t-29.5 -26q-107 -255 -150 -361q-6 -14 -21.5 -56.5t-28.5 -70t-29 -51.5q-38 -56 -87 -56q-44 0 -44 43 q0 15 12 29q40 0 63 10t51 47q11 14 28 52t20 49q-94 241 -158 379q-10 20 -54 20q-2 0 -2 13.5t2 15.5q48 -5 100 -5z" />
<glyph unicode="&#x2000;" horiz-adv-x="574" />
<glyph unicode="&#x2001;" horiz-adv-x="1149" />
<glyph unicode="&#x2002;" horiz-adv-x="574" />
<glyph unicode="&#x2003;" horiz-adv-x="1149" />
<glyph unicode="&#x2004;" horiz-adv-x="383" />
<glyph unicode="&#x2005;" horiz-adv-x="287" />
<glyph unicode="&#x2006;" horiz-adv-x="191" />
<glyph unicode="&#x2007;" horiz-adv-x="191" />
<glyph unicode="&#x2008;" horiz-adv-x="143" />
<glyph unicode="&#x2009;" horiz-adv-x="229" />
<glyph unicode="&#x200a;" horiz-adv-x="63" />
<glyph unicode="&#x202f;" horiz-adv-x="229" />
<glyph unicode="&#x205f;" horiz-adv-x="287" />
<glyph unicode="&#x25fc;" horiz-adv-x="430" d="M0 430h430v-430h-430v430z" />
</font>
</defs>
</svg>
