<?xml version="1.0" standalone="no"?>
<!DOCTYPE svg PUBLIC "-//W3C//DTD SVG 1.1//EN" "http://www.w3.org/Graphics/SVG/1.1/DTD/svg11.dtd" >
<svg xmlns="http://www.w3.org/2000/svg" xmlns:xlink="http://www.w3.org/1999/xlink" version="1.1">
<metadata></metadata>
<defs>
<font id="crimsonroman" horiz-adv-x="503" >
<font-face units-per-em="1024" ascent="742" descent="-282" />
<missing-glyph horiz-adv-x="217" />
<glyph horiz-adv-x="0" />
<glyph horiz-adv-x="341" />
<glyph unicode=" "  horiz-adv-x="217" />
<glyph unicode="&#x09;" horiz-adv-x="217" />
<glyph unicode="&#xa0;" horiz-adv-x="217" />
<glyph unicode="&#x1f00;" d="M214 687q23 0 43 -24.5t20 -53.5q0 -32 -12.5 -55.5t-30.5 -34t-31 -15t-19 -4.5q-4 0 -8 4t-4 9q24 6 39 22t15 34q0 16 -7.5 31t-14 21.5t-20 17t-14.5 11.5q-3 2 -3 5q0 9 17 20.5t30 11.5zM330 133q7 -38 20 -49.5t35 -11.5q23 0 48 17t30 28q5 -2 9 -10t4 -13 q0 -16 -23.5 -56.5t-55.5 -40.5q-31 0 -58 34t-31 72q-49 -70 -69 -87q-30 -25 -68 -25q-61 0 -95.5 44t-34.5 128q0 31 10 74t29.5 89.5t55.5 78.5t81 32q40 0 74.5 -46t34.5 -112q12 29 24 61t22 60t13 36q15 0 35.5 -17.5t20.5 -36.5q0 -36 -38 -116q-11 -22 -29 -55.5 t-31 -55.5zM235 369q-37 0 -69 -42t-48.5 -100t-16.5 -112q0 -43 13 -64t31 -21q32 0 69 41t59.5 85.5t22.5 62.5q0 34 -2 57.5t-8 46.5t-19 34.5t-32 11.5z" />
<glyph unicode="&#x1f01;" d="M225 687q13 0 30 -11.5t17 -20.5q0 -3 -3 -5q-1 -1 -14.5 -11.5t-20 -17t-14 -21.5t-7.5 -31q0 -18 15 -34t39 -22q0 -5 -4 -9t-8 -4q-6 0 -19 4.5t-31 15t-30.5 34t-12.5 55.5q0 29 20 53.5t43 24.5zM330 133q7 -38 20 -49.5t35 -11.5q23 0 48 17t30 28q5 -2 9 -10 t4 -13q0 -16 -23.5 -56.5t-55.5 -40.5q-31 0 -58 34t-31 72q-49 -70 -69 -87q-30 -25 -68 -25q-61 0 -95.5 44t-34.5 128q0 31 10 74t29.5 89.5t55.5 78.5t81 32q40 0 74.5 -46t34.5 -112q12 29 24 61t22 60t13 36q15 0 35.5 -17.5t20.5 -36.5q0 -36 -38 -116 q-11 -22 -29 -55.5t-31 -55.5zM235 369q-37 0 -69 -42t-48.5 -100t-16.5 -112q0 -43 13 -64t31 -21q32 0 69 41t59.5 85.5t22.5 62.5q0 34 -2 57.5t-8 46.5t-19 34.5t-32 11.5z" />
<glyph unicode="&#x1f02;" d="M136 690q29 0 51.5 -28t22.5 -65q0 -31 -16.5 -55t-32.5 -33t-23 -9q-10 0 -13 10q41 21 41 57q0 44 -73 76q-4 2 -4 6q0 11 16.5 26t30.5 15zM262 711q13 0 28 -8.5t18 -16.5q13 -38 27.5 -102.5t14.5 -74.5q0 -3 -4.5 -6t-7.5 -3h-3q-10 4 -54.5 79.5t-44.5 108.5 q0 23 26 23zM330 133q7 -38 20 -49.5t35 -11.5q23 0 48 17t30 28q5 -2 9 -10t4 -13q0 -16 -23.5 -56.5t-55.5 -40.5q-31 0 -58 34t-31 72q-49 -70 -69 -87q-30 -25 -68 -25q-61 0 -95.5 44t-34.5 128q0 31 10 74t29.5 89.5t55.5 78.5t81 32q40 0 74.5 -46t34.5 -112 q12 29 24 61t22 60t13 36q15 0 35.5 -17.5t20.5 -36.5q0 -36 -38 -116q-11 -22 -29 -55.5t-31 -55.5zM235 369q-37 0 -69 -42t-48.5 -100t-16.5 -112q0 -43 13 -64t31 -21q32 0 69 41t59.5 85.5t22.5 62.5q0 34 -2 57.5t-8 46.5t-19 34.5t-32 11.5z" />
<glyph unicode="&#x1f03;" d="M250 711q13 0 28 -8.5t18 -16.5q13 -38 27.5 -102.5t14.5 -74.5q0 -3 -4.5 -6t-7.5 -3h-3q-10 4 -54.5 79.5t-44.5 108.5q0 23 26 23zM146 677q12 3 31 -5.5t21 -16.5q0 -3 -1 -5q-2 -3 -10 -12t-12 -14.5t-10.5 -17.5t-6.5 -21.5t1 -25.5q4 -17 22.5 -29.5t42.5 -13.5 q1 -5 -2 -10t-7 -6q-3 -3 -19 0t-34 8.5t-36 26.5t-25 52q-6 28 8 56.5t37 33.5zM330 133q7 -38 20 -49.5t35 -11.5q23 0 48 17t30 28q5 -2 9 -10t4 -13q0 -16 -23.5 -56.5t-55.5 -40.5q-31 0 -58 34t-31 72q-49 -70 -69 -87q-30 -25 -68 -25q-61 0 -95.5 44t-34.5 128 q0 31 10 74t29.5 89.5t55.5 78.5t81 32q40 0 74.5 -46t34.5 -112q12 29 24 61t22 60t13 36q15 0 35.5 -17.5t20.5 -36.5q0 -36 -38 -116q-11 -22 -29 -55.5t-31 -55.5zM235 369q-37 0 -69 -42t-48.5 -100t-16.5 -112q0 -43 13 -64t31 -21q32 0 69 41t59.5 85.5t22.5 62.5 q0 34 -2 57.5t-8 46.5t-19 34.5t-32 11.5z" />
<glyph unicode="&#x1f04;" d="M142 687q23 0 43 -24.5t20 -53.5q0 -32 -12.5 -55.5t-30.5 -34t-31 -15t-19 -4.5q-4 0 -8 4t-4 9q24 6 39 22t15 34q0 16 -7.5 31t-14 21.5t-20 17t-14.5 11.5q-3 2 -3 5q0 9 17 20.5t30 11.5zM318 711q26 0 26 -23q0 -33 -44.5 -108.5t-54.5 -79.5h-3q-3 0 -7.5 3 t-4.5 6q0 10 14.5 74.5t27.5 102.5q3 8 18 16.5t28 8.5zM330 133q7 -38 20 -49.5t35 -11.5q23 0 48 17t30 28q5 -2 9 -10t4 -13q0 -16 -23.5 -56.5t-55.5 -40.5q-31 0 -58 34t-31 72q-49 -70 -69 -87q-30 -25 -68 -25q-61 0 -95.5 44t-34.5 128q0 31 10 74t29.5 89.5 t55.5 78.5t81 32q40 0 74.5 -46t34.5 -112q12 29 24 61t22 60t13 36q15 0 35.5 -17.5t20.5 -36.5q0 -36 -38 -116q-11 -22 -29 -55.5t-31 -55.5zM235 369q-37 0 -69 -42t-48.5 -100t-16.5 -112q0 -43 13 -64t31 -21q32 0 69 41t59.5 85.5t22.5 62.5q0 34 -2 57.5t-8 46.5 t-19 34.5t-32 11.5z" />
<glyph unicode="&#x1f05;" d="M321 711q26 0 26 -23q0 -33 -44.5 -108.5t-54.5 -79.5h-3q-3 0 -7.5 3t-4.5 6q0 10 14.5 74.5t27.5 102.5q3 8 18 16.5t28 8.5zM155 687q13 0 30 -11.5t17 -20.5q0 -3 -3 -5q-1 -1 -14.5 -11.5t-20 -17t-14 -21.5t-7.5 -31q0 -18 15 -34t39 -22q0 -5 -4 -9t-8 -4 q-6 0 -19 4.5t-31 15t-30.5 34t-12.5 55.5q0 29 20 53.5t43 24.5zM330 133q7 -38 20 -49.5t35 -11.5q23 0 48 17t30 28q5 -2 9 -10t4 -13q0 -16 -23.5 -56.5t-55.5 -40.5q-31 0 -58 34t-31 72q-49 -70 -69 -87q-30 -25 -68 -25q-61 0 -95.5 44t-34.5 128q0 31 10 74 t29.5 89.5t55.5 78.5t81 32q40 0 74.5 -46t34.5 -112q12 29 24 61t22 60t13 36q15 0 35.5 -17.5t20.5 -36.5q0 -36 -38 -116q-11 -22 -29 -55.5t-31 -55.5zM235 369q-37 0 -69 -42t-48.5 -100t-16.5 -112q0 -43 13 -64t31 -21q32 0 69 41t59.5 85.5t22.5 62.5q0 34 -2 57.5 t-8 46.5t-19 34.5t-32 11.5z" />
<glyph unicode="&#x1f06;" d="M216 644q24 0 41 -19.5t17 -42.5q0 -30 -20 -50.5t-37 -26t-27 -5.5q-26 0 -26 12q26 2 44 16t18 32q0 6 -2.5 11t-7.5 8.5t-9.5 6.5t-11.5 5.5t-11 3.5t-11 3t-8 2q-5 2 -5 8q0 14 18 25t38 11zM179 742q23 0 61 -23q38 -24 58 -24q16 0 28 8.5t19.5 19t8.5 11.5 q6 0 6 -9q0 -17 -14 -38q-27 -37 -62 -37q-24 0 -60 22q-40 25 -59 25q-16 0 -27 -8.5t-17 -19t-8 -11.5q-8 0 -8 11q0 19 12 37q27 36 62 36zM330 133q7 -38 20 -49.5t35 -11.5q23 0 48 17t30 28q5 -2 9 -10t4 -13q0 -16 -23.5 -56.5t-55.5 -40.5q-31 0 -58 34t-31 72 q-49 -70 -69 -87q-30 -25 -68 -25q-61 0 -95.5 44t-34.5 128q0 31 10 74t29.5 89.5t55.5 78.5t81 32q40 0 74.5 -46t34.5 -112q12 29 24 61t22 60t13 36q15 0 35.5 -17.5t20.5 -36.5q0 -36 -38 -116q-11 -22 -29 -55.5t-31 -55.5zM235 369q-37 0 -69 -42t-48.5 -100 t-16.5 -112q0 -43 13 -64t31 -21q32 0 69 41t59.5 85.5t22.5 62.5q0 34 -2 57.5t-8 46.5t-19 34.5t-32 11.5z" />
<glyph unicode="&#x1f07;" d="M218 644q20 0 38 -11t18 -25q0 -6 -5 -8q-1 0 -8 -2t-11 -3t-11 -3.5t-11.5 -5.5t-9.5 -6.5t-7.5 -8.5t-2.5 -11q0 -18 18 -32t44 -16q0 -12 -26 -12q-10 0 -27 5.5t-37 26t-20 50.5q0 23 17 42.5t41 19.5zM179 742q23 0 61 -23q38 -24 58 -24q16 0 28 8.5t19.5 19 t8.5 11.5q6 0 6 -9q0 -17 -14 -38q-27 -37 -62 -37q-24 0 -60 22q-40 25 -59 25q-16 0 -27 -8.5t-17 -19t-8 -11.5q-8 0 -8 11q0 19 12 37q27 36 62 36zM330 133q7 -38 20 -49.5t35 -11.5q23 0 48 17t30 28q5 -2 9 -10t4 -13q0 -16 -23.5 -56.5t-55.5 -40.5q-31 0 -58 34 t-31 72q-49 -70 -69 -87q-30 -25 -68 -25q-61 0 -95.5 44t-34.5 128q0 31 10 74t29.5 89.5t55.5 78.5t81 32q40 0 74.5 -46t34.5 -112q12 29 24 61t22 60t13 36q15 0 35.5 -17.5t20.5 -36.5q0 -36 -38 -116q-11 -22 -29 -55.5t-31 -55.5zM235 369q-37 0 -69 -42t-48.5 -100 t-16.5 -112q0 -43 13 -64t31 -21q32 0 69 41t59.5 85.5t22.5 62.5q0 34 -2 57.5t-8 46.5t-19 34.5t-32 11.5z" />
<glyph unicode="&#x1f08;" horiz-adv-x="642" d="M42 667q23 0 43 -24.5t20 -53.5q0 -32 -12.5 -55.5t-30.5 -34t-31 -15t-19 -4.5q-4 0 -8 4t-4 9q24 6 39 22t15 34q0 16 -7.5 31t-14 21.5t-20 17t-14.5 11.5q-3 2 -3 5q0 9 17 20.5t30 11.5zM18 26q25 26 51 76.5t53.5 127.5t43.5 125.5t43 141t30 102.5q-20 24 -69 -2 q-3 6 -3 16q5 17 29.5 35t45.5 18q42 0 74 -40q20 -24 37.5 -61t27 -63.5t27.5 -83t26 -79.5q92 -271 144 -335q-1 -4 -4.5 -8t-6.5 -6l-3 -2q-62 7 -84 29q-21 40 -40.5 88t-29.5 79.5t-33 104.5l-199 -41l-71 -248q-1 -4 -7.5 -7t-11.5 -3q-59 21 -70 36zM194 303l175 11 q-3 11 -17 56.5t-20 62t-17.5 49.5t-23 56t-24.5 44z" />
<glyph unicode="&#x1f09;" horiz-adv-x="656" d="M58 667q13 0 30 -11.5t17 -20.5q0 -3 -3 -5q-1 -1 -14.5 -11.5t-20 -17t-14 -21.5t-7.5 -31q0 -18 15 -34t39 -22q0 -5 -4 -9t-8 -4q-6 0 -19 4.5t-31 15t-30.5 34t-12.5 55.5q0 29 20 53.5t43 24.5zM18 26q25 26 51 76.5t53.5 127.5t43.5 125.5t43 141t30 102.5 q-20 24 -69 -2q-3 6 -3 16q5 17 29.5 35t45.5 18q42 0 74 -40q20 -24 37.5 -61t27 -63.5t27.5 -83t26 -79.5q92 -271 144 -335q-1 -4 -4.5 -8t-6.5 -6l-3 -2q-62 7 -84 29q-21 40 -40.5 88t-29.5 79.5t-33 104.5l-199 -41l-71 -248q-1 -4 -7.5 -7t-11.5 -3q-59 21 -70 36z M194 303l175 11q-3 11 -17 56.5t-20 62t-17.5 49.5t-23 56t-24.5 44z" />
<glyph unicode="&#x1f0a;" horiz-adv-x="694" d="M67 646q29 0 51.5 -28t22.5 -65q0 -31 -16.5 -55t-32.5 -33t-23 -9q-10 0 -13 10q41 21 41 57q0 44 -73 76q-4 2 -4 6q0 11 16.5 26t30.5 15zM193 667q13 0 28 -8.5t18 -16.5q13 -38 27.5 -102.5t14.5 -74.5q0 -3 -4.5 -6t-7.5 -3h-3q-10 4 -54.5 79.5t-44.5 108.5 q0 23 26 23zM168 26q25 26 51 76.5t53.5 127.5t43.5 125.5t43 141t30 102.5q-20 24 -69 -2q-3 6 -3 16q5 17 29.5 35t45.5 18q42 0 74 -40q20 -24 37.5 -61t27 -63.5t27.5 -83t26 -79.5q92 -271 144 -335q-1 -4 -4.5 -8t-6.5 -6l-3 -2q-62 7 -84 29q-21 40 -40.5 88 t-29.5 79.5t-33 104.5l-199 -41l-71 -248q-1 -4 -7.5 -7t-11.5 -3q-59 21 -70 36zM344 303l175 11q-3 11 -17 56.5t-20 62t-17.5 49.5t-23 56t-24.5 44z" />
<glyph unicode="&#x1f0b;" horiz-adv-x="734" d="M168 26q25 26 51 76.5t53.5 127.5t43.5 125.5t43 141t30 102.5q-20 24 -69 -2q-3 6 -3 16q5 17 29.5 35t45.5 18q42 0 74 -40q20 -24 37.5 -61t27 -63.5t27.5 -83t26 -79.5q92 -271 144 -335q-1 -4 -4.5 -8t-6.5 -6l-3 -2q-62 7 -84 29q-21 40 -40.5 88t-29.5 79.5 t-33 104.5l-199 -41l-71 -248q-1 -4 -7.5 -7t-11.5 -3q-59 21 -70 36zM344 303l175 11q-3 11 -17 56.5t-20 62t-17.5 49.5t-23 56t-24.5 44zM193 667q13 0 28 -8.5t18 -16.5q13 -38 27.5 -102.5t14.5 -74.5q0 -3 -4.5 -6t-7.5 -3h-3q-10 4 -54.5 79.5t-44.5 108.5 q0 23 26 23zM89 633q12 3 31 -5.5t21 -16.5q0 -3 -1 -5q-2 -3 -10 -12t-12 -14.5t-10.5 -17.5t-6.5 -21.5t1 -25.5q4 -17 22.5 -29.5t42.5 -13.5q1 -5 -2 -10t-7 -6q-3 -3 -19 0t-34 8.5t-36 26.5t-25 52q-6 28 8.5 56.5t36.5 33.5z" />
<glyph unicode="&#x1f0c;" horiz-adv-x="687" d="M79 646q23 0 43 -24.5t20 -53.5q0 -32 -12.5 -55.5t-30.5 -34t-31 -15t-19 -4.5q-4 0 -8 4t-4 9q24 6 39 22t15 34q0 16 -7.5 31t-14 21.5t-20 17t-14.5 11.5q-3 1 -3 5q0 9 17 20.5t30 11.5zM255 670q26 0 26 -23q0 -33 -44.5 -108.5t-54.5 -79.5h-3q-3 0 -7.5 3t-4.5 6 q0 10 14.5 74.5t27.5 102.5q3 8 18 16.5t28 8.5zM162 26q25 26 51 76.5t53.5 127.5t43.5 125.5t43 141t30 102.5q-20 24 -69 -2q-3 6 -3 16q5 17 29.5 35t45.5 18q42 0 74 -40q20 -24 37.5 -61t27 -63.5t27.5 -83t26 -79.5q92 -271 144 -335q-1 -4 -4.5 -8t-6.5 -6l-3 -2 q-62 7 -84 29q-21 40 -40.5 88t-29.5 79.5t-33 104.5l-199 -41l-71 -248q-1 -4 -7.5 -7t-11.5 -3q-59 21 -70 36zM338 303l175 11q-3 11 -17 56.5t-20 62t-17.5 49.5t-23 56t-24.5 44z" />
<glyph unicode="&#x1f0d;" horiz-adv-x="679" d="M162 26q25 26 51 76.5t53.5 127.5t43.5 125.5t43 141t30 102.5q-20 24 -69 -2q-3 6 -3 16q5 17 29.5 35t45.5 18q42 0 74 -40q20 -24 37.5 -61t27 -63.5t27.5 -83t26 -79.5q92 -271 144 -335q-1 -4 -4.5 -8t-6.5 -6l-3 -2q-62 7 -84 29q-21 40 -40.5 88t-29.5 79.5 t-33 104.5l-199 -41l-71 -248q-1 -4 -7.5 -7t-11.5 -3q-59 21 -70 36zM338 303l175 11q-3 11 -17 56.5t-20 62t-17.5 49.5t-23 56t-24.5 44zM255 667q26 0 26 -23q0 -33 -44.5 -108.5t-54.5 -79.5h-3q-3 0 -7.5 3t-4.5 6q0 10 14.5 74.5t27.5 102.5q3 8 18 16.5t28 8.5z M89 643q13 0 30 -11.5t17 -20.5q0 -3 -3 -5q-1 -1 -14.5 -11.5t-20 -17t-14 -21.5t-7.5 -31q0 -18 15 -34t39 -22q0 -5 -4 -9t-8 -4q-6 0 -19 4.5t-31 15t-30.5 34t-12.5 55.5q0 29 20 53.5t43 24.5z" />
<glyph unicode="&#x1f0e;" horiz-adv-x="694" d="M142 567q24 0 41 -19.5t17 -42.5q0 -30 -20 -50.5t-37 -26t-27 -5.5q-26 0 -26 12q26 2 44 16t18 32q0 6 -2.5 11t-7.5 8.5t-9.5 6.5t-11.5 5.5t-11 3.5t-11 3t-8 2q-5 2 -5 8q0 14 18 25t38 11zM105 665q23 0 61 -23q38 -24 58 -24q16 0 28 8.5t19.5 19t8.5 11.5 q6 0 6 -9q0 -17 -14 -38q-27 -37 -62 -37q-24 0 -60 22q-40 25 -59 25q-16 0 -27 -8.5t-17 -19t-8 -11.5q-8 0 -8 11q0 19 12 37q27 36 62 36zM156 26q25 26 51 76.5t53.5 127.5t43.5 125.5t43 141t30 102.5q-20 24 -69 -2q-3 6 -3 16q5 17 29.5 35t45.5 18q42 0 74 -40 q20 -24 37.5 -61t27 -63.5t27.5 -83t26 -79.5q92 -271 144 -335q-1 -4 -4.5 -8t-6.5 -6l-3 -2q-62 7 -84 29q-21 40 -40.5 88t-29.5 79.5t-33 104.5l-199 -41l-71 -248q-1 -4 -7.5 -7t-11.5 -3q-59 21 -70 36zM332 303l175 11q-3 11 -17 56.5t-20 62t-17.5 49.5t-23 56 t-24.5 44z" />
<glyph unicode="&#x1f0f;" horiz-adv-x="696" d="M156 26q25 26 51 76.5t53.5 127.5t43.5 125.5t43 141t30 102.5q-20 24 -69 -2q-3 6 -3 16q5 17 29.5 35t45.5 18q42 0 74 -40q20 -24 37.5 -61t27 -63.5t27.5 -83t26 -79.5q92 -271 144 -335q-1 -4 -4.5 -8t-6.5 -6l-3 -2q-62 7 -84 29q-21 40 -40.5 88t-29.5 79.5 t-33 104.5l-199 -41l-71 -248q-1 -4 -7.5 -7t-11.5 -3q-59 21 -70 36zM332 303l175 11q-3 11 -17 56.5t-20 62t-17.5 49.5t-23 56t-24.5 44zM144 567q20 0 38 -11t18 -25q0 -6 -5 -8q-1 0 -8 -2t-11 -3t-11 -3.5t-11.5 -5.5t-9.5 -6.5t-7.5 -8.5t-2.5 -11q0 -18 18 -32 t44 -16q0 -12 -26 -12q-10 0 -27 5.5t-37 26t-20 50.5q0 23 17 42.5t41 19.5zM105 665q23 0 61 -23q38 -24 58 -24q16 0 28 8.5t19.5 19t8.5 11.5q6 0 6 -9q0 -17 -14 -38q-27 -37 -62 -37q-24 0 -60 22q-40 25 -59 25q-16 0 -27 -8.5t-17 -19t-8 -11.5q-8 0 -8 11 q0 19 12 37q27 36 62 36z" />
<glyph unicode="&#x1f10;" horiz-adv-x="349" d="M170 687q23 0 43 -24.5t20 -53.5q0 -32 -12.5 -55.5t-30.5 -34t-31 -15t-19 -4.5q-4 0 -8 4t-4 9q24 6 39 22t15 34q0 16 -7.5 31t-14 21.5t-20 17t-14.5 11.5q-3 2 -3 5q0 9 17 20.5t30 11.5zM293 363q-28 11 -62 11q-134 0 -134 -79q0 -21 16.5 -38.5t30.5 -18.5 q51 22 75 22q12 0 18 -4q23 -21 23 -41q0 -17 -8 -17q-62 0 -116.5 -23.5t-54.5 -65.5q0 -29 21.5 -42t52.5 -13q85 0 164 56q6 0 6 -8q0 -11 -4 -25q-14 -31 -51.5 -56.5t-90.5 -25.5q-60 0 -98 32.5t-38 84.5q0 67 67 106q-26 10 -42.5 36.5t-16.5 53.5q0 55 37.5 91 t89.5 36q39 0 70.5 -14.5t45.5 -30.5q6 -18 -1 -27z" />
<glyph unicode="&#x1f11;" horiz-adv-x="349" d="M186 687q13 0 30 -11.5t17 -20.5q0 -3 -3 -5q-1 -1 -14.5 -11.5t-20 -17t-14 -21.5t-7.5 -31q0 -18 15 -34t39 -22q0 -5 -4 -9t-8 -4q-6 0 -19 4.5t-31 15t-30.5 34t-12.5 55.5q0 29 20 53.5t43 24.5zM293 363q-28 11 -62 11q-134 0 -134 -79q0 -21 16.5 -38.5 t30.5 -18.5q51 22 75 22q12 0 18 -4q23 -21 23 -41q0 -17 -8 -17q-62 0 -116.5 -23.5t-54.5 -65.5q0 -29 21.5 -42t52.5 -13q85 0 164 56q6 0 6 -8q0 -11 -4 -25q-14 -31 -51.5 -56.5t-90.5 -25.5q-60 0 -98 32.5t-38 84.5q0 67 67 106q-26 10 -42.5 36.5t-16.5 53.5 q0 55 37.5 91t89.5 36q39 0 70.5 -14.5t45.5 -30.5q6 -18 -1 -27z" />
<glyph unicode="&#x1f12;" horiz-adv-x="349" d="M86 690q29 0 51.5 -28t22.5 -65q0 -31 -16.5 -55t-32.5 -33t-23 -9q-10 0 -13 10q41 21 41 57q0 44 -73 76q-4 2 -4 6q0 11 16.5 26t30.5 15zM212 711q13 0 28 -8.5t18 -16.5q13 -38 27.5 -102.5t14.5 -74.5q0 -3 -4.5 -6t-7.5 -3h-3q-10 4 -54.5 79.5t-44.5 108.5 q0 23 26 23zM293 363q-28 11 -62 11q-134 0 -134 -79q0 -21 16.5 -38.5t30.5 -18.5q51 22 75 22q12 0 18 -4q23 -21 23 -41q0 -17 -8 -17q-62 0 -116.5 -23.5t-54.5 -65.5q0 -29 21.5 -42t52.5 -13q85 0 164 56q6 0 6 -8q0 -11 -4 -25q-14 -31 -51.5 -56.5t-90.5 -25.5 q-60 0 -98 32.5t-38 84.5q0 67 67 106q-26 10 -42.5 36.5t-16.5 53.5q0 55 37.5 91t89.5 36q39 0 70.5 -14.5t45.5 -30.5q6 -18 -1 -27z" />
<glyph unicode="&#x1f13;" horiz-adv-x="349" d="M212 711q13 0 28 -8.5t18 -16.5q13 -38 27.5 -102.5t14.5 -74.5q0 -3 -4.5 -6t-7.5 -3h-3q-10 4 -54.5 79.5t-44.5 108.5q0 23 26 23zM108 677q12 3 31 -5.5t21 -16.5q0 -3 -1 -5q-2 -3 -10 -12t-12 -14.5t-10.5 -17.5t-6.5 -21.5t1 -25.5q4 -17 22.5 -29.5t42.5 -13.5 q1 -5 -2 -10t-7 -6q-3 -3 -19 0t-34 8.5t-36 26.5t-25 52q-6 28 8 56.5t37 33.5zM293 363q-28 11 -62 11q-134 0 -134 -79q0 -21 16.5 -38.5t30.5 -18.5q51 22 75 22q12 0 18 -4q23 -21 23 -41q0 -17 -8 -17q-62 0 -116.5 -23.5t-54.5 -65.5q0 -29 21.5 -42t52.5 -13 q85 0 164 56q6 0 6 -8q0 -11 -4 -25q-14 -31 -51.5 -56.5t-90.5 -25.5q-60 0 -98 32.5t-38 84.5q0 67 67 106q-26 10 -42.5 36.5t-16.5 53.5q0 55 37.5 91t89.5 36q39 0 70.5 -14.5t45.5 -30.5q6 -18 -1 -27z" />
<glyph unicode="&#x1f14;" horiz-adv-x="349" d="M119 687q23 0 43 -24.5t20 -53.5q0 -32 -12.5 -55.5t-30.5 -34t-31 -15t-19 -4.5q-4 0 -8 4t-4 9q24 6 39 22t15 34q0 16 -7.5 31t-14 21.5t-20 17t-14.5 11.5q-3 2 -3 5q0 9 17 20.5t30 11.5zM295 711q26 0 26 -23q0 -33 -44.5 -108.5t-54.5 -79.5h-3q-3 0 -7.5 3 t-4.5 6q0 10 14.5 74.5t27.5 102.5q3 8 18 16.5t28 8.5zM293 363q-28 11 -62 11q-134 0 -134 -79q0 -21 16.5 -38.5t30.5 -18.5q51 22 75 22q12 0 18 -4q23 -21 23 -41q0 -17 -8 -17q-62 0 -116.5 -23.5t-54.5 -65.5q0 -29 21.5 -42t52.5 -13q85 0 164 56q6 0 6 -8 q0 -11 -4 -25q-14 -31 -51.5 -56.5t-90.5 -25.5q-60 0 -98 32.5t-38 84.5q0 67 67 106q-26 10 -42.5 36.5t-16.5 53.5q0 55 37.5 91t89.5 36q39 0 70.5 -14.5t45.5 -30.5q6 -18 -1 -27z" />
<glyph unicode="&#x1f15;" horiz-adv-x="349" d="M295 711q26 0 26 -23q0 -33 -44.5 -108.5t-54.5 -79.5h-3q-3 0 -7.5 3t-4.5 6q0 10 14.5 74.5t27.5 102.5q3 8 18 16.5t28 8.5zM129 687q13 0 30 -11.5t17 -20.5q0 -3 -3 -5q-1 -1 -14.5 -11.5t-20 -17t-14 -21.5t-7.5 -31q0 -18 15 -34t39 -22q0 -5 -4 -9t-8 -4 q-6 0 -19 4.5t-31 15t-30.5 34t-12.5 55.5q0 29 20 53.5t43 24.5zM295 363q-27 11 -62 11q-134 0 -134 -79q0 -21 16.5 -38.5t30.5 -18.5q51 22 75 22q12 0 18 -4q23 -21 23 -41q0 -17 -8 -17q-62 0 -116.5 -23.5t-54.5 -65.5q0 -29 21.5 -42t52.5 -13q85 0 164 56q6 0 6 -8 q0 -11 -4 -25q-14 -31 -51.5 -56.5t-90.5 -25.5q-60 0 -98 32.5t-38 84.5q0 67 67 106q-26 10 -42.5 36.5t-16.5 53.5q0 55 37.5 91t89.5 36q39 0 70.5 -14.5t45.5 -30.5q6 -18 -1 -27z" />
<glyph unicode="&#x1f18;" horiz-adv-x="706" d="M67 657q23 0 43 -24.5t20 -53.5q0 -32 -12.5 -55.5t-30.5 -34t-31 -15t-19 -4.5q-4 0 -8 4t-4 9q24 6 39 22t15 34q0 16 -7.5 31t-14 21.5t-20 17t-14.5 11.5q-3 2 -3 5q0 9 17 20.5t30 11.5zM410 43q43 0 91.5 17t76.5 34.5t31 24.5q5 -2 9 -10t4 -13q0 -16 -23.5 -56 t-55.5 -40h-282q-63 0 -84 34q10 14 18 55t8 82l-5 432q-14 29 -37 39q0 14 10 19q50 -3 109 -3q54 1 118.5 3t115.5 3q30 -38 55 -80q-1 -3 -2.5 -6.5t-2.5 -5t-3 -3.5t-5 -3q-53 30 -89 39.5t-97 9.5q-29 0 -96 -8q0 -50 2 -252h25q80 0 155 29q8 -6 18 -17.5t16.5 -21.5 t15.5 -24.5t10 -16.5q1 -5 -4.5 -11t-10.5 -8q-52 24 -115 24q-75 0 -109 -2q0 -18 0.5 -42t0.5 -29q0 -22 -0.5 -68.5t0 -73.5t4.5 -36q44 -15 128 -15z" />
<glyph unicode="&#x1f19;" horiz-adv-x="698" d="M75 667q13 0 30 -11.5t17 -20.5q0 -3 -3 -5q-1 -1 -14.5 -11.5t-20 -17t-14 -21.5t-7.5 -31q0 -18 15 -34t39 -22q0 -5 -4 -9t-8 -4q-6 0 -19 4.5t-31 15t-30.5 34t-12.5 55.5q0 29 20 53.5t43 24.5zM402 43q43 0 91.5 17t76.5 34.5t31 24.5q5 -2 9 -10t4 -13 q0 -16 -23.5 -56t-55.5 -40h-282q-63 0 -84 34q10 14 18 55t8 82l-5 432q-14 29 -37 39q0 14 10 19q50 -3 109 -3q54 1 118.5 3t115.5 3q30 -38 55 -80q-1 -3 -2.5 -6.5t-2.5 -5t-3 -3.5t-5 -3q-53 30 -89 39.5t-97 9.5q-29 0 -96 -8q0 -50 2 -252h25q80 0 155 29 q8 -6 18 -17.5t16.5 -21.5t15.5 -24.5t10 -16.5q1 -5 -4.5 -11t-10.5 -8q-52 24 -115 24q-75 0 -109 -2q0 -18 0.5 -42t0.5 -29q0 -22 -0.5 -68.5t0 -73.5t4.5 -36q44 -15 128 -15z" />
<glyph unicode="&#x1f1a;" horiz-adv-x="827" d="M52 646q29 0 51.5 -28t22.5 -65q0 -31 -16.5 -55t-32.5 -33t-23 -9q-10 0 -13 10q41 21 41 57q0 44 -73 76q-4 2 -4 6q0 11 16.5 26t30.5 15zM178 667q13 0 28 -8.5t18 -16.5q13 -38 27.5 -102.5t14.5 -74.5q0 -3 -4.5 -6t-7.5 -3h-3q-10 4 -54.5 79.5t-44.5 108.5 q0 23 26 23zM531 43q43 0 91.5 17t76.5 34.5t31 24.5q5 -2 9 -10t4 -13q0 -16 -23.5 -56t-55.5 -40h-282q-63 0 -84 34q10 14 18 55t8 82l-5 432q-14 29 -37 39q0 14 10 19q50 -3 109 -3q54 1 118.5 3t115.5 3q30 -38 55 -80q-1 -3 -2.5 -6.5t-2.5 -5t-3 -3.5t-5 -3 q-53 30 -89 39.5t-97 9.5q-29 0 -96 -8q0 -50 2 -252h25q80 0 155 29q8 -6 18 -17.5t16.5 -21.5t15.5 -24.5t10 -16.5q1 -5 -4.5 -11t-10.5 -8q-52 24 -115 24q-75 0 -109 -2q0 -18 0.5 -42t0.5 -29q0 -22 -0.5 -68.5t0 -73.5t4.5 -36q44 -15 128 -15z" />
<glyph unicode="&#x1f1b;" horiz-adv-x="815" d="M167 667q13 0 28 -8.5t18 -16.5q13 -38 27.5 -102.5t14.5 -74.5q0 -3 -4.5 -6t-7.5 -3h-3q-10 4 -54.5 79.5t-44.5 108.5q0 23 26 23zM63 633q12 3 31 -5.5t21 -16.5q0 -3 -1 -5q-2 -3 -10 -12t-12 -14.5t-10.5 -17.5t-6.5 -21.5t1 -25.5q4 -17 22.5 -29.5t42.5 -13.5 q1 -5 -2 -10t-7 -6q-3 -3 -19 0t-34 8.5t-36 26.5t-25 52q-6 28 8 56.5t37 33.5zM519 43q43 0 91.5 17t76.5 34.5t31 24.5q5 -2 9 -10t4 -13q0 -16 -23.5 -56t-55.5 -40h-282q-63 0 -84 34q10 14 18 55t8 82l-5 432q-14 29 -37 39q0 14 10 19q50 -3 109 -3q54 1 118.5 3 t115.5 3q30 -38 55 -80q-1 -3 -2.5 -6.5t-2.5 -5t-3 -3.5t-5 -3q-53 30 -89 39.5t-97 9.5q-29 0 -96 -8q0 -50 2 -252h25q80 0 155 29q8 -6 18 -17.5t16.5 -21.5t15.5 -24.5t10 -16.5q1 -5 -4.5 -11t-10.5 -8q-52 24 -115 24q-75 0 -109 -2q0 -18 0.5 -42t0.5 -29 q0 -22 -0.5 -68.5t0 -73.5t4.5 -36q44 -15 128 -15z" />
<glyph unicode="&#x1f1c;" horiz-adv-x="845" d="M76 643q23 0 43 -24.5t20 -53.5q0 -32 -12.5 -55.5t-30.5 -34t-31 -15t-19 -4.5q-4 0 -8 4t-4 9q24 6 39 22t15 34q0 16 -7.5 31t-14 21.5t-20 17t-14.5 11.5q-3 2 -3 5q0 9 17 20.5t30 11.5zM252 667q26 0 26 -23q0 -33 -44.5 -108.5t-54.5 -79.5h-3q-3 0 -7.5 3t-4.5 6 q0 10 14.5 74.5t27.5 102.5q3 8 18 16.5t28 8.5zM549 43q43 0 91.5 17t76.5 34.5t31 24.5q5 -2 9 -10t4 -13q0 -16 -23.5 -56t-55.5 -40h-282q-63 0 -84 34q10 14 18 55t8 82l-5 432q-14 29 -37 39q0 14 10 19q50 -3 109 -3q54 1 118.5 3t115.5 3q30 -38 55 -80 q-1 -3 -2.5 -6.5t-2.5 -5t-3 -3.5t-5 -3q-53 30 -89 39.5t-97 9.5q-29 0 -96 -8q0 -50 2 -252h25q80 0 155 29q8 -6 18 -17.5t16.5 -21.5t15.5 -24.5t10 -16.5q1 -5 -4.5 -11t-10.5 -8q-52 24 -115 24q-75 0 -109 -2q0 -18 0.5 -42t0.5 -29q0 -22 -0.5 -68.5t0 -73.5 t4.5 -36q44 -15 128 -15z" />
<glyph unicode="&#x1f1d;" horiz-adv-x="842" d="M248 667q26 0 26 -23q0 -33 -44.5 -108.5t-54.5 -79.5h-3q-3 0 -7.5 3t-4.5 6q0 10 14.5 74.5t27.5 102.5q3 8 18 16.5t28 8.5zM82 643q13 0 30 -11.5t17 -20.5q0 -3 -3 -5q-1 -1 -14.5 -11.5t-20 -17t-14 -21.5t-7.5 -31q0 -18 15 -34t39 -22q0 -5 -4 -9t-8 -4 q-6 0 -19 4.5t-31 15t-30.5 34t-12.5 55.5q0 29 20 53.5t43 24.5zM546 43q43 0 91.5 17t76.5 34.5t31 24.5q5 -2 9 -10t4 -13q0 -16 -23.5 -56t-55.5 -40h-282q-63 0 -84 34q10 14 18 55t8 82l-5 432q-14 29 -37 39q0 14 10 19q50 -3 109 -3q54 1 118.5 3t115.5 3 q30 -38 55 -80q-1 -3 -2.5 -6.5t-2.5 -5t-3 -3.5t-5 -3q-53 30 -89 39.5t-97 9.5q-29 0 -96 -8q0 -50 2 -252h25q80 0 155 29q8 -6 18 -17.5t16.5 -21.5t15.5 -24.5t10 -16.5q1 -5 -4.5 -11t-10.5 -8q-52 24 -115 24q-75 0 -109 -2q0 -18 0.5 -42t0.5 -29q0 -22 -0.5 -68.5 t0 -73.5t4.5 -36q44 -15 128 -15z" />
<glyph unicode="&#x1f20;" horiz-adv-x="488" d="M262 687q23 0 43 -24.5t20 -53.5q0 -32 -12.5 -55.5t-30.5 -34t-31 -15t-19 -4.5q-4 0 -8 4t-4 9q24 6 39 22t15 34q0 16 -7.5 31t-14 21.5t-20 17t-14.5 11.5q-3 2 -3 5q0 9 17 20.5t30 11.5zM26 332q-4 0 -8.5 7.5t-4.5 13.5q10 33 36.5 56.5t56.5 23.5q22 0 37.5 -22 t21 -46t11.5 -64q60 139 140 139q43 0 69.5 -41t31.5 -109q3 -43 4.5 -157.5t5 -210.5t13.5 -131q-11 -18 -25 -18q-9 0 -36.5 17t-26.5 28q1 18 8.5 100.5t13 175.5t5.5 172q0 45 -13.5 71t-39.5 26q-40 0 -76.5 -52t-58.5 -121v-54v-122q-13 -20 -24 -20q-9 0 -32.5 14 t-23.5 23q0 35 26 157l14 59q0 115 -68 115q-17 0 -33.5 -10t-23.5 -20z" />
<glyph unicode="&#x1f21;" horiz-adv-x="488" d="M272 687q13 0 30 -11.5t17 -20.5q0 -3 -3 -5q-1 -1 -14.5 -11.5t-20 -17t-14 -21.5t-7.5 -31q0 -18 15 -34t39 -22q0 -5 -4 -9t-8 -4q-6 0 -19 4.5t-31 15t-30.5 34t-12.5 55.5q0 29 20 53.5t43 24.5zM26 332q-4 0 -8.5 7.5t-4.5 13.5q10 33 36.5 56.5t56.5 23.5 q22 0 37.5 -22t21 -46t11.5 -64q60 139 140 139q43 0 69.5 -41t31.5 -109q3 -43 4.5 -157.5t5 -210.5t13.5 -131q-11 -18 -25 -18q-9 0 -36.5 17t-26.5 28q1 18 8.5 100.5t13 175.5t5.5 172q0 45 -13.5 71t-39.5 26q-40 0 -76.5 -52t-58.5 -121v-54v-122q-13 -20 -24 -20 q-9 0 -32.5 14t-23.5 23q0 35 26 157l14 59q0 115 -68 115q-17 0 -33.5 -10t-23.5 -20z" />
<glyph unicode="&#x1f22;" horiz-adv-x="488" d="M142 690q29 0 51.5 -28t22.5 -65q0 -31 -16.5 -55t-32.5 -33t-23 -9q-10 0 -13 10q41 21 41 57q0 44 -73 76q-4 2 -4 6q0 11 16.5 26t30.5 15zM268 711q13 0 28 -8.5t18 -16.5q13 -38 27.5 -102.5t14.5 -74.5q0 -3 -4.5 -6t-7.5 -3h-3q-10 4 -54.5 79.5t-44.5 108.5 q0 23 26 23zM26 332q-4 0 -8.5 7.5t-4.5 13.5q10 33 36.5 56.5t56.5 23.5q22 0 37.5 -22t21 -46t11.5 -64q60 139 140 139q43 0 69.5 -41t31.5 -109q3 -43 4.5 -157.5t5 -210.5t13.5 -131q-11 -18 -25 -18q-9 0 -36.5 17t-26.5 28q1 18 8.5 100.5t13 175.5t5.5 172 q0 45 -13.5 71t-39.5 26q-40 0 -76.5 -52t-58.5 -121v-54v-122q-13 -20 -24 -20q-9 0 -32.5 14t-23.5 23q0 35 26 157l14 59q0 115 -68 115q-17 0 -33.5 -10t-23.5 -20z" />
<glyph unicode="&#x1f23;" horiz-adv-x="488" d="M268 711q13 0 28 -8.5t18 -16.5q13 -38 27.5 -102.5t14.5 -74.5q0 -3 -4.5 -6t-7.5 -3h-3q-10 4 -54.5 79.5t-44.5 108.5q0 23 26 23zM164 677q12 3 31 -5.5t21 -16.5q0 -3 -1 -5q-2 -3 -10 -12t-12 -14.5t-10.5 -17.5t-6.5 -21.5t1 -25.5q4 -17 22.5 -29.5t42.5 -13.5 q1 -5 -2 -10t-7 -6q-3 -3 -19 0t-34 8.5t-36 26.5t-25 52q-6 28 8.5 56.5t36.5 33.5zM26 332q-4 0 -8.5 7.5t-4.5 13.5q10 33 36.5 56.5t56.5 23.5q22 0 37.5 -22t21 -46t11.5 -64q60 139 140 139q43 0 69.5 -41t31.5 -109q3 -43 4.5 -157.5t5 -210.5t13.5 -131 q-11 -18 -25 -18q-9 0 -36.5 17t-26.5 28q1 18 8.5 100.5t13 175.5t5.5 172q0 45 -13.5 71t-39.5 26q-40 0 -76.5 -52t-58.5 -121v-54v-122q-13 -20 -24 -20q-9 0 -32.5 14t-23.5 23q0 35 26 157l14 59q0 115 -68 115q-17 0 -33.5 -10t-23.5 -20z" />
<glyph unicode="&#x1f24;" horiz-adv-x="488" d="M187 687q23 0 43 -24.5t20 -53.5q0 -32 -12.5 -55.5t-30.5 -34t-31 -15t-19 -4.5q-4 0 -8 4t-4 9q24 6 39 22t15 34q0 16 -7.5 31t-14 21.5t-20 17t-14.5 11.5q-3 2 -3 5q0 9 17 20.5t30 11.5zM363 711q26 0 26 -23q0 -33 -44.5 -108.5t-54.5 -79.5h-3q-3 0 -7.5 3 t-4.5 6q0 10 14.5 74.5t27.5 102.5q3 8 18 16.5t28 8.5zM26 332q-4 0 -8.5 7.5t-4.5 13.5q10 33 36.5 56.5t56.5 23.5q22 0 37.5 -22t21 -46t11.5 -64q60 139 140 139q43 0 69.5 -41t31.5 -109q3 -43 4.5 -157.5t5 -210.5t13.5 -131q-11 -18 -25 -18q-9 0 -36.5 17t-26.5 28 q1 18 8.5 100.5t13 175.5t5.5 172q0 45 -13.5 71t-39.5 26q-40 0 -76.5 -52t-58.5 -121v-54v-122q-13 -20 -24 -20q-9 0 -32.5 14t-23.5 23q0 35 26 157l14 59q0 115 -68 115q-17 0 -33.5 -10t-23.5 -20z" />
<glyph unicode="&#x1f25;" horiz-adv-x="488" d="M363 711q26 0 26 -23q0 -33 -44.5 -108.5t-54.5 -79.5h-3q-3 0 -7.5 3t-4.5 6q0 10 14.5 74.5t27.5 102.5q3 8 18 16.5t28 8.5zM197 687q13 0 30 -11.5t17 -20.5q0 -3 -3 -5q-1 -1 -14.5 -11.5t-20 -17t-14 -21.5t-7.5 -31q0 -18 15 -34t39 -22q0 -5 -4 -9t-8 -4 q-6 0 -19 4.5t-31 15t-30.5 34t-12.5 55.5q0 29 20 53.5t43 24.5zM26 332q-4 0 -8.5 7.5t-4.5 13.5q10 33 36.5 56.5t56.5 23.5q22 0 37.5 -22t21 -46t11.5 -64q60 139 140 139q43 0 69.5 -41t31.5 -109q3 -43 4.5 -157.5t5 -210.5t13.5 -131q-11 -18 -25 -18q-9 0 -36.5 17 t-26.5 28q1 18 8.5 100.5t13 175.5t5.5 172q0 45 -13.5 71t-39.5 26q-40 0 -76.5 -52t-58.5 -121v-54v-122q-13 -20 -24 -20q-9 0 -32.5 14t-23.5 23q0 35 26 157l14 59q0 115 -68 115q-17 0 -33.5 -10t-23.5 -20z" />
<glyph unicode="&#x1f26;" horiz-adv-x="488" d="M248 644q24 0 41 -19.5t17 -42.5q0 -30 -20 -50.5t-37 -26t-27 -5.5q-26 0 -26 12q26 2 44 16t18 32q0 6 -2.5 11t-7.5 8.5t-9.5 6.5t-11.5 5.5t-11 3.5t-11 3t-8 2q-5 2 -5 8q0 14 18 25t38 11zM211 742q23 0 61 -23q38 -24 58 -24q16 0 28 8.5t19.5 19t8.5 11.5 q6 0 6 -9q0 -17 -14 -38q-27 -37 -62 -37q-24 0 -60 22q-40 25 -59 25q-16 0 -27 -8.5t-17 -19t-8 -11.5q-8 0 -8 11q0 19 12 37q27 36 62 36zM26 332q-4 0 -8.5 7.5t-4.5 13.5q10 33 36.5 56.5t56.5 23.5q22 0 37.5 -22t21 -46t11.5 -64q60 139 140 139q43 0 69.5 -41 t31.5 -109q3 -43 4.5 -157.5t5 -210.5t13.5 -131q-11 -18 -25 -18q-9 0 -36.5 17t-26.5 28q1 18 8.5 100.5t13 175.5t5.5 172q0 45 -13.5 71t-39.5 26q-40 0 -76.5 -52t-58.5 -121v-54v-122q-13 -20 -24 -20q-9 0 -32.5 14t-23.5 23q0 35 26 157l14 59q0 115 -68 115 q-17 0 -33.5 -10t-23.5 -20z" />
<glyph unicode="&#x1f27;" horiz-adv-x="488" d="M250 644q20 0 38 -11t18 -25q0 -6 -5 -8q-1 0 -8 -2t-11 -3t-11 -3.5t-11.5 -5.5t-9.5 -6.5t-7.5 -8.5t-2.5 -11q0 -18 18 -32t44 -16q0 -12 -26 -12q-10 0 -27 5.5t-37 26t-20 50.5q0 23 17 42.5t41 19.5zM211 742q23 0 61 -23q38 -24 58 -24q16 0 28 8.5t19.5 19 t8.5 11.5q6 0 6 -9q0 -17 -14 -38q-27 -37 -62 -37q-24 0 -60 22q-40 25 -59 25q-16 0 -27 -8.5t-17 -19t-8 -11.5q-8 0 -8 11q0 19 12 37q27 36 62 36zM26 332q-4 0 -8.5 7.5t-4.5 13.5q10 33 36.5 56.5t56.5 23.5q22 0 37.5 -22t21 -46t11.5 -64q60 139 140 139 q43 0 69.5 -41t31.5 -109q3 -43 4.5 -157.5t5 -210.5t13.5 -131q-11 -18 -25 -18q-9 0 -36.5 17t-26.5 28q1 18 8.5 100.5t13 175.5t5.5 172q0 45 -13.5 71t-39.5 26q-40 0 -76.5 -52t-58.5 -121v-54v-122q-13 -20 -24 -20q-9 0 -32.5 14t-23.5 23q0 35 26 157l14 59 q0 115 -68 115q-17 0 -33.5 -10t-23.5 -20z" />
<glyph unicode="&#x1f28;" horiz-adv-x="834" d="M65 667q23 0 43 -24.5t20 -53.5q0 -32 -12.5 -55.5t-30.5 -34t-31 -15t-19 -4.5q-4 0 -8 4t-4 9q24 6 39 22t15 34q0 16 -7.5 31t-14 21.5t-20 17t-14.5 11.5q-3 2 -3 5q0 9 17 20.5t30 11.5zM616 468q0 -190 1 -250q1 -56 6.5 -129t11.5 -88q-12 -17 -25 -17 q-8 0 -36.5 13t-28.5 23q6 154 7 292q-15 -1 -64 -2.5t-81 -2.5t-74.5 -4t-70.5 -8q0 -15 0.5 -40.5t0.5 -36.5q1 -56 6.5 -129t11.5 -88q-12 -17 -25 -17q-8 0 -36.5 13t-28.5 23q7 187 7 334q0 114 -17 293q2 5 10 11t12 6q20 0 44.5 -12.5t24.5 -24.5q0 -1 -2.5 -28 t-5 -65t-2.5 -66v-121l290 1v6q0 114 -17 293q2 5 10 11t12 6q20 0 44.5 -12.5t24.5 -24.5q0 -1 -2.5 -28t-5 -65t-2.5 -66z" />
<glyph unicode="&#x1f29;" horiz-adv-x="832" d="M75 667q13 0 30 -11.5t17 -20.5q0 -3 -3 -5q-1 -1 -14.5 -11.5t-20 -17t-14 -21.5t-7.5 -31q0 -18 15 -34t39 -22q0 -5 -4 -9t-8 -4q-6 0 -19 4.5t-31 15t-30.5 34t-12.5 55.5q0 29 20 53.5t43 24.5zM606 468q0 -190 1 -250q1 -56 6.5 -129t11.5 -88q-12 -17 -25 -17 q-8 0 -36.5 13t-28.5 23q6 154 7 292q-15 -1 -64 -2.5t-81 -2.5t-74.5 -4t-70.5 -8q0 -15 0.5 -40.5t0.5 -36.5q1 -56 6.5 -129t11.5 -88q-12 -17 -25 -17q-8 0 -36.5 13t-28.5 23q7 187 7 334q0 114 -17 293q2 5 10 11t12 6q20 0 44.5 -12.5t24.5 -24.5q0 -1 -2.5 -28 t-5 -65t-2.5 -66v-121l290 1v6q0 114 -17 293q2 5 10 11t12 6q20 0 44.5 -12.5t24.5 -24.5q0 -1 -2.5 -28t-5 -65t-2.5 -66z" />
<glyph unicode="&#x1f2a;" horiz-adv-x="953" d="M52 646q29 0 51.5 -28t22.5 -65q0 -31 -16.5 -55t-32.5 -33t-23 -9q-10 0 -13 10q41 21 41 57q0 44 -73 76q-4 2 -4 6q0 11 16.5 26t30.5 15zM178 667q13 0 28 -8.5t18 -16.5q13 -38 27.5 -102.5t14.5 -74.5q0 -3 -4.5 -6t-7.5 -3h-3q-10 4 -54.5 79.5t-44.5 108.5 q0 23 26 23zM738 468q0 -190 1 -250q1 -56 6.5 -129t11.5 -88q-12 -17 -25 -17q-8 0 -36.5 13t-28.5 23q6 154 7 292q-15 -1 -64 -2.5t-81 -2.5t-74.5 -4t-70.5 -8q0 -15 0.5 -40.5t0.5 -36.5q1 -56 6.5 -129t11.5 -88q-12 -17 -25 -17q-8 0 -36.5 13t-28.5 23q7 187 7 334 q0 114 -17 293q2 5 10 11t12 6q20 0 44.5 -12.5t24.5 -24.5q0 -1 -2.5 -28t-5 -65t-2.5 -66v-121l290 1v6q0 114 -17 293q2 5 10 11t12 6q20 0 44.5 -12.5t24.5 -24.5q0 -1 -2.5 -28t-5 -65t-2.5 -66z" />
<glyph unicode="&#x1f2b;" horiz-adv-x="935" d="M738 468q0 -190 1 -250q1 -56 6.5 -129t11.5 -88q-12 -17 -25 -17q-8 0 -36.5 13t-28.5 23q6 154 7 292q-15 -1 -64 -2.5t-81 -2.5t-74.5 -4t-70.5 -8q0 -15 0.5 -40.5t0.5 -36.5q1 -56 6.5 -129t11.5 -88q-12 -17 -25 -17q-8 0 -36.5 13t-28.5 23q7 187 7 334 q0 114 -17 293q2 5 10 11t12 6q20 0 44.5 -12.5t24.5 -24.5q0 -1 -2.5 -28t-5 -65t-2.5 -66v-121l290 1v6q0 114 -17 293q2 5 10 11t12 6q20 0 44.5 -12.5t24.5 -24.5q0 -1 -2.5 -28t-5 -65t-2.5 -66zM178 667q13 0 28 -8.5t18 -16.5q13 -38 27.5 -102.5t14.5 -74.5 q0 -3 -4.5 -6t-7.5 -3h-3q-10 4 -54.5 79.5t-44.5 108.5q0 23 26 23zM74 633q12 3 31 -5.5t21 -16.5q0 -3 -1 -5q-2 -3 -10 -12t-12 -14.5t-10.5 -17.5t-6.5 -21.5t1 -25.5q4 -17 22.5 -29.5t42.5 -13.5q1 -5 -2 -10t-7 -6q-3 -3 -19 0t-34 8.5t-36 26.5t-25 52 q-6 28 8.5 56.5t36.5 33.5z" />
<glyph unicode="&#x1f2c;" horiz-adv-x="965" d="M65 643q23 0 43 -24.5t20 -53.5q0 -32 -12.5 -55.5t-30.5 -34t-31 -15t-19 -4.5q-4 0 -8 4t-4 9q24 6 39 22t15 34q0 16 -7.5 31t-14 21.5t-20 17t-14.5 11.5q-3 2 -3 5q0 9 17 20.5t30 11.5zM241 667q26 0 26 -23q0 -33 -44.5 -108.5t-54.5 -79.5h-3q-3 0 -7.5 3t-4.5 6 q0 10 14.5 74.5t27.5 102.5q3 8 18 16.5t28 8.5zM733 468q0 -190 1 -250q1 -56 6.5 -129t11.5 -88q-12 -17 -25 -17q-8 0 -36.5 13t-28.5 23q6 154 7 292q-15 -1 -64 -2.5t-81 -2.5t-74.5 -4t-70.5 -8q0 -15 0.5 -40.5t0.5 -36.5q1 -56 6.5 -129t11.5 -88q-12 -17 -25 -17 q-8 0 -36.5 13t-28.5 23q7 187 7 334q0 114 -17 293q2 5 10 11t12 6q20 0 44.5 -12.5t24.5 -24.5q0 -1 -2.5 -28t-5 -65t-2.5 -66v-121l290 1v6q0 114 -17 293q2 5 10 11t12 6q20 0 44.5 -12.5t24.5 -24.5q0 -1 -2.5 -28t-5 -65t-2.5 -66z" />
<glyph unicode="&#x1f2d;" horiz-adv-x="968" d="M733 468q0 -190 1 -250q1 -56 6.5 -129t11.5 -88q-12 -17 -25 -17q-8 0 -36.5 13t-28.5 23q6 154 7 292q-15 -1 -64 -2.5t-81 -2.5t-74.5 -4t-70.5 -8q0 -15 0.5 -40.5t0.5 -36.5q1 -56 6.5 -129t11.5 -88q-12 -17 -25 -17q-8 0 -36.5 13t-28.5 23q7 187 7 334 q0 114 -17 293q2 5 10 11t12 6q20 0 44.5 -12.5t24.5 -24.5q0 -1 -2.5 -28t-5 -65t-2.5 -66v-121l290 1v6q0 114 -17 293q2 5 10 11t12 6q20 0 44.5 -12.5t24.5 -24.5q0 -1 -2.5 -28t-5 -65t-2.5 -66zM241 667q26 0 26 -23q0 -33 -44.5 -108.5t-54.5 -79.5h-3q-3 0 -7.5 3 t-4.5 6q0 10 14.5 74.5t27.5 102.5q3 8 18 16.5t28 8.5zM75 643q13 0 30 -11.5t17 -20.5q0 -3 -3 -5q-1 -1 -14.5 -11.5t-20 -17t-14 -21.5t-7.5 -31q0 -18 15 -34t39 -22q0 -5 -4 -9t-8 -4q-6 0 -19 4.5t-31 15t-30.5 34t-12.5 55.5q0 29 20 53.5t43 24.5z" />
<glyph unicode="&#x1f2e;" horiz-adv-x="966" d="M127 566q24 0 41 -19.5t17 -42.5q0 -30 -20 -50.5t-37 -26t-27 -5.5q-26 0 -26 12q26 2 44 16t18 32q0 6 -2.5 11t-7.5 8.5t-9.5 6.5t-11.5 5.5t-11 3.5t-11 3t-8 2q-5 2 -5 8q0 14 18 25t38 11zM90 664q23 0 61 -23q38 -24 58 -24q16 0 28 8.5t19.5 19t8.5 11.5 q6 0 6 -9q0 -17 -14 -38q-27 -37 -62 -37q-24 0 -60 22q-40 25 -59 25q-16 0 -27 -8.5t-17 -19t-8 -11.5q-8 0 -8 11q0 19 12 37q27 36 62 36zM736 468q0 -190 1 -250q1 -56 6.5 -129t11.5 -88q-12 -17 -25 -17q-8 0 -36.5 13t-28.5 23q6 154 7 292q-15 -1 -64 -2.5 t-81 -2.5t-74.5 -4t-70.5 -8q0 -15 0.5 -40.5t0.5 -36.5q1 -56 6.5 -129t11.5 -88q-12 -17 -25 -17q-8 0 -36.5 13t-28.5 23q7 187 7 334q0 114 -17 293q2 5 10 11t12 6q20 0 44.5 -12.5t24.5 -24.5q0 -1 -2.5 -28t-5 -65t-2.5 -66v-121l290 1v6q0 114 -17 293q2 5 10 11 t12 6q20 0 44.5 -12.5t24.5 -24.5q0 -1 -2.5 -28t-5 -65t-2.5 -66z" />
<glyph unicode="&#x1f2f;" horiz-adv-x="967" d="M736 468q0 -190 1 -250q1 -56 6.5 -129t11.5 -88q-12 -17 -25 -17q-8 0 -36.5 13t-28.5 23q6 154 7 292q-15 -1 -64 -2.5t-81 -2.5t-74.5 -4t-70.5 -8q0 -15 0.5 -40.5t0.5 -36.5q1 -56 6.5 -129t11.5 -88q-12 -17 -25 -17q-8 0 -36.5 13t-28.5 23q7 187 7 334 q0 114 -17 293q2 5 10 11t12 6q20 0 44.5 -12.5t24.5 -24.5q0 -1 -2.5 -28t-5 -65t-2.5 -66v-121l290 1v6q0 114 -17 293q2 5 10 11t12 6q20 0 44.5 -12.5t24.5 -24.5q0 -1 -2.5 -28t-5 -65t-2.5 -66zM129 566q20 0 38 -11t18 -25q0 -6 -5 -8q-1 0 -8 -2t-11 -3t-11 -3.5 t-11.5 -5.5t-9.5 -6.5t-7.5 -8.5t-2.5 -11q0 -18 18 -32t44 -16q0 -12 -26 -12q-10 0 -27 5.5t-37 26t-20 50.5q0 23 17 42.5t41 19.5zM90 664q23 0 61 -23q38 -24 58 -24q16 0 28 8.5t19.5 19t8.5 11.5q6 0 6 -9q0 -17 -14 -38q-27 -37 -62 -37q-24 0 -60 22q-40 25 -59 25 q-16 0 -27 -8.5t-17 -19t-8 -11.5q-8 0 -8 11q0 19 12 37q27 36 62 36z" />
<glyph unicode="&#x1f30;" horiz-adv-x="227" d="M99 687q23 0 43 -24.5t20 -53.5q0 -32 -12.5 -55.5t-30.5 -34t-31 -15t-19 -4.5q-4 0 -8 4t-4 9q24 6 39 22t15 34q0 16 -7.5 31t-14 21.5t-20 17t-14.5 11.5q-3 2 -3 5q0 9 17 20.5t30 11.5zM126 -3q-59 0 -59 92v327q12 17 25 17q7 0 30 -15.5t23 -25.5 q-3 -36 -8.5 -95.5t-8 -102.5t-2.5 -88q0 -49 48 -49q19 0 28 5q7 -6 7 -14q-5 -12 -30 -31.5t-53 -19.5z" />
<glyph unicode="&#x1f31;" horiz-adv-x="227" d="M112 687q13 0 30 -11.5t17 -20.5q0 -3 -3 -5q-1 -1 -14.5 -11.5t-20 -17t-14 -21.5t-7.5 -31q0 -18 15 -34t39 -22q0 -5 -4 -9t-8 -4q-6 0 -19 4.5t-31 15t-30.5 34t-12.5 55.5q0 29 20 53.5t43 24.5zM126 -3q-59 0 -59 92v327q12 17 25 17q7 0 30 -15.5t23 -25.5 q-3 -36 -8.5 -95.5t-8 -102.5t-2.5 -88q0 -49 48 -49q19 0 28 5q7 -6 7 -14q-5 -12 -30 -31.5t-53 -19.5z" />
<glyph unicode="&#x1f32;" horiz-adv-x="227" d="M10 690q29 0 51.5 -28t22.5 -65q0 -31 -16.5 -55t-32.5 -33t-23 -9q-10 0 -13 10q41 21 41 57q0 44 -73 76q-4 2 -4 6q0 11 16.5 26t30.5 15zM136 711q13 0 28 -8.5t18 -16.5q13 -38 27.5 -102.5t14.5 -74.5q0 -3 -4.5 -6t-7.5 -3h-3q-10 4 -54.5 79.5t-44.5 108.5 q0 23 26 23zM126 -3q-59 0 -59 92v327q12 17 25 17q7 0 30 -15.5t23 -25.5q-3 -36 -8.5 -95.5t-8 -102.5t-2.5 -88q0 -49 48 -49q19 0 28 5q7 -6 7 -14q-5 -12 -30 -31.5t-53 -19.5z" />
<glyph unicode="&#x1f33;" horiz-adv-x="227" d="M119 711q13 0 28 -8.5t18 -16.5q13 -38 27.5 -102.5t14.5 -74.5q0 -3 -4.5 -6t-7.5 -3h-3q-10 4 -54.5 79.5t-44.5 108.5q0 23 26 23zM15 677q12 3 31 -5.5t21 -16.5q0 -3 -1 -5q-2 -3 -10 -12t-12 -14.5t-10.5 -17.5t-6.5 -21.5t1 -25.5q4 -17 22.5 -29.5t42.5 -13.5 q1 -5 -2 -10t-7 -6q-3 -3 -19 0t-34 8.5t-36 26.5t-25 52q-6 28 8 56.5t37 33.5zM127 -3q-59 0 -59 92v327q12 17 25 17q7 0 30 -15.5t23 -25.5q-3 -36 -8.5 -95.5t-8 -102.5t-2.5 -88q0 -49 48 -49q19 0 28 5q7 -6 7 -14q-5 -12 -30 -31.5t-53 -19.5z" />
<glyph unicode="&#x1f34;" horiz-adv-x="227" d="M52 687q23 0 43 -24.5t20 -53.5q0 -32 -12.5 -55.5t-30.5 -34t-31 -15t-19 -4.5q-4 0 -8 4t-4 9q24 6 39 22t15 34q0 16 -7.5 31t-14 21.5t-20 17t-14.5 11.5q-3 2 -3 5q0 9 17 20.5t30 11.5zM228 711q26 0 26 -23q0 -33 -44.5 -108.5t-54.5 -79.5h-3q-3 0 -7.5 3t-4.5 6 q0 10 14.5 74.5t27.5 102.5q3 8 18 16.5t28 8.5zM126 -3q-59 0 -59 92v327q12 17 25 17q7 0 30 -15.5t23 -25.5q-3 -36 -8.5 -95.5t-8 -102.5t-2.5 -88q0 -49 48 -49q19 0 28 5q7 -6 7 -14q-5 -12 -30 -31.5t-53 -19.5z" />
<glyph unicode="&#x1f35;" horiz-adv-x="227" d="M216 711q26 0 26 -23q0 -33 -44.5 -108.5t-54.5 -79.5h-3q-3 0 -7.5 3t-4.5 6q0 10 14.5 74.5t27.5 102.5q3 8 18 16.5t28 8.5zM50 687q13 0 30 -11.5t17 -20.5q0 -3 -3 -5q-1 -1 -14.5 -11.5t-20 -17t-14 -21.5t-7.5 -31q0 -18 15 -34t39 -22q0 -5 -4 -9t-8 -4 q-6 0 -19 4.5t-31 15t-30.5 34t-12.5 55.5q0 29 20 53.5t43 24.5zM126 -3q-59 0 -59 92v327q12 17 25 17q7 0 30 -15.5t23 -25.5q-3 -36 -8.5 -95.5t-8 -102.5t-2.5 -88q0 -49 48 -49q19 0 28 5q7 -6 7 -14q-5 -12 -30 -31.5t-53 -19.5z" />
<glyph unicode="&#x1f36;" horiz-adv-x="227" d="M104 644q24 0 41 -19.5t17 -42.5q0 -30 -20 -50.5t-37 -26t-27 -5.5q-26 0 -26 12q26 2 44 16t18 32q0 6 -2.5 11t-7.5 8.5t-9.5 6.5t-11.5 5.5t-11 3.5t-11 3t-8 2q-5 2 -5 8q0 14 18 25t38 11zM67 742q23 0 61 -23q38 -24 58 -24q16 0 28 8.5t19.5 19t8.5 11.5 q6 0 6 -9q0 -17 -14 -38q-27 -37 -62 -37q-24 0 -60 22q-40 25 -59 25q-16 0 -27 -8.5t-17 -19t-8 -11.5q-8 0 -8 11q0 19 12 37q27 36 62 36zM126 -3q-59 0 -59 92v327q12 17 25 17q7 0 30 -15.5t23 -25.5q-3 -36 -8.5 -95.5t-8 -102.5t-2.5 -88q0 -49 48 -49q19 0 28 5 q7 -6 7 -14q-5 -12 -30 -31.5t-53 -19.5z" />
<glyph unicode="&#x1f37;" horiz-adv-x="227" d="M103 644q20 0 38 -11t18 -25q0 -6 -5 -8q-1 0 -8 -2t-11 -3t-11 -3.5t-11.5 -5.5t-9.5 -6.5t-7.5 -8.5t-2.5 -11q0 -18 18 -32t44 -16q0 -12 -26 -12q-10 0 -27 5.5t-37 26t-20 50.5q0 23 17 42.5t41 19.5zM64 742q23 0 61 -23q38 -24 58 -24q16 0 28 8.5t19.5 19 t8.5 11.5q6 0 6 -9q0 -17 -14 -38q-27 -37 -62 -37q-24 0 -60 22q-40 25 -59 25q-16 0 -27 -8.5t-17 -19t-8 -11.5q-8 0 -8 11q0 19 12 37q27 36 62 36zM126 -3q-59 0 -59 92v327q12 17 25 17q7 0 30 -15.5t23 -25.5q-3 -36 -8.5 -95.5t-8 -102.5t-2.5 -88q0 -49 48 -49 q19 0 28 5q7 -6 7 -14q-5 -12 -30 -31.5t-53 -19.5z" />
<glyph unicode="&#x1f38;" horiz-adv-x="465" d="M65 667q23 0 43 -24.5t20 -53.5q0 -32 -12.5 -55.5t-30.5 -34t-31 -15t-19 -4.5q-4 0 -8 4t-4 9q24 6 39 22t15 34q0 16 -7.5 31t-14 21.5t-20 17t-14.5 11.5q-3 2 -3 5q0 9 17 20.5t30 11.5zM262 468q0 -190 1 -250q1 -56 6.5 -129t11.5 -88q-12 -17 -25 -17 q-8 0 -36.5 13t-28.5 23q7 187 7 334q0 114 -17 293q2 5 10 11t12 6q20 0 44.5 -12.5t24.5 -24.5q0 -1 -2.5 -28t-5 -65t-2.5 -66z" />
<glyph unicode="&#x1f39;" horiz-adv-x="458" d="M75 667q13 0 30 -11.5t17 -20.5q0 -3 -3 -5q-1 -1 -14.5 -11.5t-20 -17t-14 -21.5t-7.5 -31q0 -18 15 -34t39 -22q0 -5 -4 -9t-8 -4q-6 0 -19 4.5t-31 15t-30.5 34t-12.5 55.5q0 29 20 53.5t43 24.5zM252 468q0 -190 1 -250q1 -56 6.5 -129t11.5 -88q-12 -17 -25 -17 q-8 0 -36.5 13t-28.5 23q7 187 7 334q0 114 -17 293q2 5 10 11t12 6q20 0 44.5 -12.5t24.5 -24.5q0 -1 -2.5 -28t-5 -65t-2.5 -66z" />
<glyph unicode="&#x1f3a;" horiz-adv-x="608" d="M52 646q29 0 51.5 -28t22.5 -65q0 -31 -16.5 -55t-32.5 -33t-23 -9q-10 0 -13 10q41 21 41 57q0 44 -73 76q-4 2 -4 6q0 11 16.5 26t30.5 15zM178 667q13 0 28 -8.5t18 -16.5q13 -38 27.5 -102.5t14.5 -74.5q0 -3 -4.5 -6t-7.5 -3h-3q-10 4 -54.5 79.5t-44.5 108.5 q0 23 26 23zM384 468q0 -190 1 -250q1 -56 6.5 -129t11.5 -88q-12 -17 -25 -17q-8 0 -36.5 13t-28.5 23q7 187 7 334q0 114 -17 293q2 5 10 11t12 6q20 0 44.5 -12.5t24.5 -24.5q0 -1 -2.5 -28t-5 -65t-2.5 -66z" />
<glyph unicode="&#x1f3b;" horiz-adv-x="588" d="M178 667q13 0 28 -8.5t18 -16.5q13 -38 27.5 -102.5t14.5 -74.5q0 -3 -4.5 -6t-7.5 -3h-3q-10 4 -54.5 79.5t-44.5 108.5q0 23 26 23zM74 633q12 3 31 -5.5t21 -16.5q0 -3 -1 -5q-2 -3 -10 -12t-12 -14.5t-10.5 -17.5t-6.5 -21.5t1 -25.5q4 -17 22.5 -29.5t42.5 -13.5 q1 -5 -2 -10t-7 -6q-3 -3 -19 0t-34 8.5t-36 26.5t-25 52q-6 28 8.5 56.5t36.5 33.5zM384 468q0 -190 1 -250q1 -56 6.5 -129t11.5 -88q-12 -17 -25 -17q-8 0 -36.5 13t-28.5 23q7 187 7 334q0 114 -17 293q2 5 10 11t12 6q20 0 44.5 -12.5t24.5 -24.5q0 -1 -2.5 -28t-5 -65 t-2.5 -66z" />
<glyph unicode="&#x1f3c;" horiz-adv-x="608" d="M65 643q23 0 43 -24.5t20 -53.5q0 -32 -12.5 -55.5t-30.5 -34t-31 -15t-19 -4.5q-4 0 -8 4t-4 9q24 6 39 22t15 34q0 16 -7.5 31t-14 21.5t-20 17t-14.5 11.5q-3 2 -3 5q0 9 17 20.5t30 11.5zM241 667q26 0 26 -23q0 -33 -44.5 -108.5t-54.5 -79.5h-3q-3 0 -7.5 3t-4.5 6 q0 10 14.5 74.5t27.5 102.5q3 8 18 16.5t28 8.5zM379 468q0 -190 1 -250q1 -56 6.5 -129t11.5 -88q-12 -17 -25 -17q-8 0 -36.5 13t-28.5 23q7 187 7 334q0 114 -17 293q2 5 10 11t12 6q20 0 44.5 -12.5t24.5 -24.5q0 -1 -2.5 -28t-5 -65t-2.5 -66z" />
<glyph unicode="&#x1f3d;" horiz-adv-x="605" d="M241 667q26 0 26 -23q0 -33 -44.5 -108.5t-54.5 -79.5h-3q-3 0 -7.5 3t-4.5 6q0 10 14.5 74.5t27.5 102.5q3 8 18 16.5t28 8.5zM75 643q13 0 30 -11.5t17 -20.5q0 -3 -3 -5q-1 -1 -14.5 -11.5t-20 -17t-14 -21.5t-7.5 -31q0 -18 15 -34t39 -22q0 -5 -4 -9t-8 -4 q-6 0 -19 4.5t-31 15t-30.5 34t-12.5 55.5q0 29 20 53.5t43 24.5zM379 468q0 -190 1 -250q1 -56 6.5 -129t11.5 -88q-12 -17 -25 -17q-8 0 -36.5 13t-28.5 23q7 187 7 334q0 114 -17 293q2 5 10 11t12 6q20 0 44.5 -12.5t24.5 -24.5q0 -1 -2.5 -28t-5 -65t-2.5 -66z" />
<glyph unicode="&#x1f3e;" horiz-adv-x="593" d="M127 567q24 0 41 -19.5t17 -42.5q0 -30 -20 -50.5t-37 -26t-27 -5.5q-26 0 -26 12q26 2 44 16t18 32q0 6 -2.5 11t-7.5 8.5t-9.5 6.5t-11.5 5.5t-11 3.5t-11 3t-8 2q-5 2 -5 8q0 14 18 25t38 11zM90 665q23 0 61 -23q38 -24 58 -24q16 0 28 8.5t19.5 19t8.5 11.5 q6 0 6 -9q0 -17 -14 -38q-27 -37 -62 -37q-24 0 -60 22q-40 25 -59 25q-16 0 -27 -8.5t-17 -19t-8 -11.5q-8 0 -8 11q0 19 12 37q27 36 62 36zM382 468q0 -190 1 -250q1 -56 6.5 -129t11.5 -88q-12 -17 -25 -17q-8 0 -36.5 13t-28.5 23q7 187 7 334q0 114 -17 293q2 5 10 11 t12 6q20 0 44.5 -12.5t24.5 -24.5q0 -1 -2.5 -28t-5 -65t-2.5 -66z" />
<glyph unicode="&#x1f3f;" horiz-adv-x="589" d="M129 567q20 0 38 -11t18 -25q0 -6 -5 -8q-1 0 -8 -2t-11 -3t-11 -3.5t-11.5 -5.5t-9.5 -6.5t-7.5 -8.5t-2.5 -11q0 -18 18 -32t44 -16q0 -12 -26 -12q-10 0 -27 5.5t-37 26t-20 50.5q0 23 17 42.5t41 19.5zM90 665q23 0 61 -23q38 -24 58 -24q16 0 28 8.5t19.5 19 t8.5 11.5q6 0 6 -9q0 -17 -14 -38q-27 -37 -62 -37q-24 0 -60 22q-40 25 -59 25q-16 0 -27 -8.5t-17 -19t-8 -11.5q-8 0 -8 11q0 19 12 37q27 36 62 36zM382 468q0 -190 1 -250q1 -56 6.5 -129t11.5 -88q-12 -17 -25 -17q-8 0 -36.5 13t-28.5 23q7 187 7 334q0 114 -17 293 q2 5 10 11t12 6q20 0 44.5 -12.5t24.5 -24.5q0 -1 -2.5 -28t-5 -65t-2.5 -66z" />
<glyph unicode="&#x1f40;" horiz-adv-x="465" d="M217 687q23 0 43 -24.5t20 -53.5q0 -32 -12.5 -55.5t-30.5 -34t-31 -15t-19 -4.5q-4 0 -8 4t-4 9q24 6 39 22t15 34q0 16 -7.5 31t-14 21.5t-20 17t-14.5 11.5q-3 2 -3 5q0 9 17 20.5t30 11.5zM96 189q0 -68 34 -102t83 -34q68 0 111 54t43 136q0 62 -32.5 97t-85.5 35 q-67 0 -110 -55.5t-43 -130.5zM41 221q0 98 50.5 157t133.5 59q85 0 142 -70.5t57 -165.5q0 -88 -51.5 -148t-133.5 -60q-91 0 -144.5 68t-53.5 160z" />
<glyph unicode="&#x1f41;" horiz-adv-x="465" d="M233 687q13 0 30 -11.5t17 -20.5q0 -3 -3 -5q-1 -1 -14.5 -11.5t-20 -17t-14 -21.5t-7.5 -31q0 -18 15 -34t39 -22q0 -5 -4 -9t-8 -4q-6 0 -19 4.5t-31 15t-30.5 34t-12.5 55.5q0 29 20 53.5t43 24.5zM96 189q0 -68 34 -102t83 -34q68 0 111 54t43 136q0 62 -32.5 97 t-85.5 35q-67 0 -110 -55.5t-43 -130.5zM41 221q0 98 50.5 157t133.5 59q85 0 142 -70.5t57 -165.5q0 -88 -51.5 -148t-133.5 -60q-91 0 -144.5 68t-53.5 160z" />
<glyph unicode="&#x1f42;" horiz-adv-x="465" d="M128 690q29 0 51.5 -28t22.5 -65q0 -31 -16.5 -55t-32.5 -33t-23 -9q-10 0 -13 10q41 21 41 57q0 44 -73 76q-4 2 -4 6q0 11 16.5 26t30.5 15zM254 711q13 0 28 -8.5t18 -16.5q13 -38 27.5 -102.5t14.5 -74.5q0 -3 -4.5 -6t-7.5 -3h-3q-10 4 -54.5 79.5t-44.5 108.5 q0 23 26 23zM96 189q0 -68 34 -102t83 -34q68 0 111 54t43 136q0 62 -32.5 97t-85.5 35q-67 0 -110 -55.5t-43 -130.5zM41 221q0 98 50.5 157t133.5 59q85 0 142 -70.5t57 -165.5q0 -88 -51.5 -148t-133.5 -60q-91 0 -144.5 68t-53.5 160z" />
<glyph unicode="&#x1f43;" horiz-adv-x="465" d="M255 711q13 0 28 -8.5t18 -16.5q13 -38 27.5 -102.5t14.5 -74.5q0 -3 -4.5 -6t-7.5 -3h-3q-10 4 -54.5 79.5t-44.5 108.5q0 23 26 23zM151 677q12 3 31 -5.5t21 -16.5q0 -3 -1 -5q-2 -3 -10 -12t-12 -14.5t-10.5 -17.5t-6.5 -21.5t1 -25.5q4 -17 22.5 -29.5t42.5 -13.5 q1 -5 -2 -10t-7 -6q-3 -3 -19 0t-34 8.5t-36 26.5t-25 52q-6 28 8 56.5t37 33.5zM96 189q0 -68 34 -102t83 -34q68 0 111 54t43 136q0 62 -32.5 97t-85.5 35q-67 0 -110 -55.5t-43 -130.5zM41 221q0 98 50.5 157t133.5 59q85 0 142 -70.5t57 -165.5q0 -88 -51.5 -148 t-133.5 -60q-91 0 -144.5 68t-53.5 160z" />
<glyph unicode="&#x1f44;" horiz-adv-x="465" d="M163 687q23 0 43 -24.5t20 -53.5q0 -32 -12.5 -55.5t-30.5 -34t-31 -15t-19 -4.5q-4 0 -8 4t-4 9q24 6 39 22t15 34q0 16 -7.5 31t-14 21.5t-20 17t-14.5 11.5q-3 2 -3 5q0 9 17 20.5t30 11.5zM339 711q26 0 26 -23q0 -33 -44.5 -108.5t-54.5 -79.5h-3q-3 0 -7.5 3 t-4.5 6q0 10 14.5 74.5t27.5 102.5q3 8 18 16.5t28 8.5zM96 189q0 -68 34 -102t83 -34q68 0 111 54t43 136q0 62 -32.5 97t-85.5 35q-67 0 -110 -55.5t-43 -130.5zM41 221q0 98 50.5 157t133.5 59q85 0 142 -70.5t57 -165.5q0 -88 -51.5 -148t-133.5 -60q-91 0 -144.5 68 t-53.5 160z" />
<glyph unicode="&#x1f45;" horiz-adv-x="465" d="M339 711q26 0 26 -23q0 -33 -44.5 -108.5t-54.5 -79.5h-3q-3 0 -7.5 3t-4.5 6q0 10 14.5 74.5t27.5 102.5q3 8 18 16.5t28 8.5zM173 687q13 0 30 -11.5t17 -20.5q0 -3 -3 -5q-1 -1 -14.5 -11.5t-20 -17t-14 -21.5t-7.5 -31q0 -18 15 -34t39 -22q0 -5 -4 -9t-8 -4 q-6 0 -19 4.5t-31 15t-30.5 34t-12.5 55.5q0 29 20 53.5t43 24.5zM96 189q0 -68 34 -102t83 -34q68 0 111 54t43 136q0 62 -32.5 97t-85.5 35q-67 0 -110 -55.5t-43 -130.5zM41 221q0 98 50.5 157t133.5 59q85 0 142 -70.5t57 -165.5q0 -88 -51.5 -148t-133.5 -60 q-91 0 -144.5 68t-53.5 160z" />
<glyph unicode="&#x1f48;" horiz-adv-x="840" d="M70 667q23 0 43 -24.5t20 -53.5q0 -32 -12.5 -55.5t-30.5 -34t-31 -15t-19 -4.5q-4 0 -8 4t-4 9q24 6 39 22t15 34q0 16 -7.5 31t-14 21.5t-20 17t-14.5 11.5q-3 2 -3 5q0 9 17 20.5t30 11.5zM446 627q-69 0 -122 -48.5t-78 -119.5t-25 -150q0 -111 57 -195.5t154 -84.5 q68 0 122.5 46.5t82.5 116.5t28 147q0 114 -59.5 201t-159.5 87zM441 667q130 0 221 -97t91 -251q0 -139 -92 -234t-220 -95q-130 0 -219 94.5t-89 252.5q0 139 90.5 234.5t217.5 95.5z" />
<glyph unicode="&#x1f49;" horiz-adv-x="845" d="M87 667q13 0 30 -11.5t17 -20.5q0 -3 -3 -5q-1 -1 -14.5 -11.5t-20 -17t-14 -21.5t-7.5 -31q0 -18 15 -34t39 -22q0 -5 -4 -9t-8 -4q-6 0 -19 4.5t-31 15t-30.5 34t-12.5 55.5q0 29 20 53.5t43 24.5zM457 627q-69 0 -122 -48.5t-78 -119.5t-25 -150q0 -111 57 -195.5 t154 -84.5q68 0 122.5 46.5t82.5 116.5t28 147q0 114 -59.5 201t-159.5 87zM452 667q130 0 221 -97t91 -251q0 -139 -92 -234t-220 -95q-130 0 -219 94.5t-89 252.5q0 139 90.5 234.5t217.5 95.5z" />
<glyph unicode="&#x1f4a;" horiz-adv-x="983" d="M51 646q29 0 51.5 -28t22.5 -65q0 -31 -16.5 -55t-32.5 -33t-23 -9q-10 0 -13 10q41 21 41 57q0 44 -73 76q-4 2 -4 6q0 11 16.5 26t30.5 15zM177 667q13 0 28 -8.5t18 -16.5q13 -38 27.5 -102.5t14.5 -74.5q0 -3 -4.5 -6t-7.5 -3h-3q-10 4 -54.5 79.5t-44.5 108.5 q0 23 26 23zM597 627q-69 0 -122 -48.5t-78 -119.5t-25 -150q0 -111 57 -195.5t154 -84.5q68 0 122.5 46.5t82.5 116.5t28 147q0 114 -59.5 201t-159.5 87zM592 667q130 0 221 -97t91 -251q0 -139 -92 -234t-220 -95q-130 0 -219 94.5t-89 252.5q0 139 90.5 234.5 t217.5 95.5z" />
<glyph unicode="&#x1f4b;" horiz-adv-x="955" d="M158 667q13 0 28 -8.5t18 -16.5q13 -38 27.5 -102.5t14.5 -74.5q0 -3 -4.5 -6t-7.5 -3h-3q-10 4 -54.5 79.5t-44.5 108.5q0 23 26 23zM54 633q12 3 31 -5.5t21 -16.5q0 -3 -1 -5q-2 -3 -10 -12t-12 -14.5t-10.5 -17.5t-6.5 -21.5t1 -25.5q4 -17 22.5 -29.5t42.5 -13.5 q1 -5 -2 -10t-7 -6q-3 -3 -19 0t-34 8.5t-36 26.5t-25 52q-6 28 8 56.5t37 33.5zM580 627q-69 0 -122 -48.5t-78 -119.5t-25 -150q0 -111 57 -195.5t154 -84.5q68 0 122.5 46.5t82.5 116.5t28 147q0 114 -59.5 201t-159.5 87zM575 667q130 0 221 -97t91 -251 q0 -139 -92 -234t-220 -95q-130 0 -219 94.5t-89 252.5q0 139 90.5 234.5t217.5 95.5z" />
<glyph unicode="&#x1f4c;" horiz-adv-x="941" d="M64 643q23 0 43 -24.5t20 -53.5q0 -32 -12.5 -55.5t-30.5 -34t-31 -15t-19 -4.5q-4 0 -8 4t-4 9q24 6 39 22t15 34q0 16 -7.5 31t-14 21.5t-20 17t-14.5 11.5q-3 2 -3 5q0 9 17 20.5t30 11.5zM240 667q26 0 26 -23q0 -33 -44.5 -108.5t-54.5 -79.5h-3q-3 0 -7.5 3t-4.5 6 q0 10 14.5 74.5t27.5 102.5q3 8 18 16.5t28 8.5zM549 627q-69 0 -122 -48.5t-78 -119.5t-25 -150q0 -111 57 -195.5t154 -84.5q68 0 122.5 46.5t82.5 116.5t28 147q0 114 -59.5 201t-159.5 87zM544 667q130 0 221 -97t91 -251q0 -139 -92 -234t-220 -95q-130 0 -219 94.5 t-89 252.5q0 139 90.5 234.5t217.5 95.5z" />
<glyph unicode="&#x1f4d;" horiz-adv-x="943" d="M238 667q26 0 26 -23q0 -33 -44.5 -108.5t-54.5 -79.5h-3q-3 0 -7.5 3t-4.5 6q0 10 14.5 74.5t27.5 102.5q3 8 18 16.5t28 8.5zM72 643q13 0 30 -11.5t17 -20.5q0 -3 -3 -5q-1 -1 -14.5 -11.5t-20 -17t-14 -21.5t-7.5 -31q0 -18 15 -34t39 -22q0 -5 -4 -9t-8 -4 q-6 0 -19 4.5t-31 15t-30.5 34t-12.5 55.5q0 29 20 53.5t43 24.5zM548 627q-69 0 -122 -48.5t-78 -119.5t-25 -150q0 -111 57 -195.5t154 -84.5q68 0 122.5 46.5t82.5 116.5t28 147q0 114 -59.5 201t-159.5 87zM543 667q130 0 221 -97t91 -251q0 -139 -92 -234t-220 -95 q-130 0 -219 94.5t-89 252.5q0 139 90.5 234.5t217.5 95.5z" />
<glyph unicode="&#x1f50;" horiz-adv-x="406" d="M179 687q23 0 43 -24.5t20 -53.5q0 -32 -12.5 -55.5t-30.5 -34t-31 -15t-19 -4.5q-4 0 -8 4t-4 9q24 6 39 22t15 34q0 16 -7.5 31t-14 21.5t-20 17t-14.5 11.5q-3 2 -3 5q0 9 17 20.5t30 11.5zM35 410q-2 2 -2 12t4 10q26 0 65 -28t39 -82q0 -13 -27 -79t-27 -102 q0 -83 82 -83q49 0 95 52t46 156q0 51 -18.5 93t-39.5 65q0 6 7 10q7 0 34 -17.5t32 -25.5q40 -59 40 -170q0 -105 -48.5 -166t-129.5 -61q-60 0 -107 51.5t-47 134.5q0 32 18.5 91.5t18.5 84.5q0 32 -35 54z" />
<glyph unicode="&#x1f51;" horiz-adv-x="406" d="M198 687q13 0 30 -11.5t17 -20.5q0 -3 -3 -5q-1 -1 -14.5 -11.5t-20 -17t-14 -21.5t-7.5 -31q0 -18 15 -34t39 -22q0 -5 -4 -9t-8 -4q-6 0 -19 4.5t-31 15t-30.5 34t-12.5 55.5q0 29 20 53.5t43 24.5zM35 410q-2 2 -2 12t4 10q26 0 65 -28t39 -82q0 -13 -27 -79t-27 -102 q0 -83 82 -83q49 0 95 52t46 156q0 51 -18.5 93t-39.5 65q0 6 7 10q7 0 34 -17.5t32 -25.5q40 -59 40 -170q0 -105 -48.5 -166t-129.5 -61q-60 0 -107 51.5t-47 134.5q0 32 18.5 91.5t18.5 84.5q0 32 -35 54z" />
<glyph unicode="&#x1f52;" horiz-adv-x="406" d="M77 690q29 0 51.5 -28t22.5 -65q0 -31 -16.5 -55t-32.5 -33t-23 -9q-10 0 -13 10q41 21 41 57q0 44 -73 76q-4 2 -4 6q0 11 16.5 26t30.5 15zM203 711q13 0 28 -8.5t18 -16.5q13 -38 27.5 -102.5t14.5 -74.5q0 -3 -4.5 -6t-7.5 -3h-3q-10 4 -54.5 79.5t-44.5 108.5 q0 23 26 23zM35 410q-2 2 -2 12t4 10q26 0 65 -28t39 -82q0 -13 -27 -79t-27 -102q0 -83 82 -83q49 0 95 52t46 156q0 51 -18.5 93t-39.5 65q0 6 7 10q7 0 34 -17.5t32 -25.5q40 -59 40 -170q0 -105 -48.5 -166t-129.5 -61q-60 0 -107 51.5t-47 134.5q0 32 18.5 91.5 t18.5 84.5q0 32 -35 54z" />
<glyph unicode="&#x1f53;" horiz-adv-x="406" d="M202 711q13 0 28 -8.5t18 -16.5q13 -38 27.5 -102.5t14.5 -74.5q0 -3 -4.5 -6t-7.5 -3h-3q-10 4 -54.5 79.5t-44.5 108.5q0 23 26 23zM98 677q12 3 31 -5.5t21 -16.5q0 -3 -1 -5q-2 -3 -10 -12t-12 -14.5t-10.5 -17.5t-6.5 -21.5t1 -25.5q4 -17 22.5 -29.5t42.5 -13.5 q1 -5 -2 -10t-7 -6q-3 -3 -19 0t-34 8.5t-36 26.5t-25 52q-6 28 8.5 56.5t36.5 33.5zM35 410q-2 2 -2 12t4 10q26 0 65 -28t39 -82q0 -13 -27 -79t-27 -102q0 -83 82 -83q49 0 95 52t46 156q0 51 -18.5 93t-39.5 65q0 6 7 10q7 0 34 -17.5t32 -25.5q40 -59 40 -170 q0 -105 -48.5 -166t-129.5 -61q-60 0 -107 51.5t-47 134.5q0 32 18.5 91.5t18.5 84.5q0 32 -35 54z" />
<glyph unicode="&#x1f54;" horiz-adv-x="406" d="M128 687q23 0 43 -24.5t20 -53.5q0 -32 -12.5 -55.5t-30.5 -34t-31 -15t-19 -4.5q-4 0 -8 4t-4 9q24 6 39 22t15 34q0 16 -7.5 31t-14 21.5t-20 17t-14.5 11.5q-3 2 -3 5q0 9 17 20.5t30 11.5zM304 711q26 0 26 -23q0 -33 -44.5 -108.5t-54.5 -79.5h-3q-3 0 -7.5 3 t-4.5 6q0 10 14.5 74.5t27.5 102.5q3 8 18 16.5t28 8.5zM35 410q-2 2 -2 12t4 10q26 0 65 -28t39 -82q0 -13 -27 -79t-27 -102q0 -83 82 -83q49 0 95 52t46 156q0 51 -18.5 93t-39.5 65q0 6 7 10q7 0 34 -17.5t32 -25.5q40 -59 40 -170q0 -105 -48.5 -166t-129.5 -61 q-60 0 -107 51.5t-47 134.5q0 32 18.5 91.5t18.5 84.5q0 32 -35 54z" />
<glyph unicode="&#x1f55;" horiz-adv-x="406" d="M305 711q26 0 26 -23q0 -33 -44.5 -108.5t-54.5 -79.5h-3q-3 0 -7.5 3t-4.5 6q0 10 14.5 74.5t27.5 102.5q3 8 18 16.5t28 8.5zM139 687q13 0 30 -11.5t17 -20.5q0 -3 -3 -5q-1 -1 -14.5 -11.5t-20 -17t-14 -21.5t-7.5 -31q0 -18 15 -34t39 -22q0 -5 -4 -9t-8 -4 q-6 0 -19 4.5t-31 15t-30.5 34t-12.5 55.5q0 29 20 53.5t43 24.5zM35 410q-2 2 -2 12t4 10q26 0 65 -28t39 -82q0 -13 -27 -79t-27 -102q0 -83 82 -83q49 0 95 52t46 156q0 51 -18.5 93t-39.5 65q0 6 7 10q7 0 34 -17.5t32 -25.5q40 -59 40 -170q0 -105 -48.5 -166 t-129.5 -61q-60 0 -107 51.5t-47 134.5q0 32 18.5 91.5t18.5 84.5q0 32 -35 54z" />
<glyph unicode="&#x1f56;" horiz-adv-x="406" d="M182 644q24 0 41 -19.5t17 -42.5q0 -30 -20 -50.5t-37 -26t-27 -5.5q-26 0 -26 12q26 2 44 16t18 32q0 6 -2.5 11t-7.5 8.5t-9.5 6.5t-11.5 5.5t-11 3.5t-11 3t-8 2q-5 2 -5 8q0 14 18 25t38 11zM145 742q23 0 61 -23q38 -24 58 -24q16 0 28 8.5t19.5 19t8.5 11.5 q6 0 6 -9q0 -17 -14 -38q-27 -37 -62 -37q-24 0 -60 22q-40 25 -59 25q-16 0 -27 -8.5t-17 -19t-8 -11.5q-8 0 -8 11q0 19 12 37q27 36 62 36zM35 410q-2 2 -2 12t4 10q26 0 65 -28t39 -82q0 -13 -27 -79t-27 -102q0 -83 82 -83q49 0 95 52t46 156q0 51 -18.5 93t-39.5 65 q0 6 7 10q7 0 34 -17.5t32 -25.5q40 -59 40 -170q0 -105 -48.5 -166t-129.5 -61q-60 0 -107 51.5t-47 134.5q0 32 18.5 91.5t18.5 84.5q0 32 -35 54z" />
<glyph unicode="&#x1f57;" horiz-adv-x="406" d="M183 644q20 0 38 -11t18 -25q0 -6 -5 -8q-1 0 -8 -2t-11 -3t-11 -3.5t-11.5 -5.5t-9.5 -6.5t-7.5 -8.5t-2.5 -11q0 -18 18 -32t44 -16q0 -12 -26 -12q-10 0 -27 5.5t-37 26t-20 50.5q0 23 17 42.5t41 19.5zM144 742q23 0 61 -23q38 -24 58 -24q16 0 28 8.5t19.5 19 t8.5 11.5q6 0 6 -9q0 -17 -14 -38q-27 -37 -62 -37q-24 0 -60 22q-40 25 -59 25q-16 0 -27 -8.5t-17 -19t-8 -11.5q-8 0 -8 11q0 19 12 37q27 36 62 36zM35 410q-2 2 -2 12t4 10q26 0 65 -28t39 -82q0 -13 -27 -79t-27 -102q0 -83 82 -83q49 0 95 52t46 156q0 51 -18.5 93 t-39.5 65q0 6 7 10q7 0 34 -17.5t32 -25.5q40 -59 40 -170q0 -105 -48.5 -166t-129.5 -61q-60 0 -107 51.5t-47 134.5q0 32 18.5 91.5t18.5 84.5q0 32 -35 54z" />
<glyph unicode="&#x1f59;" horiz-adv-x="717" d="M69 667q13 0 30 -11.5t17 -20.5q0 -3 -3 -5q-1 -1 -14.5 -11.5t-20 -17t-14 -21.5t-7.5 -31q0 -18 15 -34t39 -22q0 -5 -4 -9t-8 -4q-6 0 -19 4.5t-31 15t-30.5 34t-12.5 55.5q0 29 20 53.5t43 24.5zM703 624q-92 -55 -174.5 -213.5t-82.5 -226.5q0 -144 15 -183 q-12 -17 -25 -17q-8 0 -35.5 13t-27.5 23q0 49 12 160q1 3 2 10t1 10q-96 391 -181 391q-36 0 -56 -26q-4 0 -11 12q-3 6 -3 11q10 33 36 56.5t52 23.5q24 0 51 -37.5t50.5 -97t43.5 -125.5t34 -131q32 114 95 223t126 163q5 3 37.5 -6.5t34.5 -11.5q10 -10 6 -21z" />
<glyph unicode="&#x1f5b;" horiz-adv-x="816" d="M160 667q13 0 28 -8.5t18 -16.5q13 -38 27.5 -102.5t14.5 -74.5q0 -3 -4.5 -6t-7.5 -3h-3q-10 4 -54.5 79.5t-44.5 108.5q0 23 26 23zM56 633q12 3 31 -5.5t21 -16.5q0 -3 -1 -5q-2 -3 -10 -12t-12 -14.5t-10.5 -17.5t-6.5 -21.5t1 -25.5q4 -17 22.5 -29.5t42.5 -13.5 q1 -5 -2 -10t-7 -6q-3 -3 -19 0t-34 8.5t-36 26.5t-25 52q-6 28 8 56.5t37 33.5zM829 624q-92 -55 -174.5 -213.5t-82.5 -226.5q0 -144 15 -183q-12 -17 -25 -17q-8 0 -35.5 13t-27.5 23q0 49 12 160q1 3 2 10t1 10q-96 391 -181 391q-36 0 -56 -26q-4 0 -11 12q-3 6 -3 11 q10 33 36 56.5t52 23.5q24 0 51 -37.5t50.5 -97t43.5 -125.5t34 -131q32 114 95 223t126 163q5 3 37.5 -6.5t34.5 -11.5q10 -10 6 -21z" />
<glyph unicode="&#x1f5d;" horiz-adv-x="864" d="M239 667q26 0 26 -23q0 -33 -44.5 -108.5t-54.5 -79.5h-3q-3 0 -7.5 3t-4.5 6q0 10 14.5 74.5t27.5 102.5q3 8 18 16.5t28 8.5zM73 643q13 0 30 -11.5t17 -20.5q0 -3 -3 -5q-1 -1 -14.5 -11.5t-20 -17t-14 -21.5t-7.5 -31q0 -18 15 -34t39 -22q0 -5 -4 -9t-8 -4 q-6 0 -19 4.5t-31 15t-30.5 34t-12.5 55.5q0 29 20 53.5t43 24.5zM853 624q-92 -55 -174.5 -213.5t-82.5 -226.5q0 -144 15 -183q-12 -17 -25 -17q-8 0 -35.5 13t-27.5 23q0 49 12 160q1 3 2 10t1 10q-96 391 -181 391q-36 0 -56 -26q-4 0 -11 12q-3 6 -3 11q10 33 36 56.5 t52 23.5q24 0 51 -37.5t50.5 -97t43.5 -125.5t34 -131q32 114 95 223t126 163q5 3 37.5 -6.5t34.5 -11.5q10 -10 6 -21z" />
<glyph unicode="&#x1f5f;" horiz-adv-x="841" d="M126 567q20 0 38 -11t18 -25q0 -6 -5 -8q-1 0 -8 -2t-11 -3t-11 -3.5t-11.5 -5.5t-9.5 -6.5t-7.5 -8.5t-2.5 -11q0 -18 18 -32t44 -16q0 -12 -26 -12q-10 0 -27 5.5t-37 26t-20 50.5q0 23 17 42.5t41 19.5zM87 665q23 0 61 -23q38 -24 58 -24q16 0 28 8.5t19.5 19 t8.5 11.5q6 0 6 -9q0 -17 -14 -38q-27 -37 -62 -37q-24 0 -60 22q-40 25 -59 25q-16 0 -27 -8.5t-17 -19t-8 -11.5q-8 0 -8 11q0 19 12 37q27 36 62 36zM854 624q-92 -55 -174.5 -213.5t-82.5 -226.5q0 -144 15 -183q-12 -17 -25 -17q-8 0 -35.5 13t-27.5 23q0 49 12 160 q0 3 1 10t2 10q-96 391 -181 391q-36 0 -56 -26q-4 0 -11 12q-3 6 -3 11q10 33 36 56.5t52 23.5q24 0 51 -37.5t50.5 -97t43.5 -125.5t34 -131q32 114 95 223t126 163q5 3 37.5 -6.5t34.5 -11.5q10 -10 6 -21z" />
<glyph unicode="&#x1f60;" horiz-adv-x="597" d="M292 687q23 0 43 -24.5t20 -53.5q0 -32 -12.5 -55.5t-30.5 -34t-31 -15t-19 -4.5q-4 0 -8 4t-4 9q24 6 39 22t15 34q0 16 -7.5 31t-14 21.5t-20 17t-14.5 11.5q-3 2 -3 5q0 9 17 20.5t30 11.5zM401 61q47 0 72 42.5t25 99.5q0 77 -40.5 138.5t-76.5 83.5q0 9 5 9 q28 -2 44 -12q39 -29 82.5 -103.5t43.5 -148.5q0 -84 -41 -129.5t-99 -45.5q-43 0 -74.5 31t-40.5 64q-37 -96 -121 -96q-64 0 -101.5 52.5t-37.5 127.5q0 99 34.5 167.5t68.5 93.5q13 0 30 -13q22 -18 22 -36q0 -2 -15 -15q-36 -30 -67.5 -94t-31.5 -121q0 -44 19 -73.5 t57 -29.5q52 0 77 44.5t25 106.5q0 47 -4 69q7 15 17 15t30.5 -13.5t22.5 -20.5q0 -9 -3.5 -53t-3.5 -60q0 -24 22.5 -52t59.5 -28z" />
<glyph unicode="&#x1f61;" horiz-adv-x="597" d="M296 687q13 0 30 -11.5t17 -20.5q0 -3 -3 -5q-1 -1 -14.5 -11.5t-20 -17t-14 -21.5t-7.5 -31q0 -18 15 -34t39 -22q0 -5 -4 -9t-8 -4q-6 0 -19 4.5t-31 15t-30.5 34t-12.5 55.5q0 29 20 53.5t43 24.5zM401 61q47 0 72 42.5t25 99.5q0 77 -40.5 138.5t-76.5 83.5q0 9 5 9 q28 -2 44 -12q39 -29 82.5 -103.5t43.5 -148.5q0 -84 -41 -129.5t-99 -45.5q-43 0 -74.5 31t-40.5 64q-37 -96 -121 -96q-64 0 -101.5 52.5t-37.5 127.5q0 99 34.5 167.5t68.5 93.5q13 0 30 -13q22 -18 22 -36q0 -2 -15 -15q-36 -30 -67.5 -94t-31.5 -121q0 -44 19 -73.5 t57 -29.5q52 0 77 44.5t25 106.5q0 47 -4 69q7 15 17 15t30.5 -13.5t22.5 -20.5q0 -9 -3.5 -53t-3.5 -60q0 -24 22.5 -52t59.5 -28z" />
<glyph unicode="&#x1f62;" horiz-adv-x="597" d="M187 690q29 0 51.5 -28t22.5 -65q0 -31 -16.5 -55t-32.5 -33t-23 -9q-10 0 -13 10q41 21 41 57q0 44 -73 76q-4 2 -4 6q0 11 16.5 26t30.5 15zM313 711q13 0 28 -8.5t18 -16.5q13 -38 27.5 -102.5t14.5 -74.5q0 -3 -4.5 -6t-7.5 -3h-3q-10 4 -54.5 79.5t-44.5 108.5 q0 23 26 23zM401 61q47 0 72 42.5t25 99.5q0 77 -40.5 138.5t-76.5 83.5q0 9 5 9q28 -2 44 -12q39 -29 82.5 -103.5t43.5 -148.5q0 -84 -41 -129.5t-99 -45.5q-43 0 -74.5 31t-40.5 64q-37 -96 -121 -96q-64 0 -101.5 52.5t-37.5 127.5q0 99 34.5 167.5t68.5 93.5 q13 0 30 -13q22 -18 22 -36q0 -2 -15 -15q-36 -30 -67.5 -94t-31.5 -121q0 -44 19 -73.5t57 -29.5q52 0 77 44.5t25 106.5q0 47 -4 69q7 15 17 15t30.5 -13.5t22.5 -20.5q0 -9 -3.5 -53t-3.5 -60q0 -24 22.5 -52t59.5 -28z" />
<glyph unicode="&#x1f63;" horiz-adv-x="597" d="M316 711q13 0 28 -8.5t18 -16.5q13 -38 27.5 -102.5t14.5 -74.5q0 -3 -4.5 -6t-7.5 -3h-3q-10 4 -54.5 79.5t-44.5 108.5q0 23 26 23zM212 677q12 3 31 -5.5t21 -16.5q0 -3 -1 -5q-2 -3 -10 -12t-12 -14.5t-10.5 -17.5t-6.5 -21.5t1 -25.5q4 -17 22.5 -29.5t42.5 -13.5 q1 -5 -2 -10t-7 -6q-3 -3 -19 0t-34 8.5t-36 26.5t-25 52q-6 28 8.5 56.5t36.5 33.5zM401 61q47 0 72 42.5t25 99.5q0 77 -40.5 138.5t-76.5 83.5q0 9 5 9q28 -2 44 -12q39 -29 82.5 -103.5t43.5 -148.5q0 -84 -41 -129.5t-99 -45.5q-43 0 -74.5 31t-40.5 64 q-37 -96 -121 -96q-64 0 -101.5 52.5t-37.5 127.5q0 99 34.5 167.5t68.5 93.5q13 0 30 -13q22 -18 22 -36q0 -2 -15 -15q-36 -30 -67.5 -94t-31.5 -121q0 -44 19 -73.5t57 -29.5q52 0 77 44.5t25 106.5q0 47 -4 69q7 15 17 15t30.5 -13.5t22.5 -20.5q0 -9 -3.5 -53t-3.5 -60 q0 -24 22.5 -52t59.5 -28z" />
<glyph unicode="&#x1f64;" horiz-adv-x="597" d="M247 687q23 0 43 -24.5t20 -53.5q0 -32 -12.5 -55.5t-30.5 -34t-31 -15t-19 -4.5q-4 0 -8 4t-4 9q24 6 39 22t15 34q0 16 -7.5 31t-14 21.5t-20 17t-14.5 11.5q-3 2 -3 5q0 9 17 20.5t30 11.5zM423 711q26 0 26 -23q0 -33 -44.5 -108.5t-54.5 -79.5h-3q-3 0 -7.5 3 t-4.5 6q0 10 14.5 74.5t27.5 102.5q3 8 18 16.5t28 8.5zM401 61q47 0 72 42.5t25 99.5q0 77 -40.5 138.5t-76.5 83.5q0 9 5 9q28 -2 44 -12q39 -29 82.5 -103.5t43.5 -148.5q0 -84 -41 -129.5t-99 -45.5q-43 0 -74.5 31t-40.5 64q-37 -96 -121 -96q-64 0 -101.5 52.5 t-37.5 127.5q0 99 34.5 167.5t68.5 93.5q13 0 30 -13q22 -18 22 -36q0 -2 -15 -15q-36 -30 -67.5 -94t-31.5 -121q0 -44 19 -73.5t57 -29.5q52 0 77 44.5t25 106.5q0 47 -4 69q7 15 17 15t30.5 -13.5t22.5 -20.5q0 -9 -3.5 -53t-3.5 -60q0 -24 22.5 -52t59.5 -28z" />
<glyph unicode="&#x1f65;" horiz-adv-x="597" d="M422 711q26 0 26 -23q0 -33 -44.5 -108.5t-54.5 -79.5h-3q-3 0 -7.5 3t-4.5 6q0 10 14.5 74.5t27.5 102.5q3 8 18 16.5t28 8.5zM256 687q13 0 30 -11.5t17 -20.5q0 -3 -3 -5q-1 -1 -14.5 -11.5t-20 -17t-14 -21.5t-7.5 -31q0 -18 15 -34t39 -22q0 -5 -4 -9t-8 -4 q-6 0 -19 4.5t-31 15t-30.5 34t-12.5 55.5q0 29 20 53.5t43 24.5zM401 61q47 0 72 42.5t25 99.5q0 77 -40.5 138.5t-76.5 83.5q0 9 5 9q28 -2 44 -12q39 -29 82.5 -103.5t43.5 -148.5q0 -84 -41 -129.5t-99 -45.5q-43 0 -74.5 31t-40.5 64q-37 -96 -121 -96 q-64 0 -101.5 52.5t-37.5 127.5q0 99 34.5 167.5t68.5 93.5q13 0 30 -13q22 -18 22 -36q0 -2 -15 -15q-36 -30 -67.5 -94t-31.5 -121q0 -44 19 -73.5t57 -29.5q52 0 77 44.5t25 106.5q0 47 -4 69q7 15 17 15t30.5 -13.5t22.5 -20.5q0 -9 -3.5 -53t-3.5 -60q0 -24 22.5 -52 t59.5 -28z" />
<glyph unicode="&#x1f66;" horiz-adv-x="597" d="M284 644q24 0 41 -19.5t17 -42.5q0 -30 -20 -50.5t-37 -26t-27 -5.5q-26 0 -26 12q26 2 44 16t18 32q0 6 -2.5 11t-7.5 8.5t-9.5 6.5t-11.5 5.5t-11 3.5t-11 3t-8 2q-5 2 -5 8q0 14 18 25t38 11zM247 742q23 0 61 -23q38 -24 58 -24q16 0 28 8.5t19.5 19t8.5 11.5 q6 0 6 -9q0 -17 -14 -38q-27 -37 -62 -37q-24 0 -60 22q-40 25 -59 25q-16 0 -27 -8.5t-17 -19t-8 -11.5q-8 0 -8 11q0 19 12 37q27 36 62 36zM401 61q47 0 72 42.5t25 99.5q0 77 -40.5 138.5t-76.5 83.5q0 9 5 9q28 -2 44 -12q39 -29 82.5 -103.5t43.5 -148.5 q0 -84 -41 -129.5t-99 -45.5q-43 0 -74.5 31t-40.5 64q-37 -96 -121 -96q-64 0 -101.5 52.5t-37.5 127.5q0 99 34.5 167.5t68.5 93.5q13 0 30 -13q22 -18 22 -36q0 -2 -15 -15q-36 -30 -67.5 -94t-31.5 -121q0 -44 19 -73.5t57 -29.5q52 0 77 44.5t25 106.5q0 47 -4 69 q7 15 17 15t30.5 -13.5t22.5 -20.5q0 -9 -3.5 -53t-3.5 -60q0 -24 22.5 -52t59.5 -28z" />
<glyph unicode="&#x1f67;" horiz-adv-x="597" d="M274 644q20 0 38 -11t18 -25q0 -6 -5 -8q-1 0 -8 -2t-11 -3t-11 -3.5t-11.5 -5.5t-9.5 -6.5t-7.5 -8.5t-2.5 -11q0 -18 18 -32t44 -16q0 -12 -26 -12q-10 0 -27 5.5t-37 26t-20 50.5q0 23 17 42.5t41 19.5zM235 742q23 0 61 -23q38 -24 58 -24q16 0 28 8.5t19.5 19 t8.5 11.5q6 0 6 -9q0 -17 -14 -38q-27 -37 -62 -37q-24 0 -60 22q-40 25 -59 25q-16 0 -27 -8.5t-17 -19t-8 -11.5q-8 0 -8 11q0 19 12 37q27 36 62 36zM401 61q47 0 72 42.5t25 99.5q0 77 -40.5 138.5t-76.5 83.5q0 9 5 9q28 -2 44 -12q39 -29 82.5 -103.5t43.5 -148.5 q0 -84 -41 -129.5t-99 -45.5q-43 0 -74.5 31t-40.5 64q-37 -96 -121 -96q-64 0 -101.5 52.5t-37.5 127.5q0 99 34.5 167.5t68.5 93.5q13 0 30 -13q22 -18 22 -36q0 -2 -15 -15q-36 -30 -67.5 -94t-31.5 -121q0 -44 19 -73.5t57 -29.5q52 0 77 44.5t25 106.5q0 47 -4 69 q7 15 17 15t30.5 -13.5t22.5 -20.5q0 -9 -3.5 -53t-3.5 -60q0 -24 22.5 -52t59.5 -28z" />
<glyph unicode="&#x1f68;" horiz-adv-x="907" d="M83 667q23 0 43 -24.5t20 -53.5q0 -32 -12.5 -55.5t-30.5 -34t-31 -15t-19 -4.5q-4 0 -8 4t-4 9q24 6 39 22t15 34q0 16 -7.5 31t-14 21.5t-20 17t-14.5 11.5q-3 2 -3 5q0 9 17 20.5t30 11.5zM440 667q129 0 216 -96t87 -236q0 -89 -48 -161.5t-127 -113.5q14 -6 73 -6 q61 0 124 43q10 0 10 -15q-5 -12 -16.5 -28t-39 -35t-59.5 -19h-129q-22 31 -22 51q0 10 11 24q135 88 135 274q0 126 -58.5 202t-147.5 76q-53 0 -96 -28t-68 -71.5t-38.5 -91.5t-13.5 -93q0 -108 38 -175.5t96 -97.5q31 -39 31 -51t-24 -19h-175q-9 4 -37.5 30t-33.5 34 q4 11 19 11q7 -2 24 -8.5t32 -10t34 -4.5q15 -1 34 0.5t30 3.5l11 1q-72 31 -119.5 115t-47.5 181q0 131 87 222.5t208 91.5z" />
<glyph unicode="&#x1f69;" horiz-adv-x="916" d="M99 667q13 0 30 -11.5t17 -20.5q0 -3 -3 -5q-1 -1 -14.5 -11.5t-20 -17t-14 -21.5t-7.5 -31q0 -18 15 -34t39 -22q0 -5 -4 -9t-8 -4q-6 0 -19 4.5t-31 15t-30.5 34t-12.5 55.5q0 29 20 53.5t43 24.5zM459 667q129 0 216 -96t87 -236q0 -89 -48 -161.5t-127 -113.5 q14 -6 73 -6q61 0 124 43q10 0 10 -15q-5 -12 -16.5 -28t-39 -35t-59.5 -19h-129q-22 31 -22 51q0 10 11 24q135 88 135 274q0 126 -58.5 202t-147.5 76q-53 0 -96 -28t-68 -71.5t-38.5 -91.5t-13.5 -93q0 -108 38 -175.5t96 -97.5q31 -39 31 -51t-24 -19h-175 q-9 4 -37.5 30t-33.5 34q4 11 19 11q7 -2 24 -8.5t32 -10t34 -4.5q15 -1 34 0.5t30 3.5l11 1q-72 31 -119.5 115t-47.5 181q0 131 87 222.5t208 91.5z" />
<glyph unicode="&#x1f6a;" horiz-adv-x="1028" d="M53 646q29 0 51.5 -28t22.5 -65q0 -31 -16.5 -55t-32.5 -33t-23 -9q-10 0 -13 10q41 21 41 57q0 44 -73 76q-4 2 -4 6q0 11 16.5 26t30.5 15zM179 667q13 0 28 -8.5t18 -16.5q13 -38 27.5 -102.5t14.5 -74.5q0 -3 -4.5 -6t-7.5 -3h-3q-10 4 -54.5 79.5t-44.5 108.5 q0 23 26 23zM587 667q129 0 216 -96t87 -236q0 -89 -48 -161.5t-127 -113.5q14 -6 73 -6q61 0 124 43q10 0 10 -15q-5 -12 -16.5 -28t-39 -35t-59.5 -19h-129q-22 31 -22 51q0 10 11 24q135 88 135 274q0 126 -58.5 202t-147.5 76q-53 0 -96 -28t-68 -71.5t-38.5 -91.5 t-13.5 -93q0 -108 38 -175.5t96 -97.5q31 -39 31 -51t-24 -19h-175q-9 4 -37.5 30t-33.5 34q4 11 19 11q7 -2 24 -8.5t32 -10t34 -4.5q15 -1 34 0.5t30 3.5l11 1q-72 31 -119.5 115t-47.5 181q0 131 87 222.5t208 91.5z" />
<glyph unicode="&#x1f6b;" horiz-adv-x="1026" d="M161 667q13 0 28 -8.5t18 -16.5q13 -38 27.5 -102.5t14.5 -74.5q0 -3 -4.5 -6t-7.5 -3h-3q-10 4 -54.5 79.5t-44.5 108.5q0 23 26 23zM57 633q12 3 31 -5.5t21 -16.5q0 -3 -1 -5q-2 -3 -10 -12t-12 -14.5t-10.5 -17.5t-6.5 -21.5t1 -25.5q4 -17 22.5 -29.5t42.5 -13.5 q1 -5 -2 -10t-7 -6q-3 -3 -19 0t-34 8.5t-36 26.5t-25 52q-6 28 8.5 56.5t36.5 33.5zM568 667q129 0 216 -96t87 -236q0 -89 -48 -161.5t-127 -113.5q14 -6 73 -6q61 0 124 43q10 0 10 -15q-5 -12 -16.5 -28t-39 -35t-59.5 -19h-129q-22 31 -22 51q0 10 11 24 q135 88 135 274q0 126 -58.5 202t-147.5 76q-53 0 -96 -28t-68 -71.5t-38.5 -91.5t-13.5 -93q0 -108 38 -175.5t96 -97.5q31 -39 31 -51t-24 -19h-175q-9 4 -37.5 30t-33.5 34q4 11 19 11q7 -2 24 -8.5t32 -10t34 -4.5q15 -1 34 0.5t30 3.5l11 1q-72 31 -119.5 115 t-47.5 181q0 131 87 222.5t208 91.5z" />
<glyph unicode="&#x1f6c;" horiz-adv-x="980" d="M68 643q23 0 43 -24.5t20 -53.5q0 -32 -12.5 -55.5t-30.5 -34t-31 -15t-19 -4.5q-4 0 -8 4t-4 9q24 6 39 22t15 34q0 16 -7.5 31t-14 21.5t-20 17t-14.5 11.5q-3 2 -3 5q0 9 17 20.5t30 11.5zM244 667q26 0 26 -23q0 -33 -44.5 -108.5t-54.5 -79.5h-3q-3 0 -7.5 3t-4.5 6 q0 10 14.5 74.5t27.5 102.5q3 8 18 16.5t28 8.5zM541 667q129 0 216 -96t87 -236q0 -89 -48 -161.5t-127 -113.5q14 -6 73 -6q61 0 124 43q10 0 10 -15q-5 -12 -16.5 -28t-39 -35t-59.5 -19h-129q-22 31 -22 51q0 10 11 24q135 88 135 274q0 126 -58.5 202t-147.5 76 q-53 0 -96 -28t-68 -71.5t-38.5 -91.5t-13.5 -93q0 -108 38 -175.5t96 -97.5q31 -39 31 -51t-24 -19h-175q-9 4 -37.5 30t-33.5 34q4 11 19 11q7 -2 24 -8.5t32 -10t34 -4.5q15 -1 34 0.5t30 3.5l11 1q-72 31 -119.5 115t-47.5 181q0 131 87 222.5t208 91.5z" />
<glyph unicode="&#x1f6d;" horiz-adv-x="984" d="M242 667q26 0 26 -23q0 -33 -44.5 -108.5t-54.5 -79.5h-3q-3 0 -7.5 3t-4.5 6q0 10 14.5 74.5t27.5 102.5q3 8 18 16.5t28 8.5zM76 643q13 0 30 -11.5t17 -20.5q0 -3 -3 -5q-1 -1 -14.5 -11.5t-20 -17t-14 -21.5t-7.5 -31q0 -18 15 -34t39 -22q0 -5 -4 -9t-8 -4 q-6 0 -19 4.5t-31 15t-30.5 34t-12.5 55.5q0 29 20 53.5t43 24.5zM541 667q129 0 216 -96t87 -236q0 -89 -48 -161.5t-127 -113.5q14 -6 73 -6q61 0 124 43q10 0 10 -15q-5 -12 -16.5 -28t-39 -35t-59.5 -19h-129q-22 31 -22 51q0 10 11 24q135 88 135 274q0 126 -58.5 202 t-147.5 76q-53 0 -96 -28t-68 -71.5t-38.5 -91.5t-13.5 -93q0 -108 38 -175.5t96 -97.5q31 -39 31 -51t-24 -19h-175q-9 4 -37.5 30t-33.5 34q4 11 19 11q7 -2 24 -8.5t32 -10t34 -4.5q15 -1 34 0.5t30 3.5l11 1q-72 31 -119.5 115t-47.5 181q0 131 87 222.5t208 91.5z" />
<glyph unicode="&#x1f6e;" horiz-adv-x="961" d="M132 567q24 0 41 -19.5t17 -42.5q0 -30 -20 -50.5t-37 -26t-27 -5.5q-26 0 -26 12q26 2 44 16t18 32q0 6 -2.5 11t-7.5 8.5t-9.5 6.5t-11.5 5.5t-11 3.5t-11 3t-8 2q-5 2 -5 8q0 14 18 25t38 11zM95 665q23 0 61 -23q38 -24 58 -24q16 0 28 8.5t19.5 19t8.5 11.5 q6 0 6 -9q0 -17 -14 -38q-27 -37 -62 -37q-24 0 -60 22q-40 25 -59 25q-16 0 -27 -8.5t-17 -19t-8 -11.5q-8 0 -8 11q0 19 12 37q27 36 62 36zM526 667q129 0 216 -96t87 -236q0 -89 -48 -161.5t-127 -113.5q14 -6 73 -6q61 0 124 43q10 0 10 -15q-5 -12 -16.5 -28t-39 -35 t-59.5 -19h-129q-22 31 -22 51q0 10 11 24q135 88 135 274q0 126 -58.5 202t-147.5 76q-53 0 -96 -28t-68 -71.5t-38.5 -91.5t-13.5 -93q0 -108 38 -175.5t96 -97.5q31 -39 31 -51t-24 -19h-175q-9 4 -37.5 30t-33.5 34q4 11 19 11q7 -2 24 -8.5t32 -10t34 -4.5 q15 -1 34 0.5t30 3.5l11 1q-72 31 -119.5 115t-47.5 181q0 131 87 222.5t208 91.5z" />
<glyph unicode="&#x1f6f;" horiz-adv-x="968" d="M134 567q20 0 38 -11t18 -25q0 -6 -5 -8q-1 0 -8 -2t-11 -3t-11 -3.5t-11.5 -5.5t-9.5 -6.5t-7.5 -8.5t-2.5 -11q0 -18 18 -32t44 -16q0 -12 -26 -12q-10 0 -27 5.5t-37 26t-20 50.5q0 23 17 42.5t41 19.5zM95 665q23 0 61 -23q38 -24 58 -24q16 0 28 8.5t19.5 19 t8.5 11.5q6 0 6 -9q0 -17 -14 -38q-27 -37 -62 -37q-24 0 -60 22q-40 25 -59 25q-16 0 -27 -8.5t-17 -19t-8 -11.5q-8 0 -8 11q0 19 12 37q27 36 62 36zM526 667q129 0 216 -96t87 -236q0 -89 -48 -161.5t-127 -113.5q14 -6 73 -6q61 0 124 43q10 0 10 -15q-5 -12 -16.5 -28 t-39 -35t-59.5 -19h-129q-22 31 -22 51q0 10 11 24q135 88 135 274q0 126 -58.5 202t-147.5 76q-53 0 -96 -28t-68 -71.5t-38.5 -91.5t-13.5 -93q0 -108 38 -175.5t96 -97.5q31 -39 31 -51t-24 -19h-175q-9 4 -37.5 30t-33.5 34q4 11 19 11q7 -2 24 -8.5t32 -10t34 -4.5 q15 -1 34 0.5t30 3.5l11 1q-72 31 -119.5 115t-47.5 181q0 131 87 222.5t208 91.5z" />
<glyph unicode="&#x1f70;" d="M177 711q13 0 28 -8.5t18 -16.5q13 -38 27.5 -102.5t14.5 -74.5q0 -3 -4.5 -6t-7.5 -3h-3q-10 4 -54.5 79.5t-44.5 108.5q0 23 26 23zM330 133q7 -38 20 -49.5t35 -11.5q23 0 48 17t30 28q5 -2 9 -10t4 -13q0 -16 -23.5 -56.5t-55.5 -40.5q-31 0 -58 34t-31 72 q-49 -70 -69 -87q-30 -25 -68 -25q-61 0 -95.5 44t-34.5 128q0 31 10 74t29.5 89.5t55.5 78.5t81 32q40 0 74.5 -46t34.5 -112q12 29 24 61t22 60t13 36q15 0 35.5 -17.5t20.5 -36.5q0 -36 -38 -116q-11 -22 -29 -55.5t-31 -55.5zM235 369q-37 0 -69 -42t-48.5 -100 t-16.5 -112q0 -43 13 -64t31 -21q32 0 69 41t59.5 85.5t22.5 62.5q0 34 -2 57.5t-8 46.5t-19 34.5t-32 11.5z" />
<glyph unicode="&#x1f71;" d="M272 711q26 0 26 -23q0 -33 -44.5 -108.5t-54.5 -79.5h-3q-3 0 -7.5 3t-4.5 6q0 10 14.5 74.5t27.5 102.5q3 8 18 16.5t28 8.5zM326 133q7 -38 20 -49.5t35 -11.5q23 0 48 17t30 28q5 -2 9 -10t4 -13q0 -16 -23.5 -56.5t-55.5 -40.5q-31 0 -58 34t-31 72q-49 -70 -69 -87 q-30 -25 -68 -25q-61 0 -95.5 44t-34.5 128q0 31 10 74t29.5 89.5t55.5 78.5t81 32q40 0 74.5 -46t34.5 -112q12 29 24 61t22 60t13 36q15 0 35.5 -17.5t20.5 -36.5q0 -36 -38 -116q-11 -22 -29 -55.5t-31 -55.5zM231 369q-37 0 -69 -42t-48.5 -100t-16.5 -112q0 -43 13 -64 t31 -21q32 0 69 41t59.5 85.5t22.5 62.5q0 34 -2 57.5t-8 46.5t-19 34.5t-32 11.5z" />
<glyph unicode="&#x1f72;" horiz-adv-x="349" d="M135 709q13 0 28 -8.5t18 -16.5q13 -38 27.5 -102.5t14.5 -74.5q0 -3 -4.5 -6t-7.5 -3h-3q-10 4 -54.5 79.5t-44.5 108.5q0 23 26 23zM293 363q-28 11 -62 11q-134 0 -134 -79q0 -21 16.5 -38.5t30.5 -18.5q51 22 75 22q12 0 18 -4q23 -21 23 -41q0 -17 -8 -17 q-62 0 -116.5 -23.5t-54.5 -65.5q0 -29 21.5 -42t52.5 -13q85 0 164 56q6 0 6 -8q0 -11 -4 -25q-14 -31 -51.5 -56.5t-90.5 -25.5q-60 0 -98 32.5t-38 84.5q0 67 67 106q-26 10 -42.5 36.5t-16.5 53.5q0 55 37.5 91t89.5 36q39 0 70.5 -14.5t45.5 -30.5q6 -18 -1 -27z" />
<glyph unicode="&#x1f73;" horiz-adv-x="349" d="M239 711q26 0 26 -23q0 -33 -44.5 -108.5t-54.5 -79.5h-3q-3 0 -7.5 3t-4.5 6q0 10 14.5 74.5t27.5 102.5q3 8 18 16.5t28 8.5zM293 363q-28 11 -62 11q-134 0 -134 -79q0 -21 16.5 -38.5t30.5 -18.5q51 22 75 22q12 0 18 -4q23 -21 23 -41q0 -17 -8 -17 q-62 0 -116.5 -23.5t-54.5 -65.5q0 -29 21.5 -42t52.5 -13q85 0 164 56q6 0 6 -8q0 -11 -4 -25q-14 -31 -51.5 -56.5t-90.5 -25.5q-60 0 -98 32.5t-38 84.5q0 67 67 106q-26 10 -42.5 36.5t-16.5 53.5q0 55 37.5 91t89.5 36q39 0 70.5 -14.5t45.5 -30.5q6 -18 -1 -27z" />
<glyph unicode="&#x1f74;" horiz-adv-x="488" d="M208 712q13 0 28 -8.5t18 -16.5q13 -38 27.5 -102.5t14.5 -74.5q0 -3 -4.5 -6t-7.5 -3h-3q-10 4 -54.5 79.5t-44.5 108.5q0 23 26 23zM26 332q-4 0 -8.5 7.5t-4.5 13.5q10 33 36.5 56.5t56.5 23.5q22 0 37.5 -22t21 -46t11.5 -64q60 139 140 139q43 0 69.5 -41t31.5 -109 q3 -43 4.5 -157.5t5 -210.5t13.5 -131q-11 -18 -25 -18q-9 0 -36.5 17t-26.5 28q1 18 8.5 100.5t13 175.5t5.5 172q0 45 -13.5 71t-39.5 26q-40 0 -76.5 -52t-58.5 -121v-54v-122q-13 -20 -24 -20q-9 0 -32.5 14t-23.5 23q0 35 26 157l14 59q0 115 -68 115q-17 0 -33.5 -10 t-23.5 -20z" />
<glyph unicode="&#x1f75;" horiz-adv-x="488" d="M347 711q26 0 26 -23q0 -33 -44.5 -108.5t-54.5 -79.5h-3q-3 0 -7.5 3t-4.5 6q0 10 14.5 74.5t27.5 102.5q3 8 18 16.5t28 8.5zM26 332q-4 0 -8.5 7.5t-4.5 13.5q10 33 36.5 56.5t56.5 23.5q22 0 37.5 -22t21 -46t11.5 -64q60 139 140 139q43 0 69.5 -41t31.5 -109 q3 -43 4.5 -157.5t5 -210.5t13.5 -131q-11 -18 -25 -18q-9 0 -36.5 17t-26.5 28q1 18 8.5 100.5t13 175.5t5.5 172q0 45 -13.5 71t-39.5 26q-40 0 -76.5 -52t-58.5 -121v-54v-122q-13 -20 -24 -20q-9 0 -32.5 14t-23.5 23q0 35 26 157l14 59q0 115 -68 115q-17 0 -33.5 -10 t-23.5 -20z" />
<glyph unicode="&#x1f76;" horiz-adv-x="227" d="M61 711q13 0 28 -8.5t18 -16.5q13 -38 27.5 -102.5t14.5 -74.5q0 -3 -4.5 -6t-7.5 -3h-3q-10 4 -54.5 79.5t-44.5 108.5q0 23 26 23zM126 -3q-59 0 -59 92v327q12 17 25 17q7 0 30 -15.5t23 -25.5q-3 -36 -8.5 -95.5t-8 -102.5t-2.5 -88q0 -49 48 -49q19 0 28 5 q7 -6 7 -14q-5 -12 -30 -31.5t-53 -19.5z" />
<glyph unicode="&#x1f77;" horiz-adv-x="227" d="M158 711q26 0 26 -23q0 -33 -44.5 -108.5t-54.5 -79.5h-3q-3 0 -7.5 3t-4.5 6q0 10 14.5 74.5t27.5 102.5q3 8 18 16.5t28 8.5zM133 -3q-59 0 -59 92v327q12 17 25 17q7 0 30 -15.5t23 -25.5q-3 -36 -8.5 -95.5t-8 -102.5t-2.5 -88q0 -49 48 -49q19 0 28 5q7 -6 7 -14 q-5 -12 -30 -31.5t-53 -19.5z" />
<glyph unicode="&#x1f78;" horiz-adv-x="465" d="M162 711q13 0 28 -8.5t18 -16.5q13 -38 27.5 -102.5t14.5 -74.5q0 -3 -4.5 -6t-7.5 -3h-3q-10 4 -54.5 79.5t-44.5 108.5q0 23 26 23zM96 189q0 -68 34 -102t83 -34q68 0 111 54t43 136q0 62 -32.5 97t-85.5 35q-67 0 -110 -55.5t-43 -130.5zM41 221q0 98 50.5 157 t133.5 59q85 0 142 -70.5t57 -165.5q0 -88 -51.5 -148t-133.5 -60q-91 0 -144.5 68t-53.5 160z" />
<glyph unicode="&#x1f79;" horiz-adv-x="465" d="M278 711q26 0 26 -23q0 -33 -44.5 -108.5t-54.5 -79.5h-3q-3 0 -7.5 3t-4.5 6q0 10 14.5 74.5t27.5 102.5q3 8 18 16.5t28 8.5zM96 189q0 -68 34 -102t83 -34q68 0 111 54t43 136q0 62 -32.5 97t-85.5 35q-67 0 -110 -55.5t-43 -130.5zM41 221q0 98 50.5 157t133.5 59 q85 0 142 -70.5t57 -165.5q0 -88 -51.5 -148t-133.5 -60q-91 0 -144.5 68t-53.5 160z" />
<glyph unicode="&#x1f7a;" horiz-adv-x="406" d="M122 711q13 0 28 -8.5t18 -16.5q13 -38 27.5 -102.5t14.5 -74.5q0 -3 -4.5 -6t-7.5 -3h-3q-10 4 -54.5 79.5t-44.5 108.5q0 23 26 23zM35 410q-2 2 -2 12t4 10q26 0 65 -28t39 -82q0 -13 -27 -79t-27 -102q0 -83 82 -83q49 0 95 52t46 156q0 51 -18.5 93t-39.5 65 q0 6 7 10q7 0 34 -17.5t32 -25.5q40 -59 40 -170q0 -105 -48.5 -166t-129.5 -61q-60 0 -107 51.5t-47 134.5q0 32 18.5 91.5t18.5 84.5q0 32 -35 54z" />
<glyph unicode="&#x1f7b;" horiz-adv-x="406" d="M244 711q26 0 26 -23q0 -33 -44.5 -108.5t-54.5 -79.5h-3q-3 0 -7.5 3t-4.5 6q0 10 14.5 74.5t27.5 102.5q3 8 18 16.5t28 8.5zM35 410q-2 2 -2 12t4 10q26 0 65 -28t39 -82q0 -13 -27 -79t-27 -102q0 -83 82 -83q49 0 95 52t46 156q0 51 -18.5 93t-39.5 65q0 6 7 10 q7 0 34 -17.5t32 -25.5q40 -59 40 -170q0 -105 -48.5 -166t-129.5 -61q-60 0 -107 51.5t-47 134.5q0 32 18.5 91.5t18.5 84.5q0 32 -35 54z" />
<glyph unicode="&#x1f7c;" horiz-adv-x="597" d="M223 711q13 0 28 -8.5t18 -16.5q13 -38 27.5 -102.5t14.5 -74.5q0 -3 -4.5 -6t-7.5 -3h-3q-10 4 -54.5 79.5t-44.5 108.5q0 23 26 23zM401 61q47 0 72 42.5t25 99.5q0 77 -40.5 138.5t-76.5 83.5q0 9 5 9q28 -2 44 -12q39 -29 82.5 -103.5t43.5 -148.5q0 -84 -41 -129.5 t-99 -45.5q-43 0 -74.5 31t-40.5 64q-37 -96 -121 -96q-64 0 -101.5 52.5t-37.5 127.5q0 99 34.5 167.5t68.5 93.5q13 0 30 -13q22 -18 22 -36q0 -2 -15 -15q-36 -30 -67.5 -94t-31.5 -121q0 -44 19 -73.5t57 -29.5q52 0 77 44.5t25 106.5q0 47 -4 69q7 15 17 15t30.5 -13.5 t22.5 -20.5q0 -9 -3.5 -53t-3.5 -60q0 -24 22.5 -52t59.5 -28z" />
<glyph unicode="&#x1f7d;" horiz-adv-x="597" d="M347 711q26 0 26 -23q0 -33 -44.5 -108.5t-54.5 -79.5h-3q-3 0 -7.5 3t-4.5 6q0 10 14.5 74.5t27.5 102.5q3 8 18 16.5t28 8.5zM401 61q47 0 72 42.5t25 99.5q0 77 -40.5 138.5t-76.5 83.5q0 9 5 9q28 -2 44 -12q39 -29 82.5 -103.5t43.5 -148.5q0 -84 -41 -129.5 t-99 -45.5q-43 0 -74.5 31t-40.5 64q-37 -96 -121 -96q-64 0 -101.5 52.5t-37.5 127.5q0 99 34.5 167.5t68.5 93.5q13 0 30 -13q22 -18 22 -36q0 -2 -15 -15q-36 -30 -67.5 -94t-31.5 -121q0 -44 19 -73.5t57 -29.5q52 0 77 44.5t25 106.5q0 47 -4 69q7 15 17 15t30.5 -13.5 t22.5 -20.5q0 -9 -3.5 -53t-3.5 -60q0 -24 22.5 -52t59.5 -28z" />
<glyph unicode="&#x1f80;" d="M205 -38q10 0 27.5 -8.5t17.5 -16.5v-36q0 -26 15 -36t33 -10q19 0 28 5q7 -4 7 -14q-8 -16 -32.5 -33.5t-49.5 -17.5q-60 0 -60 90v65q0 3 5.5 7.5t8.5 4.5zM214 687q23 0 43 -24.5t20 -53.5q0 -32 -12.5 -55.5t-30.5 -34t-31 -15t-19 -4.5q-4 0 -8 4t-4 9q24 6 39 22 t15 34q0 16 -7.5 31t-14 21.5t-20 17t-14.5 11.5q-3 2 -3 5q0 9 17 20.5t30 11.5zM330 133q7 -38 20 -49.5t35 -11.5q23 0 48 17t30 28q5 -2 9 -10t4 -13q0 -16 -23.5 -56.5t-55.5 -40.5q-31 0 -58 34t-31 72q-49 -70 -69 -87q-30 -25 -68 -25q-61 0 -95.5 44t-34.5 128 q0 31 10 74t29.5 89.5t55.5 78.5t81 32q40 0 74.5 -46t34.5 -112q12 29 24 61t22 60t13 36q15 0 35.5 -17.5t20.5 -36.5q0 -36 -38 -116q-11 -22 -29 -55.5t-31 -55.5zM235 369q-37 0 -69 -42t-48.5 -100t-16.5 -112q0 -43 13 -64t31 -21q32 0 69 41t59.5 85.5t22.5 62.5 q0 34 -2 57.5t-8 46.5t-19 34.5t-32 11.5z" />
<glyph unicode="&#x1f81;" d="M205 -38q10 0 27.5 -8.5t17.5 -16.5v-36q0 -26 15 -36t33 -10q19 0 28 5q7 -4 7 -14q-8 -16 -32.5 -33.5t-49.5 -17.5q-60 0 -60 90v65q0 3 5.5 7.5t8.5 4.5zM225 687q13 0 30 -11.5t17 -20.5q0 -3 -3 -5q-1 -1 -14.5 -11.5t-20 -17t-14 -21.5t-7.5 -31q0 -18 15 -34 t39 -22q0 -5 -4 -9t-8 -4q-6 0 -19 4.5t-31 15t-30.5 34t-12.5 55.5q0 29 20 53.5t43 24.5zM330 133q7 -38 20 -49.5t35 -11.5q23 0 48 17t30 28q5 -2 9 -10t4 -13q0 -16 -23.5 -56.5t-55.5 -40.5q-31 0 -58 34t-31 72q-49 -70 -69 -87q-30 -25 -68 -25q-61 0 -95.5 44 t-34.5 128q0 31 10 74t29.5 89.5t55.5 78.5t81 32q40 0 74.5 -46t34.5 -112q12 29 24 61t22 60t13 36q15 0 35.5 -17.5t20.5 -36.5q0 -36 -38 -116q-11 -22 -29 -55.5t-31 -55.5zM235 369q-37 0 -69 -42t-48.5 -100t-16.5 -112q0 -43 13 -64t31 -21q32 0 69 41t59.5 85.5 t22.5 62.5q0 34 -2 57.5t-8 46.5t-19 34.5t-32 11.5z" />
<glyph unicode="&#x1f82;" d="M205 -38q10 0 27.5 -8.5t17.5 -16.5v-36q0 -26 15 -36t33 -10q19 0 28 5q7 -4 7 -14q-8 -16 -32.5 -33.5t-49.5 -17.5q-60 0 -60 90v65q0 3 5.5 7.5t8.5 4.5zM136 690q29 0 51.5 -28t22.5 -65q0 -31 -16.5 -55t-32.5 -33t-23 -9q-10 0 -13 10q41 21 41 57q0 44 -73 76 q-4 2 -4 6q0 11 16.5 26t30.5 15zM262 711q13 0 28 -8.5t18 -16.5q13 -38 27.5 -102.5t14.5 -74.5q0 -3 -4.5 -6t-7.5 -3h-3q-10 4 -54.5 79.5t-44.5 108.5q0 23 26 23zM330 133q7 -38 20 -49.5t35 -11.5q23 0 48 17t30 28q5 -2 9 -10t4 -13q0 -16 -23.5 -56.5t-55.5 -40.5 q-31 0 -58 34t-31 72q-49 -70 -69 -87q-30 -25 -68 -25q-61 0 -95.5 44t-34.5 128q0 31 10 74t29.5 89.5t55.5 78.5t81 32q40 0 74.5 -46t34.5 -112q12 29 24 61t22 60t13 36q15 0 35.5 -17.5t20.5 -36.5q0 -36 -38 -116q-11 -22 -29 -55.5t-31 -55.5zM235 369 q-37 0 -69 -42t-48.5 -100t-16.5 -112q0 -43 13 -64t31 -21q32 0 69 41t59.5 85.5t22.5 62.5q0 34 -2 57.5t-8 46.5t-19 34.5t-32 11.5z" />
<glyph unicode="&#x1f83;" d="M205 -38q10 0 27.5 -8.5t17.5 -16.5v-36q0 -26 15 -36t33 -10q19 0 28 5q7 -4 7 -14q-8 -16 -32.5 -33.5t-49.5 -17.5q-60 0 -60 90v65q0 3 5.5 7.5t8.5 4.5zM250 711q13 0 28 -8.5t18 -16.5q13 -38 27.5 -102.5t14.5 -74.5q0 -3 -4.5 -6t-7.5 -3h-3q-10 4 -54.5 79.5 t-44.5 108.5q0 23 26 23zM146 677q12 3 31 -5.5t21 -16.5q0 -3 -1 -5q-2 -3 -10 -12t-12 -14.5t-10.5 -17.5t-6.5 -21.5t1 -25.5q4 -17 22.5 -29.5t42.5 -13.5q1 -5 -2 -10t-7 -6q-3 -3 -19 0t-34 8.5t-36 26.5t-25 52q-6 28 8 56.5t37 33.5zM330 133q7 -38 20 -49.5 t35 -11.5q23 0 48 17t30 28q5 -2 9 -10t4 -13q0 -16 -23.5 -56.5t-55.5 -40.5q-31 0 -58 34t-31 72q-49 -70 -69 -87q-30 -25 -68 -25q-61 0 -95.5 44t-34.5 128q0 31 10 74t29.5 89.5t55.5 78.5t81 32q40 0 74.5 -46t34.5 -112q12 29 24 61t22 60t13 36q15 0 35.5 -17.5 t20.5 -36.5q0 -36 -38 -116q-11 -22 -29 -55.5t-31 -55.5zM235 369q-37 0 -69 -42t-48.5 -100t-16.5 -112q0 -43 13 -64t31 -21q32 0 69 41t59.5 85.5t22.5 62.5q0 34 -2 57.5t-8 46.5t-19 34.5t-32 11.5z" />
<glyph unicode="&#x1f84;" d="M205 -38q10 0 27.5 -8.5t17.5 -16.5v-36q0 -26 15 -36t33 -10q19 0 28 5q7 -4 7 -14q-8 -16 -32.5 -33.5t-49.5 -17.5q-60 0 -60 90v65q0 3 5.5 7.5t8.5 4.5zM142 687q23 0 43 -24.5t20 -53.5q0 -32 -12.5 -55.5t-30.5 -34t-31 -15t-19 -4.5q-4 0 -8 4t-4 9q24 6 39 22 t15 34q0 16 -7.5 31t-14 21.5t-20 17t-14.5 11.5q-3 2 -3 5q0 9 17 20.5t30 11.5zM318 711q26 0 26 -23q0 -33 -44.5 -108.5t-54.5 -79.5h-3q-3 0 -7.5 3t-4.5 6q0 10 14.5 74.5t27.5 102.5q3 8 18 16.5t28 8.5zM330 133q7 -38 20 -49.5t35 -11.5q23 0 48 17t30 28 q5 -2 9 -10t4 -13q0 -16 -23.5 -56.5t-55.5 -40.5q-31 0 -58 34t-31 72q-49 -70 -69 -87q-30 -25 -68 -25q-61 0 -95.5 44t-34.5 128q0 31 10 74t29.5 89.5t55.5 78.5t81 32q40 0 74.5 -46t34.5 -112q12 29 24 61t22 60t13 36q15 0 35.5 -17.5t20.5 -36.5q0 -36 -38 -116 q-11 -22 -29 -55.5t-31 -55.5zM235 369q-37 0 -69 -42t-48.5 -100t-16.5 -112q0 -43 13 -64t31 -21q32 0 69 41t59.5 85.5t22.5 62.5q0 34 -2 57.5t-8 46.5t-19 34.5t-32 11.5z" />
<glyph unicode="&#x1f85;" d="M205 -38q10 0 27.5 -8.5t17.5 -16.5v-36q0 -26 15 -36t33 -10q19 0 28 5q7 -4 7 -14q-8 -16 -32.5 -33.5t-49.5 -17.5q-60 0 -60 90v65q0 3 5.5 7.5t8.5 4.5zM321 711q26 0 26 -23q0 -33 -44.5 -108.5t-54.5 -79.5h-3q-3 0 -7.5 3t-4.5 6q0 10 14.5 74.5t27.5 102.5 q3 8 18 16.5t28 8.5zM155 687q13 0 30 -11.5t17 -20.5q0 -3 -3 -5q-1 -1 -14.5 -11.5t-20 -17t-14 -21.5t-7.5 -31q0 -18 15 -34t39 -22q0 -5 -4 -9t-8 -4q-6 0 -19 4.5t-31 15t-30.5 34t-12.5 55.5q0 29 20 53.5t43 24.5zM330 133q7 -38 20 -49.5t35 -11.5q23 0 48 17 t30 28q5 -2 9 -10t4 -13q0 -16 -23.5 -56.5t-55.5 -40.5q-31 0 -58 34t-31 72q-49 -70 -69 -87q-30 -25 -68 -25q-61 0 -95.5 44t-34.5 128q0 31 10 74t29.5 89.5t55.5 78.5t81 32q40 0 74.5 -46t34.5 -112q12 29 24 61t22 60t13 36q15 0 35.5 -17.5t20.5 -36.5 q0 -36 -38 -116q-11 -22 -29 -55.5t-31 -55.5zM235 369q-37 0 -69 -42t-48.5 -100t-16.5 -112q0 -43 13 -64t31 -21q32 0 69 41t59.5 85.5t22.5 62.5q0 34 -2 57.5t-8 46.5t-19 34.5t-32 11.5z" />
<glyph unicode="&#x1f86;" d="M205 -38q10 0 27.5 -8.5t17.5 -16.5v-36q0 -26 15 -36t33 -10q19 0 28 5q7 -4 7 -14q-8 -16 -32.5 -33.5t-49.5 -17.5q-60 0 -60 90v65q0 3 5.5 7.5t8.5 4.5zM216 644q24 0 41 -19.5t17 -42.5q0 -30 -20 -50.5t-37 -26t-27 -5.5q-26 0 -26 12q26 2 44 16t18 32 q0 6 -2.5 11t-7.5 8.5t-9.5 6.5t-11.5 5.5t-11 3.5t-11 3t-8 2q-5 2 -5 8q0 14 18 25t38 11zM179 742q23 0 61 -23q38 -24 58 -24q16 0 28 8.5t19.5 19t8.5 11.5q6 0 6 -9q0 -17 -14 -38q-27 -37 -62 -37q-24 0 -60 22q-40 25 -59 25q-16 0 -27 -8.5t-17 -19t-8 -11.5 q-8 0 -8 11q0 19 12 37q27 36 62 36zM330 133q7 -38 20 -49.5t35 -11.5q23 0 48 17t30 28q5 -2 9 -10t4 -13q0 -16 -23.5 -56.5t-55.5 -40.5q-31 0 -58 34t-31 72q-49 -70 -69 -87q-30 -25 -68 -25q-61 0 -95.5 44t-34.5 128q0 31 10 74t29.5 89.5t55.5 78.5t81 32 q40 0 74.5 -46t34.5 -112q12 29 24 61t22 60t13 36q15 0 35.5 -17.5t20.5 -36.5q0 -36 -38 -116q-11 -22 -29 -55.5t-31 -55.5zM235 369q-37 0 -69 -42t-48.5 -100t-16.5 -112q0 -43 13 -64t31 -21q32 0 69 41t59.5 85.5t22.5 62.5q0 34 -2 57.5t-8 46.5t-19 34.5t-32 11.5z " />
<glyph unicode="&#x1f87;" d="M205 -38q10 0 27.5 -8.5t17.5 -16.5v-36q0 -26 15 -36t33 -10q19 0 28 5q7 -4 7 -14q-8 -16 -32.5 -33.5t-49.5 -17.5q-60 0 -60 90v65q0 3 5.5 7.5t8.5 4.5zM218 644q20 0 38 -11t18 -25q0 -6 -5 -8q-1 0 -8 -2t-11 -3t-11 -3.5t-11.5 -5.5t-9.5 -6.5t-7.5 -8.5 t-2.5 -11q0 -18 18 -32t44 -16q0 -12 -26 -12q-10 0 -27 5.5t-37 26t-20 50.5q0 23 17 42.5t41 19.5zM179 742q23 0 61 -23q38 -24 58 -24q16 0 28 8.5t19.5 19t8.5 11.5q6 0 6 -9q0 -17 -14 -38q-27 -37 -62 -37q-24 0 -60 22q-40 25 -59 25q-16 0 -27 -8.5t-17 -19 t-8 -11.5q-8 0 -8 11q0 19 12 37q27 36 62 36zM330 133q7 -38 20 -49.5t35 -11.5q23 0 48 17t30 28q5 -2 9 -10t4 -13q0 -16 -23.5 -56.5t-55.5 -40.5q-31 0 -58 34t-31 72q-49 -70 -69 -87q-30 -25 -68 -25q-61 0 -95.5 44t-34.5 128q0 31 10 74t29.5 89.5t55.5 78.5t81 32 q40 0 74.5 -46t34.5 -112q12 29 24 61t22 60t13 36q15 0 35.5 -17.5t20.5 -36.5q0 -36 -38 -116q-11 -22 -29 -55.5t-31 -55.5zM235 369q-37 0 -69 -42t-48.5 -100t-16.5 -112q0 -43 13 -64t31 -21q32 0 69 41t59.5 85.5t22.5 62.5q0 34 -2 57.5t-8 46.5t-19 34.5t-32 11.5z " />
<glyph unicode="&#x1f88;" horiz-adv-x="640" d="M249 -38q10 0 27.5 -8.5t17.5 -16.5v-36q0 -26 15 -36t33 -10q19 0 28 5q7 -4 7 -14q-8 -16 -32.5 -33.5t-49.5 -17.5q-60 0 -60 90v65q0 3 5.5 7.5t8.5 4.5zM24 667q23 0 43 -24.5t20 -53.5q0 -32 -12.5 -55.5t-30.5 -34t-31 -15t-19 -4.5q-4 0 -8 4t-4 9q24 6 39 22 t15 34q0 16 -7.5 31t-14 21.5t-20 17t-14.5 11.5q-3 2 -3 5q0 9 17 20.5t30 11.5zM0 26q25 26 51 76.5t53.5 127.5t43.5 125.5t43 141t30 102.5q-20 24 -69 -2q-3 6 -3 16q5 17 29.5 35t45.5 18q42 0 74 -40q20 -24 37.5 -61t27 -63.5t27.5 -83t26 -79.5q92 -271 144 -335 q-1 -4 -4.5 -8t-6.5 -6l-3 -2q-62 7 -84 29q-21 40 -40.5 88t-29.5 79.5t-33 104.5l-199 -41l-71 -248q-1 -4 -7.5 -7t-11.5 -3q-59 21 -70 36zM176 303l175 11q-3 11 -17 56.5t-20 62t-17.5 49.5t-23 56t-24.5 44z" />
<glyph unicode="&#x1f89;" horiz-adv-x="654" d="M249 -38q10 0 27.5 -8.5t17.5 -16.5v-36q0 -26 15 -36t33 -10q19 0 28 5q7 -4 7 -14q-8 -16 -32.5 -33.5t-49.5 -17.5q-60 0 -60 90v65q0 3 5.5 7.5t8.5 4.5zM40 667q13 0 30 -11.5t17 -20.5q0 -3 -3 -5q-1 -1 -14.5 -11.5t-20 -17t-14 -21.5t-7.5 -31q0 -18 15 -34 t39 -22q0 -5 -4 -9t-8 -4q-6 0 -19 4.5t-31 15t-30.5 34t-12.5 55.5q0 29 20 53.5t43 24.5zM0 26q25 26 51 76.5t53.5 127.5t43.5 125.5t43 141t30 102.5q-20 24 -69 -2q-3 6 -3 16q5 17 29.5 35t45.5 18q42 0 74 -40q20 -24 37.5 -61t27 -63.5t27.5 -83t26 -79.5 q92 -271 144 -335q-1 -4 -4.5 -8t-6.5 -6l-3 -2q-62 7 -84 29q-21 40 -40.5 88t-29.5 79.5t-33 104.5l-199 -41l-71 -248q-1 -4 -7.5 -7t-11.5 -3q-59 21 -70 36zM176 303l175 11q-3 11 -17 56.5t-20 62t-17.5 49.5t-23 56t-24.5 44z" />
<glyph unicode="&#x1f8a;" horiz-adv-x="693" d="M249 -38q10 0 27.5 -8.5t17.5 -16.5v-36q0 -26 15 -36t33 -10q19 0 28 5q7 -4 7 -14q-8 -16 -32.5 -33.5t-49.5 -17.5q-60 0 -60 90v65q0 3 5.5 7.5t8.5 4.5zM-101 646q29 0 51.5 -28t22.5 -65q0 -31 -16.5 -55t-32.5 -33t-23 -9q-10 0 -13 10q41 21 41 57q0 44 -73 76 q-4 2 -4 6q0 11 16.5 26t30.5 15zM25 667q13 0 28 -8.5t18 -16.5q13 -38 27.5 -102.5t14.5 -74.5q0 -3 -4.5 -6t-7.5 -3h-3q-10 4 -54.5 79.5t-44.5 108.5q0 23 26 23zM0 26q25 26 51 76.5t53.5 127.5t43.5 125.5t43 141t30 102.5q-20 24 -69 -2q-3 6 -3 16q5 17 29.5 35 t45.5 18q42 0 74 -40q20 -24 37.5 -61t27 -63.5t27.5 -83t26 -79.5q92 -271 144 -335q-1 -4 -4.5 -8t-6.5 -6l-3 -2q-62 7 -84 29q-21 40 -40.5 88t-29.5 79.5t-33 104.5l-199 -41l-71 -248q-1 -4 -7.5 -7t-11.5 -3q-59 21 -70 36zM176 303l175 11q-3 11 -17 56.5t-20 62 t-17.5 49.5t-23 56t-24.5 44z" />
<glyph unicode="&#x1f8b;" horiz-adv-x="691" d="M249 -38q10 0 27.5 -8.5t17.5 -16.5v-36q0 -26 15 -36t33 -10q19 0 28 5q7 -4 7 -14q-8 -16 -32.5 -33.5t-49.5 -17.5q-60 0 -60 90v65q0 3 5.5 7.5t8.5 4.5zM0 26q25 26 51 76.5t53.5 127.5t43.5 125.5t43 141t30 102.5q-20 24 -69 -2q-3 6 -3 16q5 17 29.5 35t45.5 18 q42 0 74 -40q20 -24 37.5 -61t27 -63.5t27.5 -83t26 -79.5q92 -271 144 -335q-1 -4 -4.5 -8t-6.5 -6l-3 -2q-62 7 -84 29q-21 40 -40.5 88t-29.5 79.5t-33 104.5l-199 -41l-71 -248q-1 -4 -7.5 -7t-11.5 -3q-59 21 -70 36zM176 303l175 11q-3 11 -17 56.5t-20 62t-17.5 49.5 t-23 56t-24.5 44zM25 667q13 0 28 -8.5t18 -16.5q13 -38 27.5 -102.5t14.5 -74.5q0 -3 -4.5 -6t-7.5 -3h-3q-10 4 -54.5 79.5t-44.5 108.5q0 23 26 23zM-79 633q12 3 31 -5.5t21 -16.5q0 -3 -1 -5q-2 -3 -10 -12t-12 -14.5t-10.5 -17.5t-6.5 -21.5t1 -25.5q4 -17 22.5 -29.5 t42.5 -13.5q1 -5 -2 -10t-7 -6q-3 -3 -19 0t-34 8.5t-36 26.5t-25 52q-6 28 8 56.5t37 33.5z" />
<glyph unicode="&#x1f8c;" horiz-adv-x="687" d="M249 -38q10 0 27.5 -8.5t17.5 -16.5v-36q0 -26 15 -36t33 -10q19 0 28 5q7 -4 7 -14q-8 -16 -32.5 -33.5t-49.5 -17.5q-60 0 -60 90v65q0 3 5.5 7.5t8.5 4.5zM-83 646q23 0 43 -24.5t20 -53.5q0 -32 -12.5 -55.5t-30.5 -34t-31 -15t-19 -4.5q-4 0 -8 4t-4 9q24 6 39 22 t15 34q0 16 -7.5 31t-14 21.5t-20 17t-14.5 11.5q-3 1 -3 5q0 9 17 20.5t30 11.5zM93 670q26 0 26 -23q0 -33 -44.5 -108.5t-54.5 -79.5h-3q-3 0 -7.5 3t-4.5 6q0 10 14.5 74.5t27.5 102.5q3 8 18 16.5t28 8.5zM0 26q25 26 51 76.5t53.5 127.5t43.5 125.5t43 141t30 102.5 q-20 24 -69 -2q-3 6 -3 16q5 17 29.5 35t45.5 18q42 0 74 -40q20 -24 37.5 -61t27 -63.5t27.5 -83t26 -79.5q92 -271 144 -335q-1 -4 -4.5 -8t-6.5 -6l-3 -2q-62 7 -84 29q-21 40 -40.5 88t-29.5 79.5t-33 104.5l-199 -41l-71 -248q-1 -4 -7.5 -7t-11.5 -3q-59 21 -70 36z M176 303l175 11q-3 11 -17 56.5t-20 62t-17.5 49.5t-23 56t-24.5 44z" />
<glyph unicode="&#x1f8d;" horiz-adv-x="678" d="M249 -38q10 0 27.5 -8.5t17.5 -16.5v-36q0 -26 15 -36t33 -10q19 0 28 5q7 -4 7 -14q-8 -16 -32.5 -33.5t-49.5 -17.5q-60 0 -60 90v65q0 3 5.5 7.5t8.5 4.5zM0 26q25 26 51 76.5t53.5 127.5t43.5 125.5t43 141t30 102.5q-20 24 -69 -2q-3 6 -3 16q5 17 29.5 35t45.5 18 q42 0 74 -40q20 -24 37.5 -61t27 -63.5t27.5 -83t26 -79.5q92 -271 144 -335q-1 -4 -4.5 -8t-6.5 -6l-3 -2q-62 7 -84 29q-21 40 -40.5 88t-29.5 79.5t-33 104.5l-199 -41l-71 -248q-1 -4 -7.5 -7t-11.5 -3q-59 21 -70 36zM176 303l175 11q-3 11 -17 56.5t-20 62t-17.5 49.5 t-23 56t-24.5 44zM93 667q26 0 26 -23q0 -33 -44.5 -108.5t-54.5 -79.5h-3q-3 0 -7.5 3t-4.5 6q0 10 14.5 74.5t27.5 102.5q3 8 18 16.5t28 8.5zM-73 643q13 0 30 -11.5t17 -20.5q0 -3 -3 -5q-1 -1 -14.5 -11.5t-20 -17t-14 -21.5t-7.5 -31q0 -18 15 -34t39 -22q0 -5 -4 -9 t-8 -4q-6 0 -19 4.5t-31 15t-30.5 34t-12.5 55.5q0 29 20 53.5t43 24.5z" />
<glyph unicode="&#x1f8e;" horiz-adv-x="692" d="M249 -38q10 0 27.5 -8.5t17.5 -16.5v-36q0 -26 15 -36t33 -10q19 0 28 5q7 -4 7 -14q-8 -16 -32.5 -33.5t-49.5 -17.5q-60 0 -60 90v65q0 3 5.5 7.5t8.5 4.5zM-14 567q24 0 41 -19.5t17 -42.5q0 -30 -20 -50.5t-37 -26t-27 -5.5q-26 0 -26 12q26 2 44 16t18 32 q0 6 -2.5 11t-7.5 8.5t-9.5 6.5t-11.5 5.5t-11 3.5t-11 3t-8 2q-5 2 -5 8q0 14 18 25t38 11zM-51 665q23 0 61 -23q38 -24 58 -24q16 0 28 8.5t19.5 19t8.5 11.5q6 0 6 -9q0 -17 -14 -38q-27 -37 -62 -37q-24 0 -60 22q-40 25 -59 25q-16 0 -27 -8.5t-17 -19t-8 -11.5 q-8 0 -8 11q0 19 12 37q27 36 62 36zM0 26q25 26 51 76.5t53.5 127.5t43.5 125.5t43 141t30 102.5q-20 24 -69 -2q-3 6 -3 16q5 17 29.5 35t45.5 18q42 0 74 -40q20 -24 37.5 -61t27 -63.5t27.5 -83t26 -79.5q92 -271 144 -335q-1 -4 -4.5 -8t-6.5 -6l-3 -2q-62 7 -84 29 q-21 40 -40.5 88t-29.5 79.5t-33 104.5l-199 -41l-71 -248q-1 -4 -7.5 -7t-11.5 -3q-59 21 -70 36zM176 303l175 11q-3 11 -17 56.5t-20 62t-17.5 49.5t-23 56t-24.5 44z" />
<glyph unicode="&#x1f8f;" horiz-adv-x="695" d="M249 -38q10 0 27.5 -8.5t17.5 -16.5v-36q0 -26 15 -36t33 -10q19 0 28 5q7 -4 7 -14q-8 -16 -32.5 -33.5t-49.5 -17.5q-60 0 -60 90v65q0 3 5.5 7.5t8.5 4.5zM0 26q25 26 51 76.5t53.5 127.5t43.5 125.5t43 141t30 102.5q-20 24 -69 -2q-3 6 -3 16q5 17 29.5 35t45.5 18 q42 0 74 -40q20 -24 37.5 -61t27 -63.5t27.5 -83t26 -79.5q92 -271 144 -335q-1 -4 -4.5 -8t-6.5 -6l-3 -2q-62 7 -84 29q-21 40 -40.5 88t-29.5 79.5t-33 104.5l-199 -41l-71 -248q-1 -4 -7.5 -7t-11.5 -3q-59 21 -70 36zM176 303l175 11q-3 11 -17 56.5t-20 62t-17.5 49.5 t-23 56t-24.5 44zM-12 567q20 0 38 -11t18 -25q0 -6 -5 -8q-1 0 -8 -2t-11 -3t-11 -3.5t-11.5 -5.5t-9.5 -6.5t-7.5 -8.5t-2.5 -11q0 -18 18 -32t44 -16q0 -12 -26 -12q-10 0 -27 5.5t-37 26t-20 50.5q0 23 17 42.5t41 19.5zM-51 665q23 0 61 -23q38 -24 58 -24q16 0 28 8.5 t19.5 19t8.5 11.5q6 0 6 -9q0 -17 -14 -38q-27 -37 -62 -37q-24 0 -60 22q-40 25 -59 25q-16 0 -27 -8.5t-17 -19t-8 -11.5q-8 0 -8 11q0 19 12 37q27 36 62 36z" />
<glyph unicode="&#x1f90;" horiz-adv-x="488" d="M131 -38q10 0 27.5 -8.5t17.5 -16.5v-36q0 -26 15 -36t33 -10q19 0 28 5q7 -4 7 -14q-8 -16 -32.5 -33.5t-49.5 -17.5q-60 0 -60 90v65q0 3 5.5 7.5t8.5 4.5zM262 687q23 0 43 -24.5t20 -53.5q0 -32 -12.5 -55.5t-30.5 -34t-31 -15t-19 -4.5q-4 0 -8 4t-4 9q24 6 39 22 t15 34q0 16 -7.5 31t-14 21.5t-20 17t-14.5 11.5q-3 2 -3 5q0 9 17 20.5t30 11.5zM26 332q-4 0 -8.5 7.5t-4.5 13.5q10 33 36.5 56.5t56.5 23.5q22 0 37.5 -22t21 -46t11.5 -64q60 139 140 139q43 0 69.5 -41t31.5 -109q3 -43 4.5 -157.5t5 -210.5t13.5 -131 q-11 -18 -25 -18q-9 0 -36.5 17t-26.5 28q1 18 8.5 100.5t13 175.5t5.5 172q0 45 -13.5 71t-39.5 26q-40 0 -76.5 -52t-58.5 -121v-54v-122q-13 -20 -24 -20q-9 0 -32.5 14t-23.5 23q0 35 26 157l14 59q0 115 -68 115q-17 0 -33.5 -10t-23.5 -20z" />
<glyph unicode="&#x1f91;" horiz-adv-x="488" d="M131 -38q10 0 27.5 -8.5t17.5 -16.5v-36q0 -26 15 -36t33 -10q19 0 28 5q7 -4 7 -14q-8 -16 -32.5 -33.5t-49.5 -17.5q-60 0 -60 90v65q0 3 5.5 7.5t8.5 4.5zM272 687q13 0 30 -11.5t17 -20.5q0 -3 -3 -5q-1 -1 -14.5 -11.5t-20 -17t-14 -21.5t-7.5 -31q0 -18 15 -34 t39 -22q0 -5 -4 -9t-8 -4q-6 0 -19 4.5t-31 15t-30.5 34t-12.5 55.5q0 29 20 53.5t43 24.5zM26 332q-4 0 -8.5 7.5t-4.5 13.5q10 33 36.5 56.5t56.5 23.5q22 0 37.5 -22t21 -46t11.5 -64q60 139 140 139q43 0 69.5 -41t31.5 -109q3 -43 4.5 -157.5t5 -210.5t13.5 -131 q-11 -18 -25 -18q-9 0 -36.5 17t-26.5 28q1 18 8.5 100.5t13 175.5t5.5 172q0 45 -13.5 71t-39.5 26q-40 0 -76.5 -52t-58.5 -121v-54v-122q-13 -20 -24 -20q-9 0 -32.5 14t-23.5 23q0 35 26 157l14 59q0 115 -68 115q-17 0 -33.5 -10t-23.5 -20z" />
<glyph unicode="&#x1f92;" horiz-adv-x="488" d="M131 -38q10 0 27.5 -8.5t17.5 -16.5v-36q0 -26 15 -36t33 -10q19 0 28 5q7 -4 7 -14q-8 -16 -32.5 -33.5t-49.5 -17.5q-60 0 -60 90v65q0 3 5.5 7.5t8.5 4.5zM142 690q29 0 51.5 -28t22.5 -65q0 -31 -16.5 -55t-32.5 -33t-23 -9q-10 0 -13 10q41 21 41 57q0 44 -73 76 q-4 2 -4 6q0 11 16.5 26t30.5 15zM268 711q13 0 28 -8.5t18 -16.5q13 -38 27.5 -102.5t14.5 -74.5q0 -3 -4.5 -6t-7.5 -3h-3q-10 4 -54.5 79.5t-44.5 108.5q0 23 26 23zM26 332q-4 0 -8.5 7.5t-4.5 13.5q10 33 36.5 56.5t56.5 23.5q22 0 37.5 -22t21 -46t11.5 -64 q60 139 140 139q43 0 69.5 -41t31.5 -109q3 -43 4.5 -157.5t5 -210.5t13.5 -131q-11 -18 -25 -18q-9 0 -36.5 17t-26.5 28q1 18 8.5 100.5t13 175.5t5.5 172q0 45 -13.5 71t-39.5 26q-40 0 -76.5 -52t-58.5 -121v-54v-122q-13 -20 -24 -20q-9 0 -32.5 14t-23.5 23 q0 35 26 157l14 59q0 115 -68 115q-17 0 -33.5 -10t-23.5 -20z" />
<glyph unicode="&#x1f93;" horiz-adv-x="488" d="M131 -38q10 0 27.5 -8.5t17.5 -16.5v-36q0 -26 15 -36t33 -10q19 0 28 5q7 -4 7 -14q-8 -16 -32.5 -33.5t-49.5 -17.5q-60 0 -60 90v65q0 3 5.5 7.5t8.5 4.5zM268 711q13 0 28 -8.5t18 -16.5q13 -38 27.5 -102.5t14.5 -74.5q0 -3 -4.5 -6t-7.5 -3h-3q-10 4 -54.5 79.5 t-44.5 108.5q0 23 26 23zM164 677q12 3 31 -5.5t21 -16.5q0 -3 -1 -5q-2 -3 -10 -12t-12 -14.5t-10.5 -17.5t-6.5 -21.5t1 -25.5q4 -17 22.5 -29.5t42.5 -13.5q1 -5 -2 -10t-7 -6q-3 -3 -19 0t-34 8.5t-36 26.5t-25 52q-6 28 8.5 56.5t36.5 33.5zM26 332q-4 0 -8.5 7.5 t-4.5 13.5q10 33 36.5 56.5t56.5 23.5q22 0 37.5 -22t21 -46t11.5 -64q60 139 140 139q43 0 69.5 -41t31.5 -109q3 -43 4.5 -157.5t5 -210.5t13.5 -131q-11 -18 -25 -18q-9 0 -36.5 17t-26.5 28q1 18 8.5 100.5t13 175.5t5.5 172q0 45 -13.5 71t-39.5 26q-40 0 -76.5 -52 t-58.5 -121v-54v-122q-13 -20 -24 -20q-9 0 -32.5 14t-23.5 23q0 35 26 157l14 59q0 115 -68 115q-17 0 -33.5 -10t-23.5 -20z" />
<glyph unicode="&#x1f94;" horiz-adv-x="488" d="M131 -38q10 0 27.5 -8.5t17.5 -16.5v-36q0 -26 15 -36t33 -10q19 0 28 5q7 -4 7 -14q-8 -16 -32.5 -33.5t-49.5 -17.5q-60 0 -60 90v65q0 3 5.5 7.5t8.5 4.5zM187 687q23 0 43 -24.5t20 -53.5q0 -32 -12.5 -55.5t-30.5 -34t-31 -15t-19 -4.5q-4 0 -8 4t-4 9q24 6 39 22 t15 34q0 16 -7.5 31t-14 21.5t-20 17t-14.5 11.5q-3 2 -3 5q0 9 17 20.5t30 11.5zM363 711q26 0 26 -23q0 -33 -44.5 -108.5t-54.5 -79.5h-3q-3 0 -7.5 3t-4.5 6q0 10 14.5 74.5t27.5 102.5q3 8 18 16.5t28 8.5zM26 332q-4 0 -8.5 7.5t-4.5 13.5q10 33 36.5 56.5t56.5 23.5 q22 0 37.5 -22t21 -46t11.5 -64q60 139 140 139q43 0 69.5 -41t31.5 -109q3 -43 4.5 -157.5t5 -210.5t13.5 -131q-11 -18 -25 -18q-9 0 -36.5 17t-26.5 28q1 18 8.5 100.5t13 175.5t5.5 172q0 45 -13.5 71t-39.5 26q-40 0 -76.5 -52t-58.5 -121v-54v-122q-13 -20 -24 -20 q-9 0 -32.5 14t-23.5 23q0 35 26 157l14 59q0 115 -68 115q-17 0 -33.5 -10t-23.5 -20z" />
<glyph unicode="&#x1f95;" horiz-adv-x="488" d="M131 -38q10 0 27.5 -8.5t17.5 -16.5v-36q0 -26 15 -36t33 -10q19 0 28 5q7 -4 7 -14q-8 -16 -32.5 -33.5t-49.5 -17.5q-60 0 -60 90v65q0 3 5.5 7.5t8.5 4.5zM363 711q26 0 26 -23q0 -33 -44.5 -108.5t-54.5 -79.5h-3q-3 0 -7.5 3t-4.5 6q0 10 14.5 74.5t27.5 102.5 q3 8 18 16.5t28 8.5zM197 687q13 0 30 -11.5t17 -20.5q0 -3 -3 -5q-1 -1 -14.5 -11.5t-20 -17t-14 -21.5t-7.5 -31q0 -18 15 -34t39 -22q0 -5 -4 -9t-8 -4q-6 0 -19 4.5t-31 15t-30.5 34t-12.5 55.5q0 29 20 53.5t43 24.5zM26 332q-4 0 -8.5 7.5t-4.5 13.5q10 33 36.5 56.5 t56.5 23.5q22 0 37.5 -22t21 -46t11.5 -64q60 139 140 139q43 0 69.5 -41t31.5 -109q3 -43 4.5 -157.5t5 -210.5t13.5 -131q-11 -18 -25 -18q-9 0 -36.5 17t-26.5 28q1 18 8.5 100.5t13 175.5t5.5 172q0 45 -13.5 71t-39.5 26q-40 0 -76.5 -52t-58.5 -121v-54v-122 q-13 -20 -24 -20q-9 0 -32.5 14t-23.5 23q0 35 26 157l14 59q0 115 -68 115q-17 0 -33.5 -10t-23.5 -20z" />
<glyph unicode="&#x1f96;" horiz-adv-x="488" d="M131 -38q10 0 27.5 -8.5t17.5 -16.5v-36q0 -26 15 -36t33 -10q19 0 28 5q7 -4 7 -14q-8 -16 -32.5 -33.5t-49.5 -17.5q-60 0 -60 90v65q0 3 5.5 7.5t8.5 4.5zM248 644q24 0 41 -19.5t17 -42.5q0 -30 -20 -50.5t-37 -26t-27 -5.5q-26 0 -26 12q26 2 44 16t18 32 q0 6 -2.5 11t-7.5 8.5t-9.5 6.5t-11.5 5.5t-11 3.5t-11 3t-8 2q-5 2 -5 8q0 14 18 25t38 11zM211 742q23 0 61 -23q38 -24 58 -24q16 0 28 8.5t19.5 19t8.5 11.5q6 0 6 -9q0 -17 -14 -38q-27 -37 -62 -37q-24 0 -60 22q-40 25 -59 25q-16 0 -27 -8.5t-17 -19t-8 -11.5 q-8 0 -8 11q0 19 12 37q27 36 62 36zM26 332q-4 0 -8.5 7.5t-4.5 13.5q10 33 36.5 56.5t56.5 23.5q22 0 37.5 -22t21 -46t11.5 -64q60 139 140 139q43 0 69.5 -41t31.5 -109q3 -43 4.5 -157.5t5 -210.5t13.5 -131q-11 -18 -25 -18q-9 0 -36.5 17t-26.5 28q1 18 8.5 100.5 t13 175.5t5.5 172q0 45 -13.5 71t-39.5 26q-40 0 -76.5 -52t-58.5 -121v-54v-122q-13 -20 -24 -20q-9 0 -32.5 14t-23.5 23q0 35 26 157l14 59q0 115 -68 115q-17 0 -33.5 -10t-23.5 -20z" />
<glyph unicode="&#x1f97;" horiz-adv-x="488" d="M131 -38q10 0 27.5 -8.5t17.5 -16.5v-36q0 -26 15 -36t33 -10q19 0 28 5q7 -4 7 -14q-8 -16 -32.5 -33.5t-49.5 -17.5q-60 0 -60 90v65q0 3 5.5 7.5t8.5 4.5zM250 644q20 0 38 -11t18 -25q0 -6 -5 -8q-1 0 -8 -2t-11 -3t-11 -3.5t-11.5 -5.5t-9.5 -6.5t-7.5 -8.5 t-2.5 -11q0 -18 18 -32t44 -16q0 -12 -26 -12q-10 0 -27 5.5t-37 26t-20 50.5q0 23 17 42.5t41 19.5zM211 742q23 0 61 -23q38 -24 58 -24q16 0 28 8.5t19.5 19t8.5 11.5q6 0 6 -9q0 -17 -14 -38q-27 -37 -62 -37q-24 0 -60 22q-40 25 -59 25q-16 0 -27 -8.5t-17 -19 t-8 -11.5q-8 0 -8 11q0 19 12 37q27 36 62 36zM26 332q-4 0 -8.5 7.5t-4.5 13.5q10 33 36.5 56.5t56.5 23.5q22 0 37.5 -22t21 -46t11.5 -64q60 139 140 139q43 0 69.5 -41t31.5 -109q3 -43 4.5 -157.5t5 -210.5t13.5 -131q-11 -18 -25 -18q-9 0 -36.5 17t-26.5 28 q1 18 8.5 100.5t13 175.5t5.5 172q0 45 -13.5 71t-39.5 26q-40 0 -76.5 -52t-58.5 -121v-54v-122q-13 -20 -24 -20q-9 0 -32.5 14t-23.5 23q0 35 26 157l14 59q0 115 -68 115q-17 0 -33.5 -10t-23.5 -20z" />
<glyph unicode="&#x1f98;" horiz-adv-x="834" d="M207 -38q10 0 27.5 -8.5t17.5 -16.5v-36q0 -26 15 -36t33 -10q19 0 28 5q7 -4 7 -14q-8 -16 -32.5 -33.5t-49.5 -17.5q-60 0 -60 90v65q0 3 5.5 7.5t8.5 4.5zM-125 667q23 0 43 -24.5t20 -53.5q0 -32 -12.5 -55.5t-30.5 -34t-31 -15t-19 -4.5q-4 0 -8 4t-4 9q24 6 39 22 t15 34q0 16 -7.5 31t-14 21.5t-20 17t-14.5 11.5q-3 2 -3 5q0 9 17 20.5t30 11.5zM426 468q0 -190 1 -250q1 -56 6.5 -129t11.5 -88q-12 -17 -25 -17q-8 0 -36.5 13t-28.5 23q6 154 7 292q-15 -1 -64 -2.5t-81 -2.5t-74.5 -4t-70.5 -8q0 -15 0.5 -40.5t0.5 -36.5 q1 -56 6.5 -129t11.5 -88q-12 -17 -25 -17q-8 0 -36.5 13t-28.5 23q7 187 7 334q0 114 -17 293q2 5 10 11t12 6q20 0 44.5 -12.5t24.5 -24.5q0 -1 -2.5 -28t-5 -65t-2.5 -66v-121l290 1v6q0 114 -17 293q2 5 10 11t12 6q20 0 44.5 -12.5t24.5 -24.5q0 -1 -2.5 -28t-5 -65 t-2.5 -66z" />
<glyph unicode="&#x1f99;" horiz-adv-x="832" d="M207 -38q10 0 27.5 -8.5t17.5 -16.5v-36q0 -26 15 -36t33 -10q19 0 28 5q7 -4 7 -14q-8 -16 -32.5 -33.5t-49.5 -17.5q-60 0 -60 90v65q0 3 5.5 7.5t8.5 4.5zM-105 667q13 0 30 -11.5t17 -20.5q0 -3 -3 -5q-1 -1 -14.5 -11.5t-20 -17t-14 -21.5t-7.5 -31q0 -18 15 -34 t39 -22q0 -5 -4 -9t-8 -4q-6 0 -19 4.5t-31 15t-30.5 34t-12.5 55.5q0 29 20 53.5t43 24.5zM426 468q0 -190 1 -250q1 -56 6.5 -129t11.5 -88q-12 -17 -25 -17q-8 0 -36.5 13t-28.5 23q6 154 7 292q-15 -1 -64 -2.5t-81 -2.5t-74.5 -4t-70.5 -8q0 -15 0.5 -40.5t0.5 -36.5 q1 -56 6.5 -129t11.5 -88q-12 -17 -25 -17q-8 0 -36.5 13t-28.5 23q7 187 7 334q0 114 -17 293q2 5 10 11t12 6q20 0 44.5 -12.5t24.5 -24.5q0 -1 -2.5 -28t-5 -65t-2.5 -66v-121l290 1v6q0 114 -17 293q2 5 10 11t12 6q20 0 44.5 -12.5t24.5 -24.5q0 -1 -2.5 -28t-5 -65 t-2.5 -66z" />
<glyph unicode="&#x1f9a;" horiz-adv-x="953" d="M207 -38q10 0 27.5 -8.5t17.5 -16.5v-36q0 -26 15 -36t33 -10q19 0 28 5q7 -4 7 -14q-8 -16 -32.5 -33.5t-49.5 -17.5q-60 0 -60 90v65q0 3 5.5 7.5t8.5 4.5zM-260 646q29 0 51.5 -28t22.5 -65q0 -31 -16.5 -55t-32.5 -33t-23 -9q-10 0 -13 10q41 21 41 57q0 44 -73 76 q-4 2 -4 6q0 11 16.5 26t30.5 15zM-134 667q13 0 28 -8.5t18 -16.5q13 -38 27.5 -102.5t14.5 -74.5q0 -3 -4.5 -6t-7.5 -3h-3q-10 4 -54.5 79.5t-44.5 108.5q0 23 26 23zM426 468q0 -190 1 -250q1 -56 6.5 -129t11.5 -88q-12 -17 -25 -17q-8 0 -36.5 13t-28.5 23 q6 154 7 292q-15 -1 -64 -2.5t-81 -2.5t-74.5 -4t-70.5 -8q0 -15 0.5 -40.5t0.5 -36.5q1 -56 6.5 -129t11.5 -88q-12 -17 -25 -17q-8 0 -36.5 13t-28.5 23q7 187 7 334q0 114 -17 293q2 5 10 11t12 6q20 0 44.5 -12.5t24.5 -24.5q0 -1 -2.5 -28t-5 -65t-2.5 -66v-121l290 1 v6q0 114 -17 293q2 5 10 11t12 6q20 0 44.5 -12.5t24.5 -24.5q0 -1 -2.5 -28t-5 -65t-2.5 -66z" />
<glyph unicode="&#x1f9b;" horiz-adv-x="935" d="M207 -38q10 0 27.5 -8.5t17.5 -16.5v-36q0 -26 15 -36t33 -10q19 0 28 5q7 -4 7 -14q-8 -16 -32.5 -33.5t-49.5 -17.5q-60 0 -60 90v65q0 3 5.5 7.5t8.5 4.5zM426 468q0 -190 1 -250q1 -56 6.5 -129t11.5 -88q-12 -17 -25 -17q-8 0 -36.5 13t-28.5 23q6 154 7 292 q-15 -1 -64 -2.5t-81 -2.5t-74.5 -4t-70.5 -8q0 -15 0.5 -40.5t0.5 -36.5q1 -56 6.5 -129t11.5 -88q-12 -17 -25 -17q-8 0 -36.5 13t-28.5 23q7 187 7 334q0 114 -17 293q2 5 10 11t12 6q20 0 44.5 -12.5t24.5 -24.5q0 -1 -2.5 -28t-5 -65t-2.5 -66v-121l290 1v6 q0 114 -17 293q2 5 10 11t12 6q20 0 44.5 -12.5t24.5 -24.5q0 -1 -2.5 -28t-5 -65t-2.5 -66zM-134 667q13 0 28 -8.5t18 -16.5q13 -38 27.5 -102.5t14.5 -74.5q0 -3 -4.5 -6t-7.5 -3h-3q-10 4 -54.5 79.5t-44.5 108.5q0 23 26 23zM-238 633q12 3 31 -5.5t21 -16.5 q0 -3 -1 -5q-2 -3 -10 -12t-12 -14.5t-10.5 -17.5t-6.5 -21.5t1 -25.5q4 -17 22.5 -29.5t42.5 -13.5q1 -5 -2 -10t-7 -6q-3 -3 -19 0t-34 8.5t-36 26.5t-25 52q-6 28 8.5 56.5t36.5 33.5z" />
</font>
</defs>
</svg>
