<?xml version="1.0" standalone="no"?>
<!DOCTYPE svg PUBLIC "-//W3C//DTD SVG 20010904//EN"
 "http://www.w3.org/TR/2001/REC-SVG-20010904/DTD/svg10.dtd">
<svg version="1.0" xmlns="http://www.w3.org/2000/svg"
 width="612.000000pt" height="612.000000pt" viewBox="0 0 612.000000 612.000000"
 preserveAspectRatio="xMidYMid meet">
<metadata>
Created by potrace 1.11, written by Peter Selinger 2001-2013
</metadata>
<g transform="translate(0.000000,612.000000) scale(0.100000,-0.100000)"
fill="#000000" stroke="none">
<path d="M2875 5999 c-27 -5 -28 -6 -8 -12 11 -4 24 -15 28 -25 7 -18 13 -103
19 -256 4 -94 3 -100 -20 -121 l-24 -23 72 3 c98 4 97 4 66 21 -17 9 -28 24
-29 37 -1 12 -3 47 -5 77 -8 125 -11 254 -7 271 3 11 11 19 19 19 7 0 16 5 19
11 7 10 -69 10 -130 -2z"/>
<path d="M3283 5987 c15 -14 27 -30 28 -34 0 -4 2 -15 4 -23 6 -23 43 -175 66
-275 12 -49 22 -96 22 -103 0 -7 5 -11 11 -9 11 4 20 19 91 153 112 212 141
254 164 240 5 -4 12 -2 15 3 8 12 -13 18 -79 26 -44 5 -48 4 -32 -8 25 -21 21
-44 -24 -127 -22 -41 -51 -99 -65 -127 -14 -29 -29 -53 -34 -53 -7 0 -17 38
-60 228 -17 79 -17 83 0 92 9 5 20 6 24 3 3 -3 6 -2 6 4 0 10 -26 16 -125 30
l-40 5 28 -25z"/>
<path d="M2529 5966 c-3 -3 -20 -8 -38 -11 -19 -3 -41 -10 -50 -15 -13 -7 -10
-9 12 -10 21 0 31 -7 42 -32 12 -27 57 -192 70 -260 2 -10 -69 37 -171 114
-183 137 -176 134 -252 114 -9 -2 -20 -5 -24 -5 -5 -1 -8 -5 -8 -11 0 -6 3 -9
8 -9 26 4 49 -4 59 -20 9 -15 60 -192 79 -276 10 -44 6 -78 -9 -90 -10 -7 -17
-14 -17 -17 0 -9 113 20 124 33 8 8 6 10 -11 5 -16 -5 -27 -1 -39 12 -14 17
-99 320 -92 327 2 2 90 -62 195 -141 106 -79 197 -144 202 -144 5 0 -13 83
-39 185 -27 102 -47 192 -46 200 1 8 10 23 21 35 14 16 15 20 3 20 -8 0 -17
-2 -19 -4z"/>
<path d="M3935 5880 c-3 -4 2 -10 10 -14 25 -9 18 -47 -35 -193 -62 -171 -67
-180 -99 -191 -23 -8 -18 -11 58 -40 45 -18 88 -32 95 -32 7 0 16 -3 20 -7 8
-8 77 -33 93 -33 6 0 20 16 32 35 23 40 20 43 -15 16 -14 -11 -35 -18 -47 -16
-50 10 -107 30 -128 46 l-22 16 27 74 c14 40 30 77 34 81 4 4 38 -4 75 -18 63
-24 74 -35 68 -69 -5 -23 27 23 38 54 11 34 7 56 -7 35 -12 -19 -36 -22 -64
-7 -15 7 -30 13 -33 12 -12 -2 -65 24 -65 32 0 4 10 34 21 66 12 32 26 68 30
80 l8 22 67 -23 c77 -27 104 -47 105 -78 1 -19 3 -18 15 11 8 18 13 36 10 39
-14 13 -287 109 -291 102z"/>
<path d="M1758 5703 c-37 -20 -65 -40 -62 -44 3 -5 11 -6 19 -2 24 8 41 -13
102 -121 31 -56 64 -112 74 -126 15 -22 15 -30 4 -63 -35 -101 -135 -137 -197
-69 -35 38 -148 244 -148 270 0 11 8 26 18 31 12 7 13 10 3 11 -8 0 -35 -13
-60 -28 -25 -16 -55 -32 -66 -37 -17 -8 -16 -9 12 -13 29 -3 38 -12 81 -85 26
-45 56 -99 67 -120 50 -96 131 -130 211 -89 46 24 70 51 91 101 15 34 16 35
24 14 11 -29 24 -29 74 2 38 23 39 24 13 25 -21 0 -34 11 -58 44 -16 25 -30
46 -30 49 0 2 -27 52 -60 111 -62 111 -69 133 -48 154 25 25 0 19 -64 -15z"/>
<path d="M4530 5621 c0 -5 5 -11 11 -13 14 -5 2 -68 -12 -68 -5 0 -9 -5 -9
-10 0 -17 -151 -240 -173 -255 -15 -11 -24 -12 -34 -3 -9 7 -13 7 -13 0 0 -6
27 -29 59 -52 59 -39 87 -52 63 -28 -21 21 -13 54 29 117 22 33 44 61 47 61
17 0 62 -53 63 -73 1 -12 2 -56 4 -97 3 -120 3 -119 38 -140 39 -24 54 -26 36
-4 -9 11 -14 49 -15 118 -1 55 -5 109 -9 119 -6 14 -2 17 28 17 48 0 80 16
100 50 42 70 11 126 -112 209 -94 63 -101 67 -101 52z m132 -94 c53 -39 60
-97 18 -150 -30 -37 -71 -43 -125 -17 -25 12 -45 26 -45 31 0 19 105 167 115
161 6 -3 22 -15 37 -25z"/>
<path d="M2845 5379 c-22 -4 -62 -9 -90 -13 -27 -3 -61 -8 -75 -11 -14 -3 -41
-8 -60 -11 -19 -4 -60 -13 -90 -21 -30 -8 -62 -16 -70 -17 -131 -19 -607 -255
-726 -361 -6 -5 -29 -23 -50 -40 -125 -98 -298 -262 -389 -369 -27 -33 -55
-65 -61 -71 -44 -44 -174 -258 -251 -415 -78 -158 -132 -304 -158 -428 -2 -9
-11 -48 -20 -85 -9 -38 -18 -87 -21 -110 -3 -23 -7 -53 -10 -66 -18 -84 -23
-373 -10 -521 5 -47 10 -98 11 -115 18 -196 97 -476 188 -665 81 -168 163
-310 198 -340 3 -3 19 -25 37 -50 17 -25 44 -59 59 -77 15 -17 48 -55 73 -85
99 -117 358 -350 444 -398 25 -14 80 -46 123 -71 201 -119 453 -225 618 -260
33 -7 62 -13 65 -14 55 -13 87 -18 190 -30 30 -3 73 -9 95 -12 73 -9 379 -12
440 -3 33 5 85 11 115 14 55 5 78 9 135 23 17 4 32 7 35 8 58 13 87 21 150 42
41 14 85 27 98 29 63 12 332 142 454 220 177 114 367 274 508 429 26 29 150
183 218 270 32 42 126 208 178 315 27 56 120 307 129 350 20 91 40 205 50 274
24 175 37 469 24 561 -12 85 -20 149 -21 165 -2 71 -63 315 -111 445 -27 75
-130 288 -186 387 -34 62 -118 189 -129 198 -4 3 -43 48 -87 100 -245 292
-494 476 -880 651 -86 39 -260 94 -380 121 -128 28 -126 27 -165 33 -20 3 -47
8 -60 10 -85 17 -462 27 -535 14z m350 -103 c134 -9 182 -14 235 -26 25 -5 60
-11 78 -14 19 -2 35 -6 37 -8 2 -2 -201 -3 -450 -3 -249 0 -452 3 -449 6 5 8
112 28 174 33 81 7 195 18 198 21 2 2 16 1 177 -9z m571 -105 c25 -12 49 -19
53 -17 3 2 16 -1 28 -7 17 -9 -37 -12 -250 -14 -656 -4 -1247 -1 -1267 6 -7 3
58 31 103 45 27 9 206 11 662 10 605 -3 626 -4 671 -23z m-686 -71 c135 1 389
1 565 2 l320 0 60 -28 60 -28 -45 -6 c-80 -9 -1906 -2 -1924 8 -5 3 17 17 49
31 l57 26 307 -3 c168 -1 416 -2 551 -2z m343 -93 c727 2 738 2 772 -18 44
-26 44 -36 3 -41 -26 -2 -1244 -2 -1958 1 -74 0 -142 0 -150 -1 -41 -3 -130 3
-130 10 0 4 15 16 33 27 28 18 55 21 237 25 113 3 261 3 330 0 69 -3 457 -4
863 -3z m-1358 -88 c107 0 257 0 285 -1 14 0 44 2 68 4 24 3 45 2 47 -1 2 -4
1695 -5 1819 -1 11 1 22 -3 25 -7 3 -5 19 -16 34 -26 15 -10 26 -21 23 -25 -3
-6 -2264 -8 -2321 -2 -5 0 -44 0 -85 0 -124 -2 -130 -2 -124 15 4 8 12 15 19
15 7 0 18 6 25 14 13 16 52 24 90 18 14 -2 57 -4 95 -3z m2389 -112 c56 -37
84 -35 -654 -41 -305 -3 -559 -5 -565 -6 -5 0 -239 3 -520 6 -280 4 -625 6
-765 6 l-255 -1 33 28 33 28 1332 -1 c1272 -1 1334 -2 1361 -19z m-2129 -65
c61 0 126 -1 145 -2 38 -2 1786 -2 1959 -1 85 1 107 -2 123 -16 11 -9 15 -20
10 -25 -5 -5 -168 -11 -363 -14 -465 -5 -519 -5 -529 1 -5 3 -11 1 -14 -3 -3
-5 -18 -8 -33 -6 -16 2 -73 3 -128 3 -55 0 -158 1 -230 2 -71 0 -143 1 -160 1
-16 -1 -66 -1 -110 -1 -44 0 -132 0 -195 -1 -63 -1 -187 -1 -275 0 -88 1 -332
2 -542 3 -211 1 -383 5 -383 8 0 12 38 40 64 47 14 4 144 6 288 5 145 -1 313
-1 373 -1z m960 -130 c605 2 1281 -4 1289 -13 13 -12 -4 -2932 -17 -3006 -17
-97 -109 -184 -253 -240 -84 -33 -202 -67 -269 -79 -16 -2 -37 -6 -45 -9 -8
-2 -42 -7 -75 -10 -32 -4 -62 -8 -65 -10 -3 -2 -49 -6 -101 -10 -120 -7 -147
-10 -294 -36 -98 -17 -204 -58 -259 -98 -65 -49 -78 -64 -115 -133 l-30 -58
-22 33 c-63 89 -146 152 -262 197 -108 42 -227 66 -372 75 -49 3 -101 7 -115
10 -14 2 -50 7 -80 10 -289 35 -364 52 -477 106 -61 29 -121 86 -149 141 -8
15 -21 53 -29 85 -19 70 -19 189 0 1783 3 289 6 685 7 882 0 196 3 360 7 366
3 5 12 11 20 13 8 3 329 4 715 2 386 -1 832 -2 991 -1z m1446 -75 c-14 -14
-31 1 -31 30 l0 26 20 -23 c13 -15 17 -27 11 -33z m-3254 11 c-2 -12 -11 -22
-20 -24 -20 -3 -21 1 -7 27 14 26 31 24 27 -3z m3313 -76 c29 -36 25 -42 -26
-36 -58 6 -64 9 -64 39 0 41 57 40 90 -3z m-3324 20 c7 -4 12 -19 12 -33 0
-25 -2 -26 -57 -24 -31 1 -58 3 -60 3 -3 1 8 16 24 32 28 29 58 37 81 22z m7
-91 c4 -1 7 -14 7 -29 l0 -28 -100 -1 -99 -1 14 28 c16 31 35 36 120 33 28 -1
53 -2 58 -2z m3390 -9 c9 -8 17 -22 17 -31 0 -15 -34 -18 -160 -12 -10 1 -17
12 -18 32 l-2 30 72 -2 c49 -1 79 -7 91 -17z m-3385 -111 c3 -27 0 -31 -20
-31 -13 -1 -69 -2 -126 -3 -57 -1 -105 -1 -107 2 -10 9 30 60 49 63 12 2 62 3
111 2 l90 -1 3 -32z m3438 24 c12 -8 24 -23 27 -35 5 -20 3 -21 -116 -18 -108
3 -122 5 -125 21 -8 41 3 46 100 46 59 -1 101 -6 114 -14z m11 -84 c47 -1 54
-4 67 -30 16 -30 13 -43 -9 -35 -7 3 -73 6 -147 7 l-133 2 -3 30 -3 31 88 -3
c48 -1 112 -2 140 -2z m-3449 -32 c-2 -23 -7 -29 -25 -29 -13 -1 -79 -1 -148
-1 -69 0 -130 0 -136 1 -6 0 -3 13 7 29 l17 29 144 0 143 1 -2 -30z m3557 -76
c8 -10 13 -22 11 -28 -1 -6 -71 -11 -174 -13 l-172 -2 0 29 c0 16 5 31 11 33
5 2 78 3 160 2 133 -2 152 -5 164 -21z m-3559 -9 c4 -15 2 -29 -4 -33 -16 -10
-334 -3 -345 8 -5 5 -4 17 2 30 11 20 19 21 176 21 l165 0 6 -26z m-135 -65
c121 -1 141 -5 137 -33 -2 -11 -6 -23 -10 -26 -3 -3 -82 -4 -175 -3 -229 2
-213 0 -213 22 0 29 20 39 84 40 33 0 61 3 64 6 3 2 8 2 12 0 5 -3 50 -5 101
-6z m3736 -15 c30 -41 21 -43 -159 -46 -193 -3 -229 2 -221 33 3 12 14 24 24
27 10 4 91 6 181 5 142 -1 164 -4 175 -19z m-3606 -84 c0 -3 2 -15 5 -27 5
-31 -8 -36 -100 -34 -44 1 -138 3 -208 4 -69 1 -129 5 -133 9 -4 3 1 18 10 32
l17 26 204 -2 c112 -1 204 -5 205 -8z m3651 -15 c6 -14 8 -28 4 -32 -3 -4
-101 -8 -216 -9 l-210 -2 0 34 0 34 205 0 205 0 12 -25z m-3655 -79 c6 -3 10
-13 8 -23 -2 -10 -4 -21 -4 -26 -1 -4 -106 -6 -233 -5 -206 3 -233 5 -236 19
-2 9 4 23 12 32 13 12 49 14 228 11 117 -2 218 -6 225 -8z m3692 -13 c6 -13 9
-28 7 -32 -3 -4 -107 -7 -233 -6 l-228 0 -3 27 c-2 19 2 27 14 30 10 1 111 4
225 5 l207 1 11 -25z m-3768 -72 c66 -1 77 -4 82 -20 9 -35 -7 -42 -89 -41
-239 3 -404 9 -413 14 -11 7 -3 37 11 47 5 3 82 4 171 3 89 -1 196 -3 238 -3z
m3799 -7 c7 -7 10 -19 8 -29 -3 -15 -27 -17 -250 -19 l-248 -3 0 28 c0 18 6
29 17 31 9 2 117 3 239 3 154 0 227 -4 234 -11z m-3718 -92 c5 -5 8 -18 6 -28
-3 -18 -18 -19 -251 -20 -136 -1 -259 1 -272 4 -23 4 -25 20 -3 48 11 14 506
10 520 -4z m3749 -9 c5 -14 7 -29 3 -32 -7 -7 -498 -13 -517 -5 -11 4 -13 18
-8 54 1 3 116 6 256 7 l256 2 10 -26z m-3860 -72 c111 -1 127 -8 112 -46 -5
-14 -40 -15 -280 -12 -150 3 -277 7 -280 11 -3 3 -2 16 4 28 10 23 13 23 174
21 90 -1 212 -2 270 -2z m3885 -15 c10 -14 11 -23 4 -30 -7 -7 -107 -11 -280
-12 l-270 -1 0 27 c0 16 5 30 10 32 6 2 125 3 266 3 242 0 256 -1 270 -19z
m-3780 -87 c7 -5 10 -19 7 -30 -6 -20 -12 -20 -294 -17 l-289 3 0 23 c0 14 8
26 22 31 30 11 540 2 554 -10z m3775 12 c27 -1 43 -28 30 -48 -6 -10 -534 -15
-558 -6 -7 3 -13 16 -13 28 0 19 6 24 33 27 29 3 448 2 508 -1z m-3779 -99 c6
-6 7 -19 4 -30 -7 -20 -12 -21 -299 -17 l-292 3 3 23 c1 13 7 26 13 30 16 10
561 1 571 -9z m3818 -2 c6 -8 9 -22 7 -30 -2 -12 -43 -15 -277 -16 -151 -1
-281 2 -289 6 -17 9 -24 42 -11 50 4 3 132 5 284 5 235 0 278 -2 286 -15z
m-3839 -79 c22 -1 26 -6 27 -30 l1 -29 -292 3 c-161 1 -297 3 -304 4 -12 1 -6
42 9 52 6 4 435 4 559 0z m3842 0 c4 0 7 -14 7 -30 l0 -29 -292 2 -293 1 -3
24 c-2 13 1 27 7 31 9 5 545 7 574 1z m-3840 -90 c26 -1 28 -4 25 -33 l-3 -33
-215 2 c-118 1 -254 3 -302 5 l-88 2 0 27 c0 18 6 29 18 31 14 3 477 2 565 -1z
m3858 -18 c15 -42 -4 -45 -298 -47 -157 -1 -283 2 -290 7 -16 12 -17 54 -1 59
6 2 140 4 296 3 282 -1 285 -1 293 -22z m-4031 -76 c97 -2 181 -6 188 -11 15
-9 16 -33 1 -41 -9 -6 -501 -7 -579 -2 -18 2 -26 9 -28 26 -2 13 1 27 8 31 6
4 62 5 123 3 62 -2 191 -5 287 -6z m4031 -9 c18 -32 0 -48 -55 -48 -275 -3
-536 -1 -544 4 -5 3 -8 15 -7 28 l2 23 249 3 c137 1 252 4 257 5 30 9 90 0 98
-15z m-3914 -79 c58 -1 72 -5 76 -19 12 -45 4 -46 -285 -44 -150 1 -283 3
-294 3 -23 1 -39 37 -24 55 7 10 289 13 527 5z m3417 -2 c7 8 486 7 493 -1 13
-13 9 -47 -6 -55 -20 -9 -577 -8 -587 1 -3 4 -7 18 -8 30 -1 27 25 37 71 27
18 -4 34 -4 37 -2z m-3343 -99 c2 -10 2 -35 0 -47 -1 -10 -40 -12 -327 -13
-256 0 -274 3 -274 44 l0 30 300 -4 c165 -2 301 -6 301 -10z m3835 -13 c7 -47
-1 -49 -223 -47 -386 4 -378 3 -378 32 0 14 3 27 7 30 3 3 138 5 299 5 285 0
292 0 295 -20z m-3834 -88 c10 -15 10 -19 0 -35 -9 -13 -21 -13 -395 -10 -164
1 -189 3 -197 18 -16 30 3 39 95 42 194 6 489 -3 497 -15z m3806 8 c22 -5 28
-21 14 -42 -8 -13 -57 -15 -267 -15 -221 1 -308 3 -315 7 -4 3 -5 16 -3 29 5
22 11 25 57 28 76 4 488 -1 514 -7z m-3885 -85 c43 -2 80 -6 82 -10 2 -3 2
-16 -2 -28 -5 -20 -11 -21 -142 -22 -247 -1 -396 0 -415 3 -25 5 -40 44 -21
54 12 7 310 9 498 3z m3885 -5 c6 -2 12 -16 12 -30 0 -30 27 -27 -285 -25
-315 1 -300 0 -300 30 l0 25 120 2 c66 2 124 4 130 6 14 5 307 -2 323 -8z
m-3811 -90 c13 -4 13 -38 1 -50 -5 -6 -460 -7 -533 -2 -25 2 -31 7 -33 29 -3
26 -1 27 50 30 73 4 500 -2 515 -7z m3805 -24 c-1 -14 -5 -27 -8 -30 -8 -8
-543 -5 -551 2 -3 4 -7 18 -8 31 l-3 25 205 0 c113 0 207 1 208 3 2 2 39 1 82
-2 76 -5 78 -6 75 -29z m-3804 -92 l3 -26 -103 -2 c-91 -2 -404 -3 -434 -2
-13 1 -26 40 -18 53 3 5 128 7 277 6 l272 -3 3 -26z m3789 19 c2 -5 2 -19 -1
-32 l-6 -23 -262 4 c-145 2 -269 4 -275 5 -7 1 -13 14 -13 29 l0 28 276 -1
c151 -1 278 -6 281 -10z m-3996 -78 c176 0 208 -2 213 -15 10 -27 -5 -45 -38
-46 -98 -4 -478 1 -486 6 -6 4 -10 19 -10 34 0 27 0 28 58 24 31 -2 150 -3
263 -3z m3979 -19 c-1 -44 -8 -46 -238 -46 -121 -1 -238 1 -261 3 -37 4 -41 7
-41 32 l0 29 270 -1 c241 -1 270 -3 270 -17z m-3942 -71 l172 -1 0 -29 c0 -17
-6 -30 -12 -31 -26 -2 -316 -1 -396 2 -70 3 -85 6 -94 22 -17 33 12 44 107 40
28 -2 128 -3 223 -3z m3719 -4 c94 0 177 -2 183 -6 22 -13 1 -50 -28 -51 -95
-5 -425 -6 -446 -2 -21 4 -26 11 -26 34 0 32 22 38 100 29 25 -3 123 -5 217
-4z m-3730 -89 c89 -3 166 -8 172 -11 15 -10 14 -43 -1 -49 -7 -2 -109 -4
-227 -2 -196 1 -215 3 -227 20 -8 10 -14 23 -14 27 0 14 36 23 87 21 26 -1
121 -4 210 -6z m3893 -15 c-1 -49 -14 -51 -289 -52 -178 0 -192 2 -186 39 3
23 27 26 261 28 195 2 214 0 214 -15z m-3724 -86 c9 -4 14 -15 12 -28 l-3 -23
-209 0 -208 0 -9 23 c-12 30 -12 30 8 34 28 5 393 0 409 -6z m3587 4 c101 0
112 -6 85 -43 -11 -14 -40 -17 -211 -20 -206 -4 -221 -1 -207 38 8 24 50 31
160 28 41 -1 119 -2 173 -3z m-3638 -94 c22 -2 46 -4 53 -5 16 -1 16 -37 0
-47 -7 -5 -62 -7 -123 -6 -269 5 -248 2 -259 39 -6 18 -3 22 21 25 34 4 253 0
308 -6z m3690 -25 c-4 -14 -9 -28 -11 -30 -8 -9 -374 -12 -375 -4 0 4 -2 16
-4 26 -5 28 22 33 200 32 91 0 165 3 165 7 0 4 7 5 16 1 11 -4 14 -13 9 -32z
m-3792 -65 c81 -2 151 -6 154 -10 17 -17 12 -44 -10 -48 -17 -3 -252 -2 -303
1 -10 1 -34 43 -34 61 0 5 10 7 23 5 12 -3 89 -6 170 -9z m3753 -9 c4 -3 0
-17 -9 -30 -13 -20 -24 -24 -79 -25 -227 -5 -271 1 -261 37 3 11 12 21 21 23
31 6 322 2 328 -5z m-3592 -100 c9 -36 -2 -43 -72 -44 -37 0 -92 -1 -122 -2
-30 -2 -60 -2 -65 -2 -9 1 -45 51 -45 63 0 3 67 5 149 5 139 0 150 -2 155 -20z
m3544 8 c2 -2 -5 -17 -17 -34 l-21 -29 -118 4 c-64 3 -123 7 -129 9 -17 6 -17
52 -1 57 15 5 281 -2 286 -7z m-3551 -89 c9 -4 10 -12 4 -27 -7 -21 -15 -23
-103 -26 -85 -2 -97 0 -113 17 -21 23 -13 37 25 42 34 4 171 0 187 -6z m3479
-8 c3 -4 -1 -17 -10 -30 -17 -24 -14 -24 -186 -14 -19 1 -26 7 -28 29 l-3 27
110 -3 c61 -1 113 -6 117 -9z m-3472 -91 c8 -32 -6 -40 -75 -43 -55 -2 -65 1
-88 25 l-26 26 40 5 c22 3 63 6 91 7 46 2 53 -1 58 -20z m3415 7 c10 -3 6 -11
-13 -29 -23 -21 -37 -25 -92 -25 -35 0 -64 3 -65 8 0 4 -2 17 -5 29 -3 16 2
22 19 25 28 4 137 -1 156 -8z m-3416 -83 c5 -1 7 -13 5 -28 -2 -23 -9 -29 -34
-31 -32 -3 -84 29 -84 52 0 10 55 14 113 7z m3343 -12 c3 -5 -4 -18 -14 -30
-14 -15 -29 -20 -53 -17 -29 2 -34 7 -34 28 0 17 7 26 25 30 29 7 68 1 76 -11z
m-3325 -112 c6 -24 5 -26 -12 -17 -17 9 -39 40 -39 54 0 18 45 -16 51 -37z
m3259 26 c0 -9 -62 -73 -71 -73 -3 0 2 18 13 40 13 26 27 40 39 40 10 0 19 -3
19 -7z m-371 -329 c-21 -20 -34 -25 -65 -22 l-39 3 45 14 c25 8 49 18 55 23
23 20 27 5 4 -18z m-2424 -28 c11 -3 -11 -4 -48 -2 -53 3 -74 8 -89 24 l-21
20 69 -18 c38 -10 78 -21 89 -24z m155 -41 c158 -6 228 -10 290 -19 153 -22
184 -27 189 -32 3 -3 -12 -4 -34 -4 -22 1 -132 1 -245 1 -267 -1 -316 4 -362
35 -44 28 -46 32 -15 28 12 -2 92 -6 177 -9z m2170 3 c0 -5 -4 -6 -10 -3 -5 3
-10 2 -10 -2 0 -5 -17 -17 -37 -28 -34 -19 -57 -20 -309 -20 -150 -1 -271 2
-269 5 2 3 38 7 79 8 42 2 86 5 98 7 11 3 53 7 92 11 39 3 74 8 78 11 4 2 35
6 70 10 35 3 64 6 65 7 9 7 153 1 153 -6z m-1593 -91 c76 -5 163 -34 163 -56
0 -9 -595 -6 -666 4 -44 6 -130 46 -120 56 6 5 522 2 623 -4z m1433 2 c0 -6
-104 -55 -137 -64 -12 -3 -159 -6 -325 -5 -381 1 -370 0 -356 17 6 7 17 13 24
13 8 0 14 3 14 8 0 15 75 29 167 30 53 1 97 3 99 4 5 6 514 3 514 -3z m-1250
-98 c47 -1 58 -5 74 -27 12 -17 15 -28 8 -33 -12 -7 -190 -6 -402 3 -128 5
-269 31 -291 53 -8 8 365 10 611 4z m980 -29 c-64 -29 -67 -29 -392 -37 -267
-7 -273 -6 -227 43 20 22 22 22 347 21 l326 -2 -54 -25z m-1105 -67 c77 -4
164 -7 193 -7 44 -1 56 -4 68 -24 15 -22 11 -50 -5 -40 -8 5 -89 15 -161 21
-46 3 -125 13 -170 21 -14 3 -55 10 -92 16 -38 6 -68 13 -68 17 0 7 31 6 235
-4z m865 -5 c0 -4 -21 -11 -47 -16 -52 -8 -51 -8 -73 -17 -39 -16 -226 -34
-302 -28 -22 1 -23 24 -3 45 12 12 38 15 116 14 55 0 101 1 104 3 7 8 205 6
205 -1z"/>
<path d="M1638 4562 c-18 -2 -28 -9 -29 -20 -3 -75 -8 -563 -13 -1152 -3 -388
-8 -862 -12 -1055 -8 -463 -5 -678 11 -760 9 -41 44 -111 69 -134 52 -49 214
-116 301 -126 22 -2 51 -7 65 -10 14 -3 45 -8 70 -10 25 -2 65 -7 90 -10 25
-3 59 -8 75 -10 30 -4 101 -10 225 -20 36 -3 79 -8 95 -11 17 -3 42 -7 57 -9
99 -13 268 -96 343 -167 32 -32 62 -58 65 -58 3 1 20 21 38 46 64 87 146 133
311 175 119 31 143 35 246 44 33 2 80 7 105 9 25 3 72 8 105 11 33 3 67 8 75
10 8 2 37 6 64 10 27 3 53 8 56 10 4 2 22 7 41 10 81 13 227 72 299 120 60 40
80 60 100 100 27 56 28 60 30 980 1 237 1 459 1 495 4 822 3 1520 -1 1521 -35
9 -2809 19 -2882 11z m2023 -296 c-428 -432 -543 -546 -550 -546 -3 0 -4 24
-1 53 5 52 41 117 65 117 23 0 116 67 139 100 21 32 37 86 40 135 1 11 -9 39
-21 63 -21 41 -22 45 -6 69 20 30 85 102 166 184 31 32 57 63 57 68 0 19 60
26 219 26 l159 0 -267 -269z m-936 122 c74 -76 135 -141 135 -143 0 -3 -12
-23 -26 -45 -35 -53 -39 -123 -10 -182 15 -31 40 -56 87 -88 60 -41 118 -93
120 -109 0 -3 2 -21 4 -39 2 -19 6 -40 9 -48 3 -8 0 -14 -6 -14 -10 0 -808
797 -808 807 0 2 81 3 180 2 l179 -2 136 -139z m148 123 c19 -15 87 -157 87
-181 0 -33 -16 -30 -51 8 -41 43 -129 158 -129 166 0 9 39 23 61 21 9 -1 24
-7 32 -14z m177 4 c5 -3 7 -24 5 -48 -2 -23 -4 -68 -4 -100 -1 -69 -14 -71
-47 -10 -12 23 -31 54 -42 70 -31 43 -33 89 -4 96 18 5 79 0 92 -8z m-314 -12
c11 -10 38 -43 61 -74 23 -31 58 -74 77 -95 39 -42 49 -72 19 -55 -10 6 -32
25 -49 43 -103 108 -121 128 -141 154 -13 15 -23 32 -23 36 0 15 37 8 56 -9z
m494 12 c0 -16 -74 -155 -90 -170 -27 -24 -32 -17 -32 47 -1 54 7 94 23 114 8
10 99 19 99 9z m130 0 c0 -11 -54 -91 -87 -130 -19 -22 -38 -46 -44 -52 -11
-15 -39 -17 -39 -4 0 4 12 21 26 36 15 16 33 43 40 59 7 17 25 42 39 55 14 13
25 27 25 32 0 5 9 9 20 9 11 0 20 -2 20 -5z m94 -22 c-17 -16 -43 -45 -59 -66
-27 -36 -50 -44 -50 -18 0 25 89 110 114 111 l25 0 -30 -27z m-139 -162 c-3
-12 -13 -21 -21 -21 -9 0 -12 5 -8 13 23 40 41 46 29 8z m-310 -121 c-22 -24
-48 -26 -65 -5 -15 18 -15 19 30 32 44 12 60 0 35 -27z m195 -10 c0 -3 -10
-11 -21 -19 -19 -11 -25 -10 -48 13 -20 21 -23 29 -13 35 13 8 82 -17 82 -29z
m-280 -20 c13 -24 5 -56 -15 -64 -16 -6 -17 -5 -20 39 -3 49 15 62 35 25z
m195 -16 c15 -23 14 -26 -17 -54 l-33 -30 -17 22 c-22 28 -23 62 -3 81 19 20
50 11 70 -19z m160 -51 c-22 -32 -35 -20 -35 32 0 52 20 64 38 22 10 -25 10
-34 -3 -54z m-268 -15 c29 -27 29 -39 0 -66 -19 -18 -26 -20 -39 -9 -20 15
-24 34 -15 70 9 33 23 34 54 5z m-147 -2 c0 -8 -4 -18 -10 -21 -5 -3 -10 3
-10 14 0 12 5 21 10 21 6 0 10 -6 10 -14z m334 -22 c7 -19 -3 -43 -24 -54 -13
-7 -20 -6 -24 5 -3 8 -1 17 4 20 6 4 10 17 10 30 0 26 24 26 34 -1z m102 -31
c-10 -10 -19 5 -10 18 6 11 8 11 12 0 2 -7 1 -15 -2 -18z m-358 -26 c16 -19 5
-47 -18 -47 -20 0 -30 19 -30 56 0 21 3 23 18 15 10 -5 24 -16 30 -24z m159
-14 c19 -17 16 -30 -9 -47 -20 -14 -24 -14 -39 0 -19 17 -22 51 -6 72 10 13
19 8 54 -25z m141 -25 c-6 -18 -28 -21 -28 -4 0 9 7 16 16 16 9 0 14 -5 12
-12z m-243 -28 c10 -11 16 -23 12 -26 -9 -9 -47 16 -47 31 0 21 14 19 35 -5z
m160 -9 c7 -12 -25 -30 -43 -24 -10 4 -10 8 -1 19 13 16 35 18 44 5z m-1313
-298 c107 -109 219 -221 249 -249 109 -103 319 -323 319 -335 0 -10 -296 -316
-414 -428 -27 -25 -120 -118 -207 -205 -87 -88 -161 -157 -165 -154 -6 6 -5
390 1 1123 4 473 4 445 13 445 5 0 96 -89 204 -197z m2650 -440 c-2 -948 -2
-924 -15 -916 -6 4 -86 83 -177 177 -91 93 -258 262 -372 376 -115 114 -208
211 -208 217 0 15 759 777 767 770 3 -4 6 -285 5 -624z m-1622 452 c112 -35
160 -71 166 -127 9 -74 0 -761 -11 -812 -9 -45 -14 -48 -45 -26 -81 57 -217
85 -332 67 l-37 -5 4 451 c5 412 7 453 22 465 23 16 160 9 233 -13z m617 2 c6
-4 12 -33 13 -64 3 -88 3 -540 0 -695 l-3 -138 -26 7 c-84 23 -231 -13 -333
-81 l-27 -18 -11 44 c-25 89 -13 813 13 855 31 50 325 120 374 90z m-904 -244
c-2 -120 -3 -318 -4 -440 l-1 -222 -32 -38 c-18 -21 -38 -47 -45 -58 -17 -30
-9 871 9 906 17 32 51 69 64 69 8 0 10 -67 9 -217z m969 123 c-2 -31 2 -57 7
-61 7 -4 11 6 12 27 1 40 6 68 13 76 3 3 6 -50 5 -117 0 -113 3 -142 16 -130
2 3 6 40 8 82 7 132 21 103 19 -38 -1 -22 -2 -190 -2 -372 -1 -183 -5 -331 -9
-328 -4 2 -9 100 -10 217 -1 119 -6 217 -11 222 -12 12 -12 26 -13 -191 -1
-100 -5 -185 -9 -189 -9 -8 -11 30 -9 169 1 62 -2 97 -9 97 -5 0 -10 -8 -11
-17 0 -10 -2 -57 -3 -106 -2 -48 -6 -91 -10 -94 -4 -4 -6 77 -4 180 2 103 6
187 11 187 4 0 7 -10 7 -22 0 -18 2 -20 10 -8 11 18 11 183 -1 201 -6 10 -9 5
-9 -15 0 -35 -10 -30 -11 5 -2 71 3 264 7 271 9 14 10 9 6 -46z m78 -11 c0 -8
-4 -15 -10 -15 -5 0 -7 7 -4 15 4 8 8 15 10 15 2 0 4 -7 4 -15z m-80 -282 c0
-21 -3 -24 -9 -14 -5 8 -7 20 -4 28 8 21 13 15 13 -14z m0 -48 c0 -8 -4 -15
-10 -15 -5 0 -7 7 -4 15 4 8 8 15 10 15 2 0 4 -7 4 -15z m-63 -473 c26 -14 83
-79 83 -95 0 -9 -36 -13 -137 -13 -126 -1 -293 -10 -300 -17 -1 -2 -4 -14 -6
-27 -5 -34 -49 -64 -80 -56 -22 5 -39 30 -42 58 -1 19 -34 22 -245 23 -127 1
-233 5 -237 9 -11 11 52 80 94 102 50 25 126 25 233 -1 68 -16 139 -55 188
-102 7 -7 15 -13 16 -13 3 0 64 46 91 68 17 14 149 62 196 71 53 11 119 7 146
-7z m-242 -471 c91 -91 165 -168 165 -171 0 -4 -26 -6 -57 -5 -32 1 -64 0 -70
-3 -14 -5 -18 -28 -5 -34 12 -5 62 -69 62 -79 0 -5 -34 -9 -75 -9 -67 0 -74 2
-68 18 4 9 13 23 20 30 15 16 28 60 19 69 -10 10 -250 13 -265 4 -12 -8 -10
-17 15 -53 16 -23 33 -48 37 -55 6 -10 -11 -13 -78 -13 -47 0 -85 3 -85 8 0 4
18 27 40 52 39 44 47 59 33 61 -5 0 -52 2 -106 3 -53 2 -99 5 -102 8 -8 7 329
339 342 336 7 -2 87 -77 178 -167z m246 -283 c1 -26 2 -55 2 -63 0 -8 -1 -39
-2 -69 l-1 -55 -382 3 c-211 2 -386 4 -390 5 -5 0 -8 7 -8 15 0 11 61 13 372
12 l373 -1 2 65 c1 36 2 90 3 120 1 51 2 53 15 36 8 -11 16 -41 16 -68z m-632
55 c-36 -48 -84 -80 -94 -64 -8 13 66 81 89 81 16 0 17 -2 5 -17z m331 5 c0
-18 -50 -78 -65 -78 -17 0 -10 23 19 63 20 27 46 36 46 15z m-536 -117 c-3
-94 -2 -100 25 -131 26 -32 29 -33 99 -32 41 1 72 -3 72 -8 0 -10 -44 -129
-62 -166 -8 -17 -20 -21 -66 -23 -31 -1 -59 -4 -61 -7 -3 -3 -6 -61 -7 -129
-2 -122 -7 -151 -24 -140 -5 3 -42 8 -83 10 -42 3 -106 7 -144 10 -92 6 -160
13 -208 22 -22 4 -47 7 -55 8 -54 5 -129 18 -140 25 -9 5 86 106 316 334 181
179 332 326 335 326 3 0 4 -44 3 -99z m1441 -531 c-9 -14 -176 -49 -265 -55
-47 -3 -92 -8 -100 -10 -8 -2 -57 -7 -107 -10 -74 -6 -93 -4 -94 7 -1 7 -3 61
-4 120 -1 60 -5 111 -9 115 -4 4 -32 7 -63 8 l-56 0 -30 87 c-17 48 -29 89
-26 92 2 3 36 6 74 7 111 3 111 3 113 101 0 45 1 92 2 103 0 14 81 -62 285
-269 157 -158 283 -292 280 -296z m-775 261 c15 -45 24 -83 20 -86 -23 -14
-88 143 -67 164 14 14 15 14 47 -78z m164 -233 c-2 -110 -1 -105 -22 -110 -16
-5 -18 3 -17 91 1 101 8 129 29 112 8 -6 11 -39 10 -93z m-392 64 c13 -5 15
-11 8 -22 -5 -8 -10 -11 -10 -7 0 4 -9 3 -21 -3 -31 -17 -48 -68 -51 -159 -1
-45 -6 -85 -10 -87 -21 -13 -128 -6 -171 12 -26 10 -47 21 -47 24 0 3 30 5 66
4 37 -2 77 2 90 7 21 8 24 15 24 66 1 135 45 195 122 165z m34 -139 c-1 -38 5
-87 12 -110 l14 -43 -57 -57 c-57 -58 -57 -58 -74 -37 -9 12 -27 27 -40 33
-30 16 -17 29 34 33 l40 3 1 85 c1 47 5 96 8 110 6 27 43 63 56 55 4 -2 7 -35
6 -72z m123 -109 c-32 -18 -69 -18 -69 0 0 18 14 23 58 18 35 -5 35 -5 11 -18z"/>
<path d="M2663 3485 c0 -10 20 -21 56 -31 118 -32 188 -57 240 -86 29 -16 56
-27 59 -23 19 19 -121 97 -242 134 -81 25 -113 27 -113 6z"/>
<path d="M2676 3234 c-9 -24 -1 -29 84 -43 73 -11 220 -73 220 -92 0 -5 10 -9
21 -9 19 0 20 2 8 17 -39 47 -205 129 -283 139 -35 5 -44 3 -50 -12z"/>
<path d="M2677 2983 c-4 -3 -7 -14 -7 -24 0 -13 12 -20 48 -25 26 -5 49 -9 52
-9 3 -1 25 -5 49 -9 25 -5 77 -21 115 -37 39 -16 73 -29 75 -29 3 0 -6 11 -19
25 -26 27 -138 77 -226 100 -65 17 -78 18 -87 8z"/>
<path d="M3298 3467 c-81 -33 -168 -89 -168 -107 0 -6 30 5 68 24 37 19 99 45
137 57 71 22 95 35 95 50 0 18 -57 7 -132 -24z"/>
<path d="M3335 3244 c-109 -40 -237 -116 -221 -131 3 -3 31 7 63 23 32 15 63
29 69 30 25 4 150 48 162 57 20 15 14 37 -10 36 -13 0 -41 -7 -63 -15z"/>
<path d="M3340 3001 c-58 -18 -176 -80 -210 -108 -34 -30 -10 -33 38 -5 46 27
180 72 214 72 27 0 51 29 37 46 -14 17 -11 17 -79 -5z"/>
<path d="M3555 3420 c3 -5 8 -10 11 -10 2 0 4 5 4 10 0 6 -5 10 -11 10 -5 0
-7 -4 -4 -10z"/>
<path d="M3590 3225 c0 -30 5 -55 10 -55 10 0 12 6 12 50 1 45 -2 60 -12 60
-5 0 -10 -25 -10 -55z"/>
<path d="M5070 5163 c-27 -11 -68 -60 -75 -91 -3 -17 -1 -57 5 -89 17 -83 19
-125 7 -148 -27 -53 -81 -59 -126 -14 -29 29 -33 38 -33 74 0 34 3 44 18 60 9
9 14 18 11 21 -6 6 -87 -67 -87 -78 0 -4 7 -8 15 -8 8 0 21 -15 30 -34 9 -18
29 -46 46 -61 51 -50 155 -35 187 28 17 32 18 73 4 147 -20 100 -20 103 -6
132 18 34 44 49 75 41 51 -13 80 -75 61 -127 -7 -16 -10 -31 -8 -34 2 -2 21
13 41 32 20 20 32 36 26 36 -5 0 -24 20 -41 45 -43 63 -98 88 -150 68z"/>
<path d="M800 4935 c-86 -105 -126 -163 -89 -127 24 23 48 12 146 -67 168
-137 176 -145 176 -180 0 -38 -6 -44 116 103 l90 109 -20 29 c-24 34 -42 37
-30 6 5 -13 9 -27 9 -33 0 -14 -54 -88 -88 -120 l-27 -26 -67 56 c-36 31 -66
59 -66 62 0 3 21 30 46 60 39 45 51 53 70 49 34 -9 30 4 -10 37 -42 33 -48 34
-41 4 5 -18 -5 -37 -40 -81 -42 -51 -49 -56 -64 -43 -9 7 -40 33 -68 57 -49
40 -64 63 -45 72 4 2 27 27 51 56 38 46 48 53 73 50 15 -3 28 -1 28 3 0 6 -44
39 -53 39 -1 0 -45 -52 -97 -115z"/>
<path d="M5460 4762 c0 -15 -8 -33 -17 -40 -131 -94 -253 -176 -273 -184 -17
-6 -31 -6 -42 1 -10 6 -18 9 -18 6 0 -13 31 -59 70 -105 16 -18 20 -20 16 -7
-10 32 10 52 152 151 139 96 166 107 191 84 11 -11 13 -10 8 4 -6 18 -77 118
-83 118 -2 0 -4 -13 -4 -28z"/>
<path d="M482 4475 c-17 -35 -28 -67 -23 -70 5 -2 12 2 15 10 8 21 36 15 118
-23 l67 -31 -42 -88 c-69 -144 -54 -134 -142 -90 -70 37 -81 48 -76 85 4 27
-10 9 -44 -57 -19 -39 -31 -72 -26 -75 5 -3 11 1 15 9 9 25 36 18 174 -50 74
-36 138 -65 143 -65 5 0 9 -4 9 -10 0 -5 7 -10 15 -10 8 0 18 -14 23 -32 l8
-33 36 73 c36 74 36 82 4 57 -20 -15 -28 -13 -122 30 -30 14 -54 30 -54 35 0
6 8 25 17 43 9 18 18 34 18 37 1 3 15 33 33 68 l32 62 68 -34 c75 -38 97 -58
88 -81 -3 -8 -1 -15 3 -15 10 0 71 112 71 130 0 6 -11 3 -25 -6 -25 -16 -29
-15 -190 64 -149 73 -165 84 -165 107 0 41 -14 29 -48 -40z"/>
<path d="M5648 4442 c-44 -19 -49 -31 -13 -28 27 3 53 -20 79 -71 22 -44 21
-49 -16 -64 -18 -7 -76 -33 -128 -57 -180 -84 -174 -82 -205 -66 -15 8 -29 14
-30 14 -2 0 5 -17 14 -37 10 -21 24 -53 32 -70 14 -32 31 -45 28 -20 -4 32 9
42 119 94 123 58 222 103 228 103 2 0 13 -18 24 -40 24 -47 26 -93 5 -110 -25
-20 -11 -22 34 -4 47 18 49 24 21 49 -11 10 -20 22 -20 26 0 7 -59 137 -102
225 -5 12 -11 33 -11 48 -2 30 -9 31 -59 8z"/>
<path d="M220 3852 c0 -44 -41 -233 -65 -301 -8 -24 -14 -45 -13 -45 15 -8 88
-22 88 -17 0 4 -9 14 -20 24 -21 18 -25 67 -11 117 9 29 22 29 146 0 28 -6 61
-14 74 -16 118 -23 182 -49 179 -73 -4 -37 7 -11 22 49 10 41 17 77 15 79 -2
2 -11 -4 -20 -13 -19 -18 -36 -20 -85 -6 -19 5 -51 12 -70 15 -19 3 -48 9 -65
14 -16 5 -57 14 -90 21 -85 17 -84 17 -80 37 17 87 38 122 75 123 23 1 23 2 5
9 -11 5 -35 12 -52 15 -33 8 -33 7 -33 -32z"/>
<path d="M5920 3870 c-1 -3 -4 -16 -6 -30 -7 -37 -161 -188 -199 -194 -16 -3
-41 -8 -55 -11 -90 -18 -120 -15 -120 11 0 8 -4 14 -9 14 -7 0 -2 -44 14 -110
2 -8 4 -21 4 -27 2 -22 18 -14 25 10 5 20 18 26 96 43 l90 21 88 -33 c48 -19
92 -34 99 -34 6 0 21 -12 32 -27 29 -35 34 -26 19 36 -11 48 -28 70 -28 36 0
-21 -38 -19 -97 3 -26 11 -56 22 -67 26 -16 5 -9 16 49 73 l67 66 19 -24 c17
-22 19 -22 18 -4 -1 22 -36 163 -39 155z"/>
<path d="M305 3036 c-25 -18 -16 -60 14 -64 31 -5 54 23 41 48 -13 24 -35 31
-55 16z"/>
<path d="M5805 3030 c-23 -25 -12 -60 19 -60 47 0 59 47 18 69 -15 8 -23 6
-37 -9z"/>
<path d="M5557 2550 c-12 -26 -37 -114 -37 -129 0 -11 6 -9 20 6 l20 22 82
-23 c70 -19 83 -26 80 -42 -5 -32 -55 -199 -61 -205 -3 -4 -42 5 -86 20 -66
21 -81 30 -83 49 -2 12 -7 22 -11 22 -12 0 -50 -139 -40 -146 5 -3 9 1 9 9 0
37 27 33 265 -38 110 -32 135 -47 130 -77 -8 -41 16 -2 29 48 7 27 16 60 20
73 l8 23 -28 -21 -29 -21 -78 22 c-90 25 -87 13 -43 163 1 6 8 29 14 51 l12
42 76 -24 c83 -25 108 -40 100 -60 -3 -7 -2 -16 3 -18 4 -3 15 20 25 50 30 95
30 109 0 79 -19 -19 -37 -16 -209 35 -158 46 -172 53 -178 82 -3 18 -5 19 -10
8z"/>
<path d="M438 2524 c-2 -1 -15 -4 -28 -7 -146 -22 -232 -183 -172 -320 81
-182 323 -193 414 -19 56 109 17 248 -88 313 -28 17 -119 41 -126 33z m157
-99 c44 -33 62 -69 62 -120 0 -72 -37 -121 -122 -161 -120 -56 -244 -26 -284
69 -21 48 -14 104 16 146 23 31 114 88 152 95 63 11 141 -2 176 -29z"/>
<path d="M812 1905 c3 -26 -3 -34 -47 -62 -47 -31 -130 -78 -232 -132 -37 -19
-49 -21 -69 -12 -29 13 -30 5 -4 -34 12 -16 28 -45 37 -64 9 -19 18 -30 19
-25 1 5 5 21 8 36 4 19 22 36 63 60 93 53 88 54 121 -10 30 -59 33 -89 10
-103 -11 -7 -11 -9 0 -9 17 0 102 49 102 59 0 4 -12 6 -27 4 -24 -4 -32 2 -54
40 -44 73 -44 81 -2 104 21 12 55 31 76 42 36 20 57 21 57 1 0 -5 13 -31 29
-58 27 -46 28 -52 15 -77 -18 -35 -15 -38 20 -22 20 9 25 17 21 34 -5 20 -102
196 -132 238 -14 19 -14 18 -11 -10z"/>
<path d="M5313 1876 c3 -8 -12 -33 -35 -58 -58 -63 -78 -112 -74 -184 1 -32
11 -74 20 -93 26 -50 90 -106 138 -121 122 -37 222 18 301 168 l35 65 -62 40
c-71 46 -76 52 -70 84 7 38 -11 19 -55 -58 -43 -74 -48 -95 -16 -59 24 26 37
25 90 -5 52 -31 59 -46 41 -88 -49 -115 -214 -128 -330 -27 -47 42 -68 82 -68
135 -2 86 65 148 154 146 47 -1 50 1 32 14 -10 8 -23 15 -27 15 -5 0 -20 9
-34 20 -30 23 -47 26 -40 6z"/>
<path d="M4918 1303 c-34 -14 -188 -159 -188 -177 0 -6 5 -5 12 2 26 26 53 8
180 -118 115 -114 130 -132 124 -155 -8 -32 1 -32 32 3 13 15 36 39 50 55 l26
27 -31 -6 c-28 -6 -38 0 -87 46 -31 29 -56 58 -56 64 0 6 12 19 26 30 21 15
37 17 82 13 32 -3 64 -7 72 -10 8 -2 37 -7 63 -12 44 -7 50 -5 77 21 37 36 37
44 3 35 -17 -5 -59 -1 -106 9 -42 9 -90 16 -106 15 -30 -2 -30 -2 -24 45 11
93 -63 149 -149 113z m85 -73 c41 -45 32 -105 -22 -154 l-22 -20 -70 71 -71
70 24 26 c51 55 114 58 161 7z"/>
<path d="M1350 1192 c0 -4 4 -12 9 -17 11 -11 -10 -62 -39 -93 -10 -11 -49
-57 -86 -103 -85 -105 -103 -121 -130 -116 -32 6 -20 -12 34 -55 26 -20 78
-62 115 -92 60 -50 70 -54 83 -41 8 8 23 19 32 24 24 14 9 23 -19 13 -27 -11
-57 -2 -91 26 -13 11 -36 31 -53 45 l-29 25 27 38 c15 22 41 54 57 73 l29 34
36 -27 c65 -50 84 -73 77 -98 -5 -21 -4 -22 12 -9 9 8 27 28 38 44 l22 30 -28
-7 c-22 -5 -37 1 -81 36 -30 24 -55 46 -55 49 0 14 103 134 114 134 14 0 63
-36 106 -78 22 -20 27 -34 24 -54 -5 -27 -5 -27 15 -9 26 23 27 48 3 62 -10 7
-62 48 -116 93 -99 82 -106 87 -106 73z"/>
<path d="M4473 942 c-63 -36 -81 -55 -44 -45 26 7 48 -20 127 -157 57 -97 65
-118 60 -148 -10 -63 -82 -119 -141 -108 -44 9 -67 36 -146 173 -64 113 -66
119 -53 145 13 25 13 27 -3 21 -25 -9 -123 -72 -123 -79 0 -3 9 -2 20 1 30 10
42 -4 115 -129 35 -62 78 -125 94 -140 70 -67 198 -30 243 71 18 41 22 44 31
27 5 -10 11 -20 13 -22 4 -6 82 37 90 50 5 8 2 9 -9 5 -31 -12 -47 5 -116 122
-108 183 -114 196 -101 221 6 12 10 23 8 25 -2 2 -31 -13 -65 -33z"/>
<path d="M1820 836 c8 -10 15 -25 17 -35 3 -18 -122 -296 -145 -323 -8 -10
-27 -18 -41 -19 -20 0 -10 -8 44 -35 141 -71 190 -87 263 -86 110 1 192 94
192 217 0 105 -65 177 -224 248 -123 54 -124 54 -106 33z m154 -77 c118 -59
147 -150 90 -279 -45 -99 -135 -139 -230 -101 -61 24 -84 45 -79 74 3 13 24
64 48 113 24 49 56 119 73 156 16 37 31 68 32 68 2 0 32 -14 66 -31z"/>
<path d="M3769 620 c-26 -4 -57 -14 -70 -21 -13 -7 -25 -12 -27 -11 -6 5 -82
-12 -82 -18 0 -4 11 -11 24 -14 27 -7 35 -27 86 -214 35 -129 37 -160 13 -178
-27 -20 -2 -18 97 10 123 34 157 51 180 88 38 62 6 132 -73 159 l-46 15 24 25
c24 25 32 67 20 106 -6 18 -80 66 -96 62 -2 -1 -25 -5 -50 -9z m65 -45 c57
-52 31 -138 -49 -162 -38 -12 -48 -4 -59 48 -3 13 -10 42 -15 64 -15 57 -14
63 12 68 56 11 85 6 111 -18z m63 -195 c23 -13 34 -29 39 -54 13 -72 -13 -108
-88 -121 -43 -8 -50 0 -79 104 -17 61 -17 67 -2 79 25 18 94 15 130 -8z"/>
<path d="M2468 584 c29 -20 28 -37 -13 -221 -35 -157 -47 -188 -71 -179 -7 3
-16 1 -19 -3 -5 -9 64 -30 125 -37 l35 -5 -23 21 c-25 24 -25 35 3 150 9 36
18 80 21 99 2 19 6 37 9 41 2 4 7 22 10 41 6 36 32 72 46 64 4 -3 10 -2 13 3
3 5 -27 16 -67 25 -88 21 -97 21 -69 1z"/>
<path d="M2890 519 l-25 -6 27 -11 c37 -15 41 -36 41 -224 1 -145 -1 -162 -18
-174 -10 -7 -22 -11 -28 -7 -6 3 -7 1 -4 -4 8 -13 127 -14 127 -2 0 5 -6 9
-14 9 -34 0 -40 29 -41 191 -1 87 2 159 6 159 3 0 35 -35 70 -77 35 -43 68
-83 74 -89 5 -6 26 -30 45 -54 62 -78 113 -135 121 -138 8 -3 13 19 10 40 -4
34 -1 330 4 351 5 17 14 27 26 27 10 0 19 4 19 10 0 11 -115 8 -126 -3 -4 -4
2 -7 13 -7 12 0 24 -8 29 -17 4 -10 9 -83 10 -162 l3 -145 -22 25 c-12 13 -40
46 -62 74 -59 73 -69 86 -111 135 -22 25 -49 58 -62 74 -23 30 -62 39 -112 25z"/>
</g>
</svg>
